<?xml version="1.0" encoding="UTF-8"?>
<svg id="Layer_1" data-name="Layer 1" xmlns="http://www.w3.org/2000/svg" version="1.1" viewBox="0 0 864.3 142.7">
  <defs>
    <style>
      .cls-1 {
        fill: #000;
      }

      .cls-1, .cls-2, .cls-3 {
        stroke-width: 0px;
      }

      .cls-2 {
        fill: #00d4d0;
      }

      .cls-4 {
        isolation: isolate;
      }

      .cls-3 {
        fill: #fff;
      }
    </style>
  </defs>
  <circle class="cls-3" cx="110.5" cy="38.2" r="9"/>
  <path class="cls-2" d="M99.6,76.6c0,11.9-9.7,21.6-21.7,21.7-5.6,0-11-2.1-14.7-5.9,5.3,16.6,18.7,29.7,35.6,34.2,19.8-8.3,33.7-27.5,33.7-50.3h-32.9v.3s0,0,0,0Z"/>
  <path class="cls-2" d="M90,12v11c-4-.8-8-1.3-12-1.3-30.1,0-54.5,24.2-54.5,54.3v.2c0,29.9,24.3,54.5,54.5,54.5,4.8,0,9.6-.6,14.2-1.9-20.1-8-34.5-27-35.6-49.7-.2-1-.3-2-.3-2.9,0-11.9,9.7-21.6,21.7-21.7h54.5c-.3-23.5-19.3-42.5-42.5-42.5h0ZM110.3,46.5c-4.7,0-8.5-3.8-8.6-8.6,0-4.5,4-8.6,8.6-8.6s8.6,3.8,8.6,8.6-3.8,8.6-8.6,8.6Z"/>
  <path class="cls-2" d="M110.9,38.1c0,1.9,1.6,3.5,3.5,3.5s3.5-1.6,3.5-3.5-1.6-3.5-3.5-3.5c-1.9.3-3.5,1.6-3.5,3.5Z"/>
  <g class="cls-4">
    <g class="cls-4">
      <path class="cls-1" d="M188.3,55.5c1.9-3.4,4.5-6.1,7.9-8,3.4-1.9,7.3-2.9,11.6-2.9s9.8,1.4,13.6,4.2c3.8,2.8,6.3,6.6,7.5,11.4h-11.9c-.9-1.9-2.1-3.3-3.8-4.2-1.6-1-3.5-1.5-5.5-1.5-3.3,0-6,1.2-8.1,3.5-2.1,2.3-3.1,5.4-3.1,9.3s1,7,3.1,9.3c2.1,2.3,4.8,3.5,8.1,3.5s3.9-.5,5.5-1.5c1.6-1,2.9-2.4,3.8-4.2h11.9c-1.3,4.8-3.8,8.6-7.5,11.4-3.8,2.8-8.3,4.1-13.6,4.1s-8.2-1-11.6-2.9c-3.4-1.9-6-4.6-7.9-8s-2.9-7.3-2.9-11.7,1-8.3,2.9-11.7Z"/>
      <path class="cls-1" d="M268.2,57.8c2.4,2.7,3.7,6.4,3.7,11.1v20.6h-10.8v-19.2c0-2.4-.6-4.2-1.8-5.5-1.2-1.3-2.9-2-4.9-2s-3.7.7-4.9,2c-1.2,1.3-1.8,3.1-1.8,5.5v19.2h-10.8v-46.9h10.8v16.3c1.1-1.6,2.6-2.8,4.5-3.7,1.9-.9,4-1.4,6.4-1.4,4.1,0,7.3,1.3,9.8,4Z"/>
      <path class="cls-1" d="M280.6,62.2c1.4-2.7,3.2-4.9,5.6-6.3,2.4-1.5,5-2.2,7.9-2.2s4.7.5,6.6,1.5c1.9,1,3.3,2.3,4.3,4v-5h10.8v35.3h-10.8v-5c-1.1,1.6-2.5,3-4.4,4-1.9,1-4.1,1.5-6.6,1.5s-5.5-.7-7.9-2.2c-2.4-1.5-4.2-3.6-5.6-6.4-1.4-2.8-2.1-6-2.1-9.6s.7-6.8,2.1-9.6ZM302.7,65.5c-1.5-1.6-3.3-2.3-5.5-2.3s-4,.8-5.5,2.3c-1.5,1.5-2.2,3.7-2.2,6.4s.7,4.8,2.2,6.4c1.5,1.6,3.3,2.4,5.5,2.4s4-.8,5.5-2.3c1.5-1.6,2.2-3.7,2.2-6.4s-.8-4.8-2.2-6.4Z"/>
      <path class="cls-1" d="M380.4,57.8c2.6,2.7,3.9,6.4,3.9,11.1v20.6h-10.8v-19.2c0-2.3-.6-4-1.8-5.3-1.2-1.2-2.9-1.9-5-1.9s-3.8.6-5,1.9-1.8,3-1.8,5.3v19.2h-10.8v-19.2c0-2.3-.6-4-1.8-5.3s-2.9-1.9-5-1.9-3.8.6-5,1.9c-1.2,1.2-1.8,3-1.8,5.3v19.2h-10.8v-35.3h10.8v4.4c1.1-1.5,2.5-2.6,4.3-3.5,1.8-.9,3.8-1.3,6-1.3s5,.6,7.1,1.7c2.1,1.1,3.7,2.8,4.9,4.9,1.2-1.9,2.9-3.5,5-4.8,2.1-1.2,4.4-1.8,6.9-1.8,4.4,0,7.9,1.3,10.5,4Z"/>
      <path class="cls-1" d="M426.3,74.5h-24.5c.2,2.2.9,3.9,2.1,5,1.2,1.2,2.8,1.7,4.6,1.7,2.7,0,4.6-1.1,5.6-3.4h11.5c-.6,2.3-1.7,4.4-3.2,6.3-1.5,1.9-3.5,3.3-5.8,4.4-2.3,1.1-4.9,1.6-7.8,1.6s-6.5-.7-9.2-2.2c-2.7-1.5-4.8-3.6-6.3-6.3-1.5-2.7-2.3-6-2.3-9.6s.7-6.9,2.2-9.6c1.5-2.7,3.6-4.9,6.3-6.3,2.7-1.5,5.8-2.2,9.3-2.2s6.5.7,9.1,2.2c2.7,1.4,4.7,3.5,6.2,6.1,1.5,2.7,2.2,5.8,2.2,9.3s0,2.1-.2,3.2ZM415.4,68.4c0-1.9-.6-3.3-1.9-4.4s-2.9-1.6-4.8-1.6-3.3.5-4.6,1.6c-1.2,1.1-2,2.6-2.3,4.5h13.6Z"/>
      <path class="cls-1" d="M444.2,42.7v46.9h-10.8v-46.9h10.8Z"/>
      <path class="cls-1" d="M486.4,74.5h-24.5c.2,2.2.9,3.9,2.1,5,1.2,1.2,2.8,1.7,4.6,1.7,2.7,0,4.6-1.1,5.6-3.4h11.5c-.6,2.3-1.7,4.4-3.2,6.3-1.5,1.9-3.5,3.3-5.8,4.4-2.3,1.1-4.9,1.6-7.8,1.6s-6.5-.7-9.2-2.2c-2.7-1.5-4.8-3.6-6.3-6.3-1.5-2.7-2.3-6-2.3-9.6s.7-6.9,2.2-9.6c1.5-2.7,3.6-4.9,6.3-6.3,2.7-1.5,5.8-2.2,9.3-2.2s6.5.7,9.1,2.2,4.7,3.5,6.2,6.1c1.5,2.7,2.2,5.8,2.2,9.3s0,2.1-.2,3.2ZM475.5,68.4c0-1.9-.6-3.3-1.9-4.4s-2.9-1.6-4.8-1.6-3.3.5-4.6,1.6c-1.2,1.1-2,2.6-2.3,4.5h13.6Z"/>
      <path class="cls-1" d="M500.2,87.8c-2.8-1.5-4.9-3.6-6.5-6.3-1.6-2.7-2.4-6-2.4-9.6s.8-6.8,2.4-9.6c1.6-2.8,3.8-4.9,6.6-6.4,2.8-1.5,5.9-2.2,9.4-2.2s6.6.7,9.4,2.2c2.8,1.5,5,3.6,6.6,6.4,1.6,2.8,2.4,6,2.4,9.6s-.8,6.8-2.4,9.6c-1.6,2.8-3.8,4.9-6.6,6.4-2.8,1.5-5.9,2.2-9.4,2.2s-6.6-.7-9.3-2.2ZM514.8,78.4c1.5-1.5,2.2-3.7,2.2-6.5s-.7-5-2.1-6.5c-1.4-1.5-3.2-2.3-5.2-2.3s-3.9.8-5.3,2.2c-1.4,1.5-2.1,3.7-2.1,6.6s.7,5,2.1,6.5c1.4,1.5,3.1,2.3,5.2,2.3s3.8-.8,5.3-2.3Z"/>
      <path class="cls-1" d="M566.4,57.8c2.5,2.7,3.7,6.4,3.7,11.1v20.6h-10.8v-19.2c0-2.4-.6-4.2-1.8-5.5s-2.9-2-4.9-2-3.7.7-4.9,2-1.8,3.1-1.8,5.5v19.2h-10.8v-35.3h10.8v4.7c1.1-1.6,2.6-2.8,4.4-3.7,1.9-.9,3.9-1.4,6.3-1.4,4.1,0,7.4,1.3,9.9,4Z"/>
    </g>
    <g class="cls-4">
      <path class="cls-1" d="M595.9,55.8c1.9-3.4,4.6-6.1,7.9-8.1,3.4-1.9,7.1-2.9,11.2-2.9s9,1.2,12.6,3.5c3.6,2.3,6.2,5.6,7.9,9.9h-6.9c-1.2-2.7-3-4.7-5.3-6.1-2.3-1.4-5.1-2.2-8.3-2.2s-5.8.7-8.3,2.2c-2.4,1.4-4.4,3.5-5.8,6.1s-2.1,5.7-2.1,9.3.7,6.6,2.1,9.2,3.3,4.7,5.8,6.1c2.4,1.4,5.2,2.2,8.3,2.2s6-.7,8.3-2.1c2.3-1.4,4.1-3.5,5.3-6.1h6.9c-1.6,4.2-4.3,7.5-7.9,9.8-3.6,2.3-7.8,3.5-12.6,3.5s-7.8-1-11.2-2.9c-3.4-1.9-6-4.6-7.9-8-1.9-3.4-2.9-7.3-2.9-11.6s1-8.2,2.9-11.6Z"/>
      <path class="cls-1" d="M655.3,55.8c1.9-1.1,4.2-1.6,6.9-1.6v6h-1.5c-6.5,0-9.7,3.5-9.7,10.5v18.9h-5.8v-34.7h5.8v5.6c1-2,2.5-3.5,4.3-4.6Z"/>
      <path class="cls-1" d="M701.5,74.3h-27.7c.2,3.4,1.4,6.1,3.5,8,2.1,1.9,4.7,2.9,7.8,2.9s4.6-.6,6.2-1.7c1.7-1.2,2.8-2.7,3.5-4.7h6.2c-.9,3.3-2.8,6-5.6,8.1-2.8,2.1-6.2,3.1-10.4,3.1s-6.2-.7-8.8-2.2c-2.6-1.5-4.6-3.6-6.1-6.3-1.5-2.7-2.2-5.9-2.2-9.5s.7-6.7,2.2-9.4c1.4-2.7,3.5-4.8,6-6.2,2.6-1.5,5.6-2.2,9-2.2s6.2.7,8.7,2.2c2.5,1.4,4.5,3.4,5.9,5.9,1.4,2.5,2.1,5.4,2.1,8.5s0,2.3-.2,3.5ZM694.3,64c-1-1.6-2.3-2.8-4-3.6-1.7-.8-3.5-1.2-5.5-1.2-2.9,0-5.4.9-7.4,2.8-2,1.9-3.2,4.4-3.5,7.7h21.9c0-2.2-.5-4.1-1.5-5.7Z"/>
      <path class="cls-1" d="M710.5,62.7c1.4-2.7,3.4-4.8,5.9-6.2,2.5-1.5,5.3-2.2,8.4-2.2s5.7.7,7.9,2c2.2,1.3,3.9,3,5,4.9v-6.3h5.8v34.7h-5.8v-6.5c-1.1,2-2.8,3.7-5.1,5-2.3,1.3-4.9,2-7.9,2s-5.9-.8-8.4-2.3-4.5-3.7-5.9-6.4c-1.4-2.7-2.2-5.9-2.2-9.4s.7-6.7,2.2-9.3ZM736.1,65.3c-1.1-1.9-2.5-3.4-4.3-4.5-1.8-1-3.8-1.6-5.9-1.6s-4.1.5-5.9,1.5c-1.8,1-3.2,2.5-4.2,4.4-1.1,1.9-1.6,4.2-1.6,6.8s.5,5,1.6,6.9c1.1,2,2.5,3.5,4.2,4.5,1.8,1,3.7,1.6,5.9,1.6s4.1-.5,5.9-1.6c1.8-1,3.2-2.5,4.3-4.5,1.1-2,1.6-4.3,1.6-6.9s-.5-4.9-1.6-6.8Z"/>
      <path class="cls-1" d="M761.5,59.6v20.5c0,1.7.4,2.9,1.1,3.6.7.7,2,1,3.7,1h4.2v4.9h-5.2c-3.2,0-5.6-.7-7.2-2.2-1.6-1.5-2.4-3.9-2.4-7.3v-20.5h-4.5v-4.8h4.5v-8.7h5.8v8.7h9.1v4.8h-9.1Z"/>
      <path class="cls-1" d="M785.1,87.9c-2.6-1.5-4.7-3.6-6.2-6.3-1.5-2.7-2.2-5.9-2.2-9.5s.8-6.7,2.3-9.4c1.5-2.7,3.6-4.8,6.3-6.3,2.7-1.5,5.6-2.2,8.9-2.2s6.3.7,8.9,2.2c2.7,1.5,4.8,3.5,6.3,6.2,1.5,2.7,2.3,5.8,2.3,9.4s-.8,6.7-2.4,9.5-3.7,4.8-6.4,6.3c-2.7,1.5-5.7,2.2-9,2.2s-6.2-.7-8.8-2.2ZM799.7,83.6c1.8-1,3.3-2.4,4.4-4.4,1.1-1.9,1.7-4.3,1.7-7.1s-.5-5.2-1.6-7.1c-1.1-1.9-2.5-3.4-4.3-4.3-1.8-1-3.7-1.4-5.8-1.4s-4,.5-5.8,1.4c-1.8,1-3.2,2.4-4.2,4.3-1.1,1.9-1.6,4.3-1.6,7.1s.5,5.2,1.6,7.2c1,1.9,2.4,3.4,4.1,4.3,1.7,1,3.6,1.4,5.7,1.4s4-.5,5.8-1.5Z"/>
      <path class="cls-1" d="M830.6,55.8c1.9-1.1,4.2-1.6,6.9-1.6v6h-1.5c-6.5,0-9.7,3.5-9.7,10.5v18.9h-5.8v-34.7h5.8v5.6c1-2,2.5-3.5,4.3-4.6Z"/>
    </g>
  </g>
</svg>