<svg width="48" height="52" viewBox="0 0 48 52" fill="none" xmlns="http://www.w3.org/2000/svg">
<path d="M33.4801 27.9271C33.4801 33.0861 29.2383 37.2132 24.194 37.2132C21.7865 37.2132 19.4937 36.2961 17.8887 34.6911C20.1815 41.7989 25.9137 47.4164 33.1361 49.3653C41.6197 45.8114 47.5811 37.5571 47.5811 27.8125H33.4801V27.9271Z" fill="#00D9D3"/>
<path d="M29.3527 0.412109V5.11246C27.633 4.76853 25.9134 4.53924 24.1937 4.53924C11.2391 4.53924 0.806641 14.9717 0.806641 27.9263C0.806641 40.7663 11.2391 51.3134 24.1937 51.3134C26.2573 51.3134 28.3209 51.0841 30.2698 50.5109C21.6716 47.0716 15.4809 38.932 15.0223 29.1874C14.9077 28.7288 14.9077 28.3849 14.9077 27.9263C14.9077 22.7674 19.1495 18.6403 24.1937 18.6403H29.3527H44.8294H45.6319H47.5808C47.4662 8.55173 39.3266 0.412109 29.3527 0.412109ZM38.0655 15.201C36.0019 15.201 34.3969 13.4814 34.3969 11.5324C34.3969 9.58352 36.1166 7.86388 38.0655 7.86388C40.1291 7.86388 41.7341 9.58352 41.7341 11.5324C41.7341 13.4814 40.1291 15.201 38.0655 15.201Z" fill="#00D9D3"/>
<path d="M38.2949 11.4181C38.2949 12.2206 38.9828 12.9084 39.7853 12.9084C40.5878 12.9084 41.2756 12.2206 41.2756 11.4181C41.2756 10.6156 40.5878 9.92773 39.7853 9.92773C38.9828 10.0424 38.2949 10.6156 38.2949 11.4181Z" fill="#00D9D3"/>
</svg>
