<svg width="9" height="11" viewBox="0 0 9 11" fill="none" xmlns="http://www.w3.org/2000/svg">
<path d="M7.94121 4.25104C7.94121 4.25104 7.69285 7.33153 7.54877 8.62914C7.48016 9.2489 7.09733 9.61206 6.47026 9.6235C5.27693 9.645 4.08224 9.64637 2.88938 9.62121C2.28608 9.60886 1.90966 9.24112 1.84242 8.63234C1.69743 7.3233 1.45044 4.25104 1.45044 4.25104" stroke="#1D2026" stroke-width="0.784091" stroke-linecap="round" stroke-linejoin="round"/>
<path d="M8.57392 2.77435H0.817566" stroke="#1D2026" stroke-width="0.784091" stroke-linecap="round" stroke-linejoin="round"/>
<path d="M7.07938 2.77441C6.72033 2.77441 6.41114 2.52056 6.3407 2.16883L6.22956 1.61265C6.16095 1.35605 5.9286 1.17859 5.66377 1.17859H3.72765C3.46283 1.17859 3.23047 1.35605 3.16187 1.61265L3.05072 2.16883C2.98028 2.52056 2.67109 2.77441 2.31204 2.77441" stroke="#1D2026" stroke-width="0.784091" stroke-linecap="round" stroke-linejoin="round"/>
</svg>
