<svg width="16" height="16" viewBox="0 0 16 16" fill="none" xmlns="http://www.w3.org/2000/svg">
<rect width="16" height="16" fill="#2686FF"/>
<path d="M4.02298 13.0443C3.45855 13.0443 3 12.5857 3 12.0213C3 11.4585 3.45855 11 4.02298 11C4.58742 11 5.04597 11.4585 5.04597 12.0213C5.04597 12.5857 4.58742 13.0443 4.02298 13.0443" fill="white"/>
<path d="M8.02298 13.0443C7.45855 13.0443 7 12.5857 7 12.0213C7 11.4585 7.45855 11 8.02298 11C8.58742 11 9.04597 11.4585 9.04597 12.0213C9.04597 12.5857 8.58742 13.0443 8.02298 13.0443" fill="white"/>
<path d="M12.023 13.0443C11.4585 13.0443 11 12.5857 11 12.0213C11 11.4585 11.4585 11 12.023 11C12.5874 11 13.046 11.4585 13.046 12.0213C13.046 12.5857 12.5874 13.0443 12.023 13.0443" fill="white"/>
<path d="M4.02298 9.0443C3.45855 9.0443 3 8.58575 3 8.02131C3 7.45855 3.45855 7 4.02298 7C4.58742 7 5.04597 7.45855 5.04597 8.02131C5.04597 8.58575 4.58742 9.0443 4.02298 9.0443" fill="white"/>
<path d="M8.02298 9.0443C7.45855 9.0443 7 8.58575 7 8.02131C7 7.45855 7.45855 7 8.02298 7C8.58742 7 9.04597 7.45855 9.04597 8.02131C9.04597 8.58575 8.58742 9.0443 8.02298 9.0443" fill="white"/>
<path d="M12.023 9.0443C11.4585 9.0443 11 8.58575 11 8.02131C11 7.45855 11.4585 7 12.023 7C12.5874 7 13.046 7.45855 13.046 8.02131C13.046 8.58575 12.5874 9.0443 12.023 9.0443" fill="white"/>
<path d="M4.02298 5.0443C3.45855 5.0443 3 4.58575 3 4.02131C3 3.45855 3.45855 3 4.02298 3C4.58742 3 5.04597 3.45855 5.04597 4.02131C5.04597 4.58575 4.58742 5.0443 4.02298 5.0443" fill="white"/>
<path d="M7.99955 5.0443C7.43511 5.0443 6.97656 4.58575 6.97656 4.02131C6.97656 3.45855 7.43511 3 7.99955 3C8.56398 3 9.02253 3.45855 9.02253 4.02131C9.02253 4.58575 8.56398 5.0443 7.99955 5.0443" fill="white"/>
<path d="M11.9771 5.0443C11.4127 5.0443 10.9541 4.58575 10.9541 4.02131C10.9541 3.45855 11.4127 3 11.9771 3C12.5415 3 13.0001 3.45855 13.0001 4.02131C13.0001 4.58575 12.5415 5.0443 11.9771 5.0443" fill="white"/>
</svg>
