<svg width="767" height="464" viewBox="0 0 767 464" fill="none" xmlns="http://www.w3.org/2000/svg">
<g id="Placeholder BKD" clip-path="url(#clip0_55_2260)">
<g id="Layer_1">
<path id="Vector" d="M766.175 0H0V462.897H766.175V0Z" fill="#EBF0FC"/>
<path id="Vector_2" d="M413.585 0C533.8 98.721 613.943 296.688 566.165 373.559C512.513 459.881 250.216 444.111 0 440.952L0 0L413.585 0Z" fill="#E3EBFF">
                                    <animate attributeName="d" values="M413.585 0C533.8 98.721 613.943 296.688 566.165 373.559C512.513 459.881 250.216 444.111 0 440.952L0 0L413.585 0Z;M424.859 0C548.351 98.6969 630.679 296.615 581.599 373.468C526.484 459.769 257.037 444.002 0 440.844L0 0L424.859 0Z;M413.585 0C533.8 98.721 613.943 296.688 566.165 373.559C512.513 459.881 250.216 444.111 0 440.952L0 0L413.585 0Z" begin="0s" dur="6s" repeatCount="indefinite" fill="freeze" calcMode="linear" keyTimes="0;0.5;1"/></path>
<path id="Vector_3" d="M690.718 284.648C660.895 270.679 626.567 256.781 587.49 243.999C491.072 212.5 365.808 188.02 208.87 187.356C144.622 187.087 75.081 190.815 0 199.661L0 463.229L766.175 463.229L766.175 325.088C755.799 318.716 744.371 312.083 731.856 305.32C719.25 298.51 705.525 291.561 690.718 284.646L690.718 284.648Z" fill="#DCE4FF">
                                    <animate attributeName="d" values="M690.718 284.648C660.895 270.679 626.567 256.781 587.49 243.999C491.072 212.5 365.808 188.02 208.87 187.356C144.622 187.087 75.081 190.815 0 199.661L0 463.229L766.175 463.229L766.175 325.088C755.799 318.716 744.371 312.083 731.856 305.32C719.25 298.51 705.525 291.561 690.718 284.646L690.718 284.648Z;M690.56 291.466C660.744 278.048 626.424 264.698 587.356 252.421C490.96 222.165 365.724 198.651 208.822 198.013C144.589 197.755 75.0639 201.336 0 209.832L0 463L766 463L766 330.31C755.626 324.19 744.201 317.818 731.689 311.322C719.086 304.781 705.364 298.106 690.56 291.464L690.56 291.466Z;M690.718 284.648C660.895 270.679 626.567 256.781 587.49 243.999C491.072 212.5 365.808 188.02 208.87 187.356C144.622 187.087 75.081 190.815 0 199.661L0 463.229L766.175 463.229L766.175 325.088C755.799 318.716 744.371 312.083 731.856 305.32C719.25 298.51 705.525 291.561 690.718 284.646L690.718 284.648Z" begin="0s" dur="6s" repeatCount="indefinite" fill="freeze" calcMode="linear" keyTimes="0;0.5;1"/></path>
<path id="Vector_4" d="M445.838 361.429C290.37 383.681 205.078 463.23 205.078 463.23L766.407 463.23L766.407 389.696C756.031 386.304 634.721 334.395 445.837 361.429L445.838 361.429Z" fill="#D0DBFC">
                                    <animate attributeName="d" values="M445.838 361.429C290.37 383.681 205.078 463.23 205.078 463.23L766.407 463.23L766.407 389.696C756.031 386.304 634.721 334.395 445.837 361.429L445.838 361.429Z;M457.041 361.731C307.203 383.866 225 463 225 463L766 463L766 389.85C756 386.476 639.083 334.838 457.04 361.731L457.041 361.731Z;M445.838 361.429C290.37 383.681 205.078 463.23 205.078 463.23L766.407 463.23L766.407 389.696C756.031 386.304 634.721 334.395 445.837 361.429L445.838 361.429Z" begin="0s" dur="6s" repeatCount="indefinite" fill="freeze" calcMode="linear" keyTimes="0;0.5;1"/></path>
<path id="Vector_5" d="M593.93 428.733C540.792 431.665 512.346 463.23 512.346 463.23L702.559 463.23C702.559 463.23 667.723 424.662 593.93 428.733Z" fill="#B9CBF9">
                                    <animate attributeName="d" values="M593.93 428.733C540.792 431.665 512.346 463.23 512.346 463.23L702.559 463.23C702.559 463.23 667.723 424.662 593.93 428.733Z;M589.204 434.251C538.919 436.694 512 463 512 463L692 463C692 463 659.034 430.858 589.204 434.251Z;M593.93 428.733C540.792 431.665 512.346 463.23 512.346 463.23L702.559 463.23C702.559 463.23 667.723 424.662 593.93 428.733Z" begin="0s" dur="6s" repeatCount="indefinite" fill="freeze" calcMode="linear" keyTimes="0;0.5;1"/></path>
<path id="Vector_6" d="M605.087 0C604.446 9.72 604.21 23.32 605.855 38.731C607.534 54.539 611.211 72.228 618.449 89.599C636.67 133.301 677.505 174.897 766.407 178.741L766.407 0L605.087 0Z" fill="#DCE4FF">
                                    <animate attributeName="d" values="M605.087 0C604.446 9.72 604.21 23.32 605.855 38.731C607.534 54.539 611.211 72.228 618.449 89.599C636.67 133.301 677.505 174.897 766.407 178.741L766.407 0L605.087 0Z;M617.447 0C616.856 10.1691 616.639 24.3975 618.154 40.5206C619.7 57.0591 623.086 75.5654 629.751 93.7391C646.53 139.46 684.134 182.978 766 187L766 0L617.447 0Z;M605.087 0C604.446 9.72 604.21 23.32 605.855 38.731C607.534 54.539 611.211 72.228 618.449 89.599C636.67 133.301 677.505 174.897 766.407 178.741L766.407 0L605.087 0Z" begin="0s" dur="6s" repeatCount="indefinite" fill="freeze" calcMode="linear" keyTimes="0;0.5;1"/></path>
<path id="Vector_7" d="M735.991 229.242C737.821 228.529 739.231 227.526 740.223 225.828C741.141 224.232 741.243 222.352 740.779 220.857C739.539 216.898 735.818 214.542 732.037 215.813C727.834 217.229 726.156 220.776 727.168 224.632C728.187 228.565 732.193 230.405 735.992 229.243L735.991 229.242Z" fill="#E3EBFF">
                                    <animate attributeName="d" values="M735.991 229.242C737.821 228.529 739.231 227.526 740.223 225.828C741.141 224.232 741.243 222.352 740.779 220.857C739.539 216.898 735.818 214.542 732.037 215.813C727.834 217.229 726.156 220.776 727.168 224.632C728.187 228.565 732.193 230.405 735.992 229.243L735.991 229.242Z;M736.86 234.511C739.443 233.501 741.434 232.08 742.834 229.675C744.13 227.415 744.274 224.752 743.619 222.634C741.868 217.027 736.615 213.69 731.278 215.49C725.345 217.495 722.976 222.52 724.405 227.981C725.843 233.552 731.498 236.158 736.861 234.512L736.86 234.511Z;M735.991 229.242C737.821 228.529 739.231 227.526 740.223 225.828C741.141 224.232 741.243 222.352 740.779 220.857C739.539 216.898 735.818 214.542 732.037 215.813C727.834 217.229 726.156 220.776 727.168 224.632C728.187 228.565 732.193 230.405 735.992 229.243L735.991 229.242Z" begin="0s" dur="6s" repeatCount="indefinite" fill="freeze" calcMode="linear" keyTimes="0;0.5;1"/></path>
<g id="Group" opacity="0.75">
<path id="Vector_8" d="M663.091 82.87C662.157 76.855 660.253 71.234 657.517 66.236C650.042 52.568 636.383 43.524 619.521 43.733C607.756 43.883 597.884 47.026 590.208 52.418C581.905 58.256 576.166 66.728 573.412 76.938C573.324 77.253 573.244 77.576 573.168 77.895C572.825 79.27 572.537 80.672 572.303 82.106C572.117 83.225 571.964 84.359 571.843 85.505C571.752 86.383 571.672 87.266 571.62 88.164C571.558 89.247 571.536 90.319 571.551 91.374C571.558 91.906 571.577 92.434 571.606 92.957C571.923 99.275 573.591 105.113 576.352 110.288C577.778 112.982 579.504 115.487 581.478 117.792C584.794 121.664 588.822 124.953 593.371 127.521C594.484 128.147 595.629 128.73 596.8 129.27C602.353 131.834 608.544 133.402 615.077 133.764C615.788 133.807 616.511 133.835 617.251 133.847C622.727 133.524 627.838 132.72 632.643 131.239C638.385 129.474 643.69 126.737 648.651 122.695C649.224 122.23 649.793 121.746 650.355 121.245C651.278 120.426 652.146 119.567 652.971 118.681C656.495 114.896 659.14 110.547 660.924 106.029C662.774 101.353 663.708 96.497 663.744 91.9C663.77 88.812 663.543 85.795 663.091 82.868L663.091 82.87Z" fill="white">
                                    <animate attributeName="d" values="M663.091 82.87C662.157 76.855 660.253 71.234 657.517 66.236C650.042 52.568 636.383 43.524 619.521 43.733C607.756 43.883 597.884 47.026 590.208 52.418C581.905 58.256 576.166 66.728 573.412 76.938C573.324 77.253 573.244 77.576 573.168 77.895C572.825 79.27 572.537 80.672 572.303 82.106C572.117 83.225 571.964 84.359 571.843 85.505C571.752 86.383 571.672 87.266 571.62 88.164C571.558 89.247 571.536 90.319 571.551 91.374C571.558 91.906 571.577 92.434 571.606 92.957C571.923 99.275 573.591 105.113 576.352 110.288C577.778 112.982 579.504 115.487 581.478 117.792C584.794 121.664 588.822 124.953 593.371 127.521C594.484 128.147 595.629 128.73 596.8 129.27C602.353 131.834 608.544 133.402 615.077 133.764C615.788 133.807 616.511 133.835 617.251 133.847C622.727 133.524 627.838 132.72 632.643 131.239C638.385 129.474 643.69 126.737 648.651 122.695C649.224 122.23 649.793 121.746 650.355 121.245C651.278 120.426 652.146 119.567 652.971 118.681C656.495 114.896 659.14 110.547 660.924 106.029C662.774 101.353 663.708 96.497 663.744 91.9C663.77 88.812 663.543 85.795 663.091 82.868L663.091 82.87Z;M645.471 75.3365C644.717 70.4792 643.179 65.9401 640.97 61.9041C634.934 50.8668 623.904 43.5636 610.287 43.7324C600.787 43.8535 592.815 46.3915 586.616 50.7457C579.911 55.4601 575.277 62.3014 573.053 70.5462C572.982 70.8006 572.917 71.0614 572.856 71.319C572.579 72.4294 572.346 73.5615 572.157 74.7195C572.007 75.6232 571.884 76.5389 571.786 77.4643C571.712 78.1733 571.648 78.8864 571.606 79.6115C571.556 80.4861 571.538 81.3517 571.55 82.2037C571.556 82.6333 571.571 83.0597 571.595 83.482C571.851 88.5839 573.197 93.2983 575.427 97.4772C576.579 99.6527 577.972 101.676 579.566 103.537C582.244 106.664 585.497 109.32 589.17 111.393C590.069 111.899 590.994 112.37 591.939 112.806C596.424 114.876 601.423 116.142 606.699 116.435C607.273 116.469 607.856 116.492 608.454 116.502C612.876 116.241 617.003 115.592 620.884 114.396C625.52 112.97 629.804 110.76 633.81 107.496C634.273 107.121 634.733 106.73 635.186 106.325C635.932 105.664 636.633 104.97 637.299 104.255C640.145 101.198 642.281 97.6864 643.721 94.038C645.215 90.262 645.969 86.3406 645.998 82.6284C646.019 80.1348 645.836 77.6985 645.471 75.3349L645.471 75.3365Z;M663.091 82.87C662.157 76.855 660.253 71.234 657.517 66.236C650.042 52.568 636.383 43.524 619.521 43.733C607.756 43.883 597.884 47.026 590.208 52.418C581.905 58.256 576.166 66.728 573.412 76.938C573.324 77.253 573.244 77.576 573.168 77.895C572.825 79.27 572.537 80.672 572.303 82.106C572.117 83.225 571.964 84.359 571.843 85.505C571.752 86.383 571.672 87.266 571.62 88.164C571.558 89.247 571.536 90.319 571.551 91.374C571.558 91.906 571.577 92.434 571.606 92.957C571.923 99.275 573.591 105.113 576.352 110.288C577.778 112.982 579.504 115.487 581.478 117.792C584.794 121.664 588.822 124.953 593.371 127.521C594.484 128.147 595.629 128.73 596.8 129.27C602.353 131.834 608.544 133.402 615.077 133.764C615.788 133.807 616.511 133.835 617.251 133.847C622.727 133.524 627.838 132.72 632.643 131.239C638.385 129.474 643.69 126.737 648.651 122.695C649.224 122.23 649.793 121.746 650.355 121.245C651.278 120.426 652.146 119.567 652.971 118.681C656.495 114.896 659.14 110.547 660.924 106.029C662.774 101.353 663.708 96.497 663.744 91.9C663.77 88.812 663.543 85.795 663.091 82.868L663.091 82.87Z" begin="0s" dur="6s" repeatCount="indefinite" fill="freeze" calcMode="linear" keyTimes="0;0.5;1"/></path>
</g>
<path id="Vector_9" d="M201.688 400.716C201.297 398.339 200.501 396.118 199.356 394.142C196.229 388.74 190.516 385.166 183.463 385.249C178.542 385.308 174.412 386.55 171.201 388.681C167.728 390.988 165.327 394.336 164.175 398.371C164.138 398.496 164.105 398.623 164.073 398.749C163.93 399.292 163.809 399.846 163.711 400.413C163.633 400.855 163.569 401.303 163.519 401.756C163.481 402.103 163.447 402.452 163.426 402.807C163.4 403.235 163.391 403.658 163.397 404.076C163.4 404.286 163.408 404.495 163.42 404.702C163.553 407.199 164.25 409.506 165.405 411.551C166.002 412.616 166.723 413.606 167.549 414.516C168.936 416.046 170.621 417.346 172.524 418.361C172.989 418.609 173.469 418.839 173.958 419.052C176.281 420.065 178.87 420.685 181.603 420.828C181.901 420.845 182.203 420.856 182.513 420.861C184.804 420.733 186.941 420.416 188.951 419.831C191.353 419.134 193.572 418.052 195.647 416.455C195.887 416.271 196.125 416.08 196.36 415.882C196.746 415.558 197.109 415.219 197.454 414.869C198.928 413.373 200.034 411.655 200.781 409.869C201.555 408.021 201.945 406.102 201.961 404.285C201.972 403.065 201.877 401.872 201.688 400.716Z" fill="#E3EBFF">
                                    <animate attributeName="d" values="M201.688 400.716C201.297 398.339 200.501 396.118 199.356 394.142C196.229 388.74 190.516 385.166 183.463 385.249C178.542 385.308 174.412 386.55 171.201 388.681C167.728 390.988 165.327 394.336 164.175 398.371C164.138 398.496 164.105 398.623 164.073 398.749C163.93 399.292 163.809 399.846 163.711 400.413C163.633 400.855 163.569 401.303 163.519 401.756C163.481 402.103 163.447 402.452 163.426 402.807C163.4 403.235 163.391 403.658 163.397 404.076C163.4 404.286 163.408 404.495 163.42 404.702C163.553 407.199 164.25 409.506 165.405 411.551C166.002 412.616 166.723 413.606 167.549 414.516C168.936 416.046 170.621 417.346 172.524 418.361C172.989 418.609 173.469 418.839 173.958 419.052C176.281 420.065 178.87 420.685 181.603 420.828C181.901 420.845 182.203 420.856 182.513 420.861C184.804 420.733 186.941 420.416 188.951 419.831C191.353 419.134 193.572 418.052 195.647 416.455C195.887 416.271 196.125 416.08 196.36 415.882C196.746 415.558 197.109 415.219 197.454 414.869C198.928 413.373 200.034 411.655 200.781 409.869C201.555 408.021 201.945 406.102 201.961 404.285C201.972 403.065 201.877 401.872 201.688 400.716Z;M204.293 391.468C203.902 389.091 203.106 386.87 201.961 384.894C198.834 379.492 193.121 375.918 186.068 376.001C181.147 376.06 177.017 377.302 173.806 379.433C170.333 381.74 167.932 385.088 166.78 389.123C166.743 389.248 166.71 389.375 166.678 389.501C166.535 390.044 166.414 390.598 166.316 391.165C166.238 391.607 166.174 392.055 166.124 392.508C166.086 392.855 166.052 393.204 166.031 393.559C166.005 393.987 165.996 394.41 166.002 394.828C166.005 395.038 166.013 395.247 166.025 395.454C166.158 397.951 166.855 400.258 168.01 402.303C168.607 403.368 169.328 404.358 170.154 405.268C171.541 406.798 173.226 408.098 175.129 409.113C175.594 409.361 176.074 409.591 176.563 409.804C178.886 410.817 181.475 411.437 184.208 411.58C184.506 411.597 184.808 411.608 185.118 411.613C187.409 411.485 189.546 411.168 191.556 410.583C193.958 409.886 196.177 408.804 198.252 407.207C198.492 407.023 198.73 406.832 198.965 406.634C199.351 406.31 199.714 405.971 200.059 405.621C201.533 404.125 202.639 402.407 203.386 400.621C204.16 398.773 204.55 396.854 204.566 395.037C204.577 393.817 204.482 392.624 204.293 391.468Z;M201.688 400.716C201.297 398.339 200.501 396.118 199.356 394.142C196.229 388.74 190.516 385.166 183.463 385.249C178.542 385.308 174.412 386.55 171.201 388.681C167.728 390.988 165.327 394.336 164.175 398.371C164.138 398.496 164.105 398.623 164.073 398.749C163.93 399.292 163.809 399.846 163.711 400.413C163.633 400.855 163.569 401.303 163.519 401.756C163.481 402.103 163.447 402.452 163.426 402.807C163.4 403.235 163.391 403.658 163.397 404.076C163.4 404.286 163.408 404.495 163.42 404.702C163.553 407.199 164.25 409.506 165.405 411.551C166.002 412.616 166.723 413.606 167.549 414.516C168.936 416.046 170.621 417.346 172.524 418.361C172.989 418.609 173.469 418.839 173.958 419.052C176.281 420.065 178.87 420.685 181.603 420.828C181.901 420.845 182.203 420.856 182.513 420.861C184.804 420.733 186.941 420.416 188.951 419.831C191.353 419.134 193.572 418.052 195.647 416.455C195.887 416.271 196.125 416.08 196.36 415.882C196.746 415.558 197.109 415.219 197.454 414.869C198.928 413.373 200.034 411.655 200.781 409.869C201.555 408.021 201.945 406.102 201.961 404.285C201.972 403.065 201.877 401.872 201.688 400.716Z" begin="0s" dur="6s" repeatCount="indefinite" fill="freeze" calcMode="linear" keyTimes="0;0.5;1"/></path>
<path id="Vector_10" d="M88.067 0C121.795 23.882 141.265 69.123 140.78 118.402C139.972 200.4 62.417 261.393 0 265.534L0 0L88.067 0Z" fill="#D0DBFC">
                                    <animate attributeName="d" values="M88.067 0C121.795 23.882 141.265 69.123 140.78 118.402C139.972 200.4 62.417 261.393 0 265.534L0 0L88.067 0Z;M83.8204 0C115.922 25.5428 134.453 73.93 133.992 126.636C133.223 214.336 59.4072 279.571 0 284L0 0L83.8204 0Z;M88.067 0C121.795 23.882 141.265 69.123 140.78 118.402C139.972 200.4 62.417 261.393 0 265.534L0 0L88.067 0Z" begin="0s" dur="6s" repeatCount="indefinite" fill="freeze" calcMode="linear" keyTimes="0;0.5;1"/></path>
<path id="Vector_11" d="M130.51 424.253C106.526 423.598 91.005 427.88 67.455 431.091C80.101 418.523 86.723 410.753 96.024 396.782C118.613 362.851 106.325 355.629 80.434 368.487C65.022 376.14 51.737 385.602 40.848 395.337C44.686 384.818 47.286 372.136 48.932 363.192C55.269 329.022 38.289 317.761 16.608 347.702C14.366 350.79 6.81901 363.612 0.00100708 379.124L0.00100708 463.228L95.02 463.228C103.048 461.33 112.348 457.619 122.745 452.308C149.612 438.583 145.517 424.662 130.511 424.252L130.51 424.253Z" fill="#BBCCF9">
                                    <animate attributeName="d" values="M130.51 424.253C106.526 423.598 91.005 427.88 67.455 431.091C80.101 418.523 86.723 410.753 96.024 396.782C118.613 362.851 106.325 355.629 80.434 368.487C65.022 376.14 51.737 385.602 40.848 395.337C44.686 384.818 47.286 372.136 48.932 363.192C55.269 329.022 38.289 317.761 16.608 347.702C14.366 350.79 6.81901 363.612 0.00100708 379.124L0.00100708 463.228L95.02 463.228C103.048 461.33 112.348 457.619 122.745 452.308C149.612 438.583 145.517 424.662 130.511 424.252L130.51 424.253Z;M136.596 422.22C111.494 421.535 95.2488 426.015 70.6003 429.375C83.8362 416.225 90.7671 408.095 100.502 393.478C124.145 357.976 111.283 350.419 84.1847 363.873C68.0538 371.88 54.1492 381.78 42.7523 391.966C46.7693 380.96 49.4906 367.69 51.2133 358.332C57.8459 322.58 40.0739 310.798 17.3816 342.125C15.035 345.356 7.13602 358.772 0 375.002L0 463L99.4511 463C107.854 461.014 117.587 457.131 128.469 451.574C156.589 437.214 152.303 422.648 136.598 422.219L136.596 422.22Z;M130.51 424.253C106.526 423.598 91.005 427.88 67.455 431.091C80.101 418.523 86.723 410.753 96.024 396.782C118.613 362.851 106.325 355.629 80.434 368.487C65.022 376.14 51.737 385.602 40.848 395.337C44.686 384.818 47.286 372.136 48.932 363.192C55.269 329.022 38.289 317.761 16.608 347.702C14.366 350.79 6.81901 363.612 0.00100708 379.124L0.00100708 463.228L95.02 463.228C103.048 461.33 112.348 457.619 122.745 452.308C149.612 438.583 145.517 424.662 130.511 424.252L130.51 424.253Z" begin="0s" dur="6s" repeatCount="indefinite" fill="freeze" calcMode="linear" keyTimes="0;0.5;1"/></path>
<path id="Vector_12" opacity="0.75" d="M182.448 85.88C182.448 83.788 182.384 82.557 180.524 82.348C178.498 82.092 174.891 82.232 172.189 82.255C166.467 82.301 157.177 82.325 151.429 82.371C144.585 82.464 138.252 82.603 132.134 82.766C125.787 82.929 119.683 83.091 113.502 83.208C110.66 83.255 110.023 83.859 110.087 87.554C110.163 91.365 110.253 93.735 110.253 97.57C110.266 100.545 110.673 101.218 112.381 101.218C118.88 101.241 127.546 101.241 136.811 101.195C151.811 101.102 168.378 100.87 179.759 100.382C181.479 100.289 182.384 99.662 182.423 96.92C182.474 92.993 182.474 89.042 182.448 85.882L182.448 85.88Z" stroke="white" stroke-width="1.5" stroke-miterlimit="10">
                                    <animate attributeName="d" values="M182.448 85.88C182.448 83.788 182.384 82.557 180.524 82.348C178.498 82.092 174.891 82.232 172.189 82.255C166.467 82.301 157.177 82.325 151.429 82.371C144.585 82.464 138.252 82.603 132.134 82.766C125.787 82.929 119.683 83.091 113.502 83.208C110.66 83.255 110.023 83.859 110.087 87.554C110.163 91.365 110.253 93.735 110.253 97.57C110.266 100.545 110.673 101.218 112.381 101.218C118.88 101.241 127.546 101.241 136.811 101.195C151.811 101.102 168.378 100.87 179.759 100.382C181.479 100.289 182.384 99.662 182.423 96.92C182.474 92.993 182.474 89.042 182.448 85.882L182.448 85.88Z;M192.98 85.6767C192.98 83.5887 192.907 82.3601 190.774 82.1515C188.451 81.896 184.315 82.0358 181.216 82.0587C174.655 82.1046 164.002 82.1286 157.411 82.1745C149.563 82.2673 142.301 82.406 135.286 82.5687C128.008 82.7314 121.008 82.8931 113.921 83.0099C110.662 83.0568 109.931 83.6596 110.005 87.3474C110.092 91.151 110.195 93.5164 110.195 97.344C110.21 100.313 110.677 100.985 112.635 100.985C120.088 101.008 130.025 101.008 140.649 100.962C157.849 100.869 176.846 100.638 189.897 100.151C191.869 100.058 192.907 99.4319 192.952 96.6953C193.01 92.7759 193.01 88.8326 192.98 85.6787L192.98 85.6767Z;M182.448 85.88C182.448 83.788 182.384 82.557 180.524 82.348C178.498 82.092 174.891 82.232 172.189 82.255C166.467 82.301 157.177 82.325 151.429 82.371C144.585 82.464 138.252 82.603 132.134 82.766C125.787 82.929 119.683 83.091 113.502 83.208C110.66 83.255 110.023 83.859 110.087 87.554C110.163 91.365 110.253 93.735 110.253 97.57C110.266 100.545 110.673 101.218 112.381 101.218C118.88 101.241 127.546 101.241 136.811 101.195C151.811 101.102 168.378 100.87 179.759 100.382C181.479 100.289 182.384 99.662 182.423 96.92C182.474 92.993 182.474 89.042 182.448 85.882L182.448 85.88Z" begin="0s" dur="6s" repeatCount="indefinite" fill="freeze" calcMode="linear" keyTimes="0;0.5;1"/></path>
</g>
<g id="Layer_2">
<path id="Vector_13" opacity="0.75" d="M697.239 354.322L657.76 348.336C656.134 348.11 657.159 350.74 657.783 352.261L669.416 381.33C669.977 382.708 670.668 385.208 671.758 384.185L700.713 355.82C701.4 354.943 700.58 354.667 697.24 354.323L697.239 354.322Z" stroke="white" stroke-width="1.5" stroke-miterlimit="10">
                                    <animate attributeName="d" values="M697.239 354.322L657.76 348.336C656.134 348.11 657.159 350.74 657.783 352.261L669.416 381.33C669.977 382.708 670.668 385.208 671.758 384.185L700.713 355.82C701.4 354.943 700.58 354.667 697.24 354.323L697.239 354.322Z;M691.613 347.057L651.716 348.687C650.077 348.774 651.583 351.161 652.485 352.536L669.433 378.862C670.246 380.109 671.399 382.432 672.275 381.22L695.309 347.867C695.816 346.876 694.959 346.761 691.614 347.058L691.613 347.057Z;M697.239 354.322L657.76 348.336C656.134 348.11 657.159 350.74 657.783 352.261L669.416 381.33C669.977 382.708 670.668 385.208 671.758 384.185L700.713 355.82C701.4 354.943 700.58 354.667 697.24 354.323L697.239 354.322Z" begin="0s" dur="6s" repeatCount="indefinite" fill="freeze" calcMode="linear" keyTimes="0;0.5;1"/></path>
</g>
</g>
<defs>
<clipPath id="clip0_55_2260">
<rect width="766.407" height="463.23" fill="white"/>
</clipPath>
</defs>
</svg>