<svg width="1819" height="68" viewBox="0 0 1819 68" fill="none" xmlns="http://www.w3.org/2000/svg">
<g id="G - Original" clip-path="url(#clip0_77_2310)">
<path id="Vector" d="M1818.36 0H0V67.375H1818.36V0Z" fill="#EDF1FC"/>
<path id="Vector_2" d="M1427.32 67.375L1818.36 67.375L1818.36 0L1465.01 0C1465.01 0 1427.32 17.487 1427.32 67.375Z" fill="#DEE7FC">
                                    <animate attributeName="d" values="M1427.32 67.375L1818.36 67.375L1818.36 0L1465.01 0C1465.01 0 1427.32 17.487 1427.32 67.375Z;M1364 67L1818 67L1818 0L1428.5 0C1428.5 0 1370.5 10 1364 67Z;M1427.32 67.375L1818.36 67.375L1818.36 0L1465.01 0C1465.01 0 1427.32 17.487 1427.32 67.375Z" begin="0s" dur="7s" repeatCount="indefinite" fill="freeze" calcMode="linear" keyTimes="0;0.5;1"/></path>
<path id="Vector_3" d="M174.245 13.024C196.347 38.013 241.182 54.507 293.02 56.245C295.201 56.319 297.424 56.369 299.688 56.394C338.902 55.003 371.993 48.818 401.226 33.194C418.52 23.955 430.23 12.239 436.587 0.186996L165.314 0.186996C167.647 4.668 170.634 8.959 174.245 13.024Z" fill="#FAFCFF">
                                    <animate attributeName="d" values="M174.245 13.024C196.347 38.013 241.182 54.507 293.02 56.245C295.201 56.319 297.424 56.369 299.688 56.394C338.902 55.003 371.993 48.818 401.226 33.194C418.52 23.955 430.23 12.239 436.587 0.186996L165.314 0.186996C167.647 4.668 170.634 8.959 174.245 13.024Z;M126.568 9.82068C152.722 28.938 205.775 41.5564 267.116 42.886C269.697 42.9426 272.327 42.9809 275.006 43C321.408 41.9358 360.565 37.2041 395.157 25.2513C415.621 18.1832 429.478 9.22013 437 0L116 0C118.761 3.4281 122.295 6.71084 126.568 9.82068Z;M174.245 13.024C196.347 38.013 241.182 54.507 293.02 56.245C295.201 56.319 297.424 56.369 299.688 56.394C338.902 55.003 371.993 48.818 401.226 33.194C418.52 23.955 430.23 12.239 436.587 0.186996L165.314 0.186996C167.647 4.668 170.634 8.959 174.245 13.024Z" begin="0s" dur="7s" repeatCount="indefinite" fill="freeze" calcMode="linear" keyTimes="0;0.5;1"/></path>
<path id="Vector_4" d="M27.174 54.058C28.718 53.965 30.017 53.554 31.17 52.521C32.244 51.547 32.774 50.162 32.787 48.93C32.814 45.663 30.594 42.999 27.453 43.039C23.961 43.085 21.847 45.338 21.675 48.473C21.489 51.667 24.047 54.013 27.175 54.059L27.174 54.058Z" fill="#DEE7FC">
                                    <animate attributeName="d" values="M27.174 54.058C28.718 53.965 30.017 53.554 31.17 52.521C32.244 51.547 32.774 50.162 32.787 48.93C32.814 45.663 30.594 42.999 27.453 43.039C23.961 43.085 21.847 45.338 21.675 48.473C21.489 51.667 24.047 54.013 27.175 54.059L27.174 54.058Z;M26.9341 53.9987C28.8777 53.8806 30.5128 53.3585 31.9642 52.0462C33.3162 50.8088 33.9833 49.0494 33.9997 47.4843C34.0337 43.334 31.2392 39.9498 27.2853 40.0006C22.8896 40.059 20.2285 42.9211 20.012 46.9037C19.7779 50.9613 22.9979 53.9416 26.9354 54L26.9341 53.9987Z;M27.174 54.058C28.718 53.965 30.017 53.554 31.17 52.521C32.244 51.547 32.774 50.162 32.787 48.93C32.814 45.663 30.594 42.999 27.453 43.039C23.961 43.085 21.847 45.338 21.675 48.473C21.489 51.667 24.047 54.013 27.175 54.059L27.174 54.058Z" begin="0s" dur="7s" repeatCount="indefinite" fill="freeze" calcMode="linear" keyTimes="0;0.5;1"/></path>
</g>
<defs>
<clipPath id="clip0_77_2310">
<rect width="1818.36" height="67.375" fill="white"/>
</clipPath>
</defs>
</svg>