<svg xmlns="http://www.w3.org/2000/svg" viewBox="0 0 940 540"><g id="Change_colour"><rect width="940" height="540" style="fill: rgb(68, 138, 255);"/></g><g id="Foreground"><polygon points="171.57 427.36 243.569 381.672 288.983 403.987 330.618 377.559 455.946 439.128 509.167 393.187 572.576 430.585 686.183 360.756 754.956 395.926 801.29 372.648 870.459 404.794 940.071 376.86 940.292 540.138 .199 540.47 -.009 351.275 171.57 427.36" style="opacity:.05;"/><polygon points="509.167 393.187 680.005 494.116 564.509 467.932 509.167 393.187" style="fill:#fff; opacity:.15;"/><polyline points="-.009 351.275 171.57 427.36 120.434 460.786" style="fill:#fff; opacity:.15;"/><polygon points="686.183 360.756 881.521 460.402 738.829 435.959 686.183 360.756" style="fill:#fff; opacity:.15;"/><polygon points="417.48 472.419 455.947 439.127 330.618 377.559 417.48 472.419" style="fill:#fff; opacity:.15;"/><polygon points="267.393 416.458 243.569 381.672 288.983 403.987 267.393 416.458" style="fill:#fff; opacity:.15;"/><path d="M939.997,539.995v-163.11l-69.54,27.91-69.17-32.15-26.44,13.29c.96,6.99,1.68,14.04,2.15,21.15l104.52,53.32-104.24-17.86-38.45-6.59-52.64-75.2-18.95,11.65-94.66,58.18-5.5-3.24v.06l99.16,58.58,6.71,3.96,7.06,4.17-10.94-2.48-5.36,2.35c.37-1.1,.72-2.21,1.08-3.32l-100.28-22.73-3.99-5.39-51.35-69.36-53.22,45.94-38.47,33.29-44.48-48.58-42.38-46.28-41.63,26.43-21.59,12.47-1.73-2.52-22.1-32.26-72,45.68-9.19,6.01c-.06-3.35-.07-6.72-.01-10.09L-.003,351.275v8.28l.2,180.44H939.997Z" style="fill:none;"/><path d="M168.847,364.795c34.66-166.32,197.58-273.06,363.9-238.4,130.98,27.29,224.98,134.13,242.1,259.54l26.44-13.29,69.17,32.15,69.54-27.91V-.005H-.003V351.275l162.37,72c.28-19.31,2.4-38.87,6.48-58.48Z" style="fill:#fff; opacity:.15;"/><path d="M532.747,126.395c-166.32-34.66-329.24,72.08-363.9,238.4-4.08,19.61-6.2,39.17-6.48,58.48l9.2,4.08,72-45.68,24.48,12.02c.44-2.64,.93-5.28,1.49-7.92,23.06-110.72,131.52-181.77,242.23-158.7,77.45,16.14,135.49,74.07,155.47,145.33l18.95-11.65,68.86,35.13,19.8-9.95c-17.12-125.41-111.12-232.25-242.1-259.54Z" style="fill:#fff; opacity:.3;"/><path d="M489.797,332.515c-49.94-10.41-98.91,19.59-112.96,67.75l79.11,38.86,53.22-45.94,57.91,34.16c-.04-44.97-31.51-85.29-77.28-94.83Z" style="fill:#fff; opacity:.5;"/><path d="M511.767,227.075c-110.71-23.07-219.17,47.98-242.23,158.7-.56,2.64-1.05,5.28-1.49,7.92l20.94,10.29,41.63-26.43,46.22,22.71c14.05-48.16,63.02-78.16,112.96-67.75,45.77,9.54,77.24,49.86,77.28,94.83l5.5,3.24,94.66-58.18c-19.98-71.26-78.02-129.19-155.47-145.33Z" style="fill:#fff; opacity:.4;"/></g></svg>