<svg version="1.1" xmlns="http://www.w3.org/2000/svg" xmlns:xlink="http://www.w3.org/1999/xlink" x="0px" y="0px" viewBox="0 0 600 450" style="enable-background:new 0 0 600 450;" xml:space="preserve">
<g id="Change_colour">
	<path style="fill: rgb(68, 138, 255);" d="M495.4,183.9c-4.2,0-7.5,3.4-7.5,7.5c0,4.2,3.4,7.5,7.5,7.5c4.2,0,7.5-3.4,7.5-7.5&#10;&#9;&#9;C502.9,187.3,499.5,183.9,495.4,183.9z"/>
	<path style="fill: rgb(68, 138, 255);" d="M365,299.4l10.7,9.6l2.4-4.2l0.2,0.1c0,0,52.4,41.6,77.1,26.4c9.8-6,15.1-18.6,17.8-30.4&#10;&#9;&#9;c3.3-14.2,3-38.1,2.3-51.9c-0.7-14.1-1.6-22.2-3.5-35c0.3-2.9,2.4-21.8,2.7-34c0.2-7.3-1.8-12.4-4.7-16.7v0l8.2-18.6l-26.9-11.8v0&#10;&#9;&#9;c0.2-0.3,0.3-0.5,0.4-0.7c0.2-0.3,0.5-0.9,0.6-1.2l2.2-5c0.1-0.3,0.2-0.6,0.3-0.9c0.2-0.6,0.4-1.2,0.5-1.8c0.1-0.4,0.1-0.7,0.2-1.1&#10;&#9;&#9;c0.4-4.9-2.3-9.7-7.1-11.8l-4.9-2.2c-4.8-2.1-10.1-0.8-13.5,2.8c-0.3,0.3-0.5,0.6-0.7,0.8c-0.3,0.4-0.6,0.9-0.9,1.4&#10;&#9;&#9;c-0.2,0.3-0.4,0.7-0.5,1l-2.2,5c-0.2,0.4-0.4,0.9-0.5,1.3c-0.1,0.2-0.1,0.4-0.2,0.7c0,0,0,0.1,0,0.1l-26.8-11.7l-11.9,27.1&#10;&#9;&#9;c-0.1-0.1-0.2-0.1-0.2-0.2c-0.6-0.4-1.2-0.8-1.9-1.1l-5-2.2c-6-2.6-13,0.1-15.6,6.1l-2.2,5c-2.6,6,0.1,13,6.1,15.6l5,2.2&#10;&#9;&#9;c0.7,0.3,1.4,0.5,2.1,0.7c0.1,0,0.2,0.1,0.2,0.1c0,0.1-8.7,19.9-8.7,19.9c-1.7,3.8,0.1,8.2,3.8,9.9l59.4,26&#10;&#9;&#9;c-0.9,1.8-4.9,10.4-8.7,22.3l-0.6-0.2l-3.7-2.5l-34.2-22.7c0,0-28.1-20.4-58.8-14.5c-10.6,2-24.2,6.3-53.3-0.2&#10;&#9;&#9;c-17.1-3.8-31.3-0.3-41.7,4.6c0.3-1.9,0.1-3.9-0.7-5.9c0,0-7.8-19.3-8-19.3c-0.7,0.5-1.4,0.9-2.2,1.2l-5.5,2.2&#10;&#9;&#9;c-6.6,2.7-14.2-0.5-16.9-7.1l-2.2-5.5c-2.7-6.6,0.5-14.2,7.1-16.9l5.5-2.2c0.8-0.3,1.6-0.6,2.5-0.8c0,0-6.1-15-9.7-23.8&#10;&#9;&#9;c-1.4-3.6-2.5-6.1-2.5-6.1l-27.9,11.3c0,0,0,0,0,0c-0.2-0.7-0.4-1.3-0.6-2l-2.2-5.5c-2.7-6.6-10.3-9.8-16.9-7.1l-5.5,2.2&#10;&#9;&#9;c-6.6,2.7-9.8,10.3-7.1,16.9l2.2,5.5c0.3,0.7,0.6,1.3,1,1.9c0,0.1,0,0.2,0.1,0.2c0-0.1-0.1-0.1-0.1-0.2l-21.3,8.7&#10;&#9;&#9;c-5.6,2.3-8.3,8.6-6,14.2l2.3,5.6c-2.8,4-5.3,8.6-6.5,14.3c-0.7,3.3-0.9,6.9-0.6,11c2,21.9,8.8,33.9,9.2,34.4&#10;&#9;&#9;c-1.1,3.1-32.3,92.9,12.8,116.4c13.8,7.2,33.5,3.8,51.7-6.3l0-0.2l41.3,8.7v0l-0.1,6.3l-0.1,5.8l57.4,0.1v0l46.4,9.8&#10;&#9;&#9;c7.4,1.6,14.6-2.8,16.8-9.9h0h50.3c0,0-2.2-4.1-5.7-11.2C381.3,341,372.6,321.8,365,299.4L365,299.4z M162.9,262.6l-1,0.2&#10;&#9;&#9;c-2.6-12.7-5.5-22.3-5.5-22.3l0-0.1l52.2-21.2l0,0.1L162.9,262.6z"/>
	<path style="fill: rgb(68, 138, 255);" d="M250.5,113.3c0,0-4.5,0.1-7,2.6c-3.6,3.6-1.8,10.7,7.1,14.8c0,0-8,2.6-5.1,9.6c1.3,3.1,6,4.2,10.1,4&#10;&#9;&#9;l0.2,0.1c-2.1,6.7,2.9,13.2,11,13v0.1c0,0,0.7,23.9,30,28.8c29.7,5,48.5-16.7,40.3-43.3c0,0,5.3-12.1-0.4-23.6l0.3-0.2&#10;&#9;&#9;c2.1-1.9,3.5-5,3.3-8c-0.5-7.5-6.1-6.3-6.1-6.3c3.5-10.6,0.2-15.4-5.7-15.8c-3.5-0.3-6.7,3.3-6.7,3.3s-0.3-1.9-1.5-4&#10;&#9;&#9;c-1.3-2.4-3.8-5-8.2-5.3c-6.7-0.4-10.5,7-10.5,7s-2-8.9-11.3-9.2c-8.8-0.3-10,8.3-10,8.3s-4.1-3-7.7-2.9c-4.3,0.1-8.7,4.4-5.2,14.7&#10;&#9;&#9;c0,0.1,0.1,0.2,0.1,0.3c0,0-0.1-0.1-0.4-0.2c-1.8-1-9.6-4.8-14.7-0.1c-2.1,2-3,4.1-3.2,6C248.7,110.5,250.5,113.3,250.5,113.3z"/>
	<path style="fill: rgb(68, 138, 255);" d="M242.4,181.1c-1.8,0-3.3,1.5-3.3,3.3c0,1.8,1.5,3.3,3.3,3.3c1.8,0,3.3-1.5,3.3-3.3&#10;&#9;&#9;C245.6,182.6,244.1,181.1,242.4,181.1z"/>
	<path style="fill: rgb(68, 138, 255);" d="M84.4,272.5c-3,0-5.4,2.4-5.4,5.4c0,3,2.4,5.4,5.4,5.4c3,0,5.4-2.4,5.4-5.4&#10;&#9;&#9;C89.8,274.9,87.3,272.5,84.4,272.5z"/>
</g>
<g id="Foreground">
	<path style="opacity:7.000000e-02;" d="M221.8,351.4l-41.3-8.7l0,0.2c-18.2,10.1-37.9,13.5-51.7,6.3&#10;&#9;&#9;c-45.1-23.6-13.9-113.4-12.8-116.4c-0.3-0.6-7.1-12.5-9.2-34.4c-0.4-4.1-0.1-7.7,0.6-11C53.7,240.2,49,300.1,85.3,345.5&#10;&#9;&#9;c29.8,37.3,84.3,25.3,136.4,12.2L221.8,351.4L221.8,351.4z M84.4,283.3c-3,0-5.4-2.4-5.4-5.4c0-3,2.4-5.4,5.4-5.4&#10;&#9;&#9;c3,0,5.4,2.4,5.4,5.4C89.8,280.9,87.3,283.3,84.4,283.3z"/>
	<path style="opacity:7.000000e-02;" d="M466.4,101.5c-46.5-20.6-98-21.4-146.1-13.2c1.2,2.1,1.5,4,1.5,4s3.2-3.6,6.7-3.3&#10;&#9;&#9;c5.9,0.5,9.2,5.3,5.7,15.8c0,0,5.6-1.2,6.1,6.3c0.2,3.1-1.2,6.1-3.3,8l-0.3,0.2c5.7,11.5,0.4,23.6,0.4,23.6&#10;&#9;&#9;c8.2,26.6-10.6,48.3-40.3,43.3c-29.3-5-30-28.8-30-28.8v-0.1c-8.1,0.2-13.1-6.3-11-13l-0.2-0.1c-4,0.2-8.8-1-10.1-4&#10;&#9;&#9;c-2.9-7,5.1-9.6,5.1-9.6c-8.9-4.1-10.7-11.2-7.1-14.8c2.4-2.4,7-2.6,7-2.6s-1.8-2.8-1.4-6.4c-18.7,6.5-35.9,13.7-50.9,20.6&#10;&#9;&#9;c3.5,8.7,9.7,23.8,9.7,23.8c-0.9,0.3-1.7,0.5-2.5,0.8l-5.5,2.2c-6.6,2.7-9.8,10.3-7.1,16.9l2.2,5.5c2.7,6.6,10.3,9.8,16.9,7.1&#10;&#9;&#9;l5.5-2.2c0.8-0.3,1.5-0.7,2.2-1.2c0.1,0.1,8,19.3,8,19.3c0.8,1.9,1,3.9,0.7,5.9c10.4-4.9,24.6-8.5,41.7-4.6&#10;&#9;&#9;c29.1,6.5,42.7,2.2,53.3,0.2c30.7-5.9,58.8,14.5,58.8,14.5l34.2,22.7l3.7,2.5l0.6,0.2c3.9-12,7.9-20.5,8.7-22.3l-59.4-26&#10;&#9;&#9;c-3.8-1.7-5.5-6.1-3.8-9.9c0,0,8.7-19.8,8.7-19.9c-0.1,0-0.2,0-0.2-0.1c-0.7-0.2-1.4-0.4-2.1-0.7l-5-2.2c-6-2.6-8.7-9.6-6.1-15.6&#10;&#9;&#9;l2.2-5c2.6-6,9.6-8.7,15.6-6.1l5,2.2c0.7,0.3,1.3,0.6,1.9,1.1c0.1,0,0.1,0.1,0.2,0.2l11.9-27.1l26.8,11.7c0,0,0-0.1,0-0.1&#10;&#9;&#9;c0.1-0.2,0.1-0.4,0.2-0.7c0.1-0.4,0.3-1,0.5-1.3l2.2-5c0.2-0.4,0.3-0.7,0.5-1c0.3-0.5,0.6-1,0.9-1.4c0.2-0.3,0.5-0.6,0.7-0.8&#10;&#9;&#9;c3.4-3.6,8.7-4.9,13.5-2.8l4.9,2.2c4.8,2.1,7.5,6.9,7.1,11.8c0,0.4-0.1,0.7-0.2,1.1c-0.1,0.6-0.3,1.2-0.5,1.8&#10;&#9;&#9;c-0.1,0.3-0.2,0.6-0.3,0.9l-2.2,5c-0.2,0.4-0.4,0.9-0.6,1.2c-0.1,0.2-0.2,0.4-0.4,0.7v0l26.9,11.8l-8.2,18.6v0&#10;&#9;&#9;c2.9,4.2,4.8,9.4,4.7,16.7c-0.3,12.2-2.3,31.1-2.7,34c1.9,12.8,2.8,20.9,3.5,35c0.7,13.8,1,37.7-2.3,51.9&#10;&#9;&#9;c-2.8,11.9-8,24.4-17.8,30.4c-24.8,15.2-77.1-26.4-77.1-26.4l-0.2-0.1l-2.4,4.2l-10.7-9.6l0,0c7.6,22.4,16.3,41.5,21.8,52.9&#10;&#9;&#9;c41,4.2,82.4,2.8,114.8-26.8C562.2,270.2,552.8,139.7,466.4,101.5z M242.4,187.7c-1.8,0-3.3-1.5-3.3-3.3c0-1.8,1.5-3.3,3.3-3.3&#10;&#9;&#9;c1.8,0,3.3,1.5,3.3,3.3C245.6,186.2,244.1,187.7,242.4,187.7z M495.4,199c-4.2,0-7.5-3.4-7.5-7.5c0-4.1,3.4-7.5,7.5-7.5&#10;&#9;&#9;c4.2,0,7.5,3.4,7.5,7.5C502.9,195.6,499.5,199,495.4,199z"/>
	<path style="opacity:7.000000e-02;" d="M267.3,101c-0.1,0-0.2,0.1-0.3,0.1c0.2,0.1,0.4,0.2,0.4,0.2&#10;&#9;&#9;C267.3,101.2,267.3,101.1,267.3,101z"/>
	<path style="opacity:7.000000e-02;" d="M156.4,240.4L156.4,240.4c0,0.1,3,9.7,5.5,22.3l1-0.2l45.7-43.3l0-0.1L156.4,240.4z"/>
	<g>
		<path style="fill:#FFFFFF;" d="M222.6,351.5c0-0.5-0.4-0.8-0.8-0.9c-0.5,0-0.8,0.4-0.9,0.8l-0.2,12h1.7L222.6,351.5z"/>
	</g>
	<path style="opacity:0.3;fill:#FFFFFF;" d="M495.4,183.9c4.2,0,7.5,3.4,7.5,7.5c0,4.2-3.4,7.5-7.5,7.5c-4.2,0-7.5-3.4-7.5-7.5&#10;&#9;&#9;C487.8,187.3,491.2,183.9,495.4,183.9z"/>
	<path style="opacity:0.3;" d="M431.9,196.1l-0.2-0.1c0,0-2.4,0.9-4.1-0.7c-2-1.9-2.5-4.8,1.8-10.6c1.5-2,3.7-4.9,6.9-7.2l0,0&#10;&#9;&#9;c-3.5,1.2-10.2,3.6-11.5-0.9c-1.2-4.1,2.8-8.3,15.7-12.4c4.4-1.4,8.5-1.6,12-1.2l0-0.1c0,0-1.3-4.3-7.1-4.3&#10;&#9;&#9;c-5.7,0-14.3,0.3-15.2-3.8c-0.9-4.2,4.1-7,10.4-7c6.3,0.1,14.1-0.6,21.3,6.4c2.9,2.8,5.8,5.6,8.1,9v0c2.9,4.2,4.8,9.4,4.7,16.7&#10;&#9;&#9;c-0.3,12.2-2.3,31.1-2.7,34c1.9,12.8,2.8,20.9,3.5,35c0.7,13.8,1,37.7-2.3,51.9c-2.8,11.9-8,24.4-17.8,30.4&#10;&#9;&#9;c-24.8,15.2-77.1-26.4-77.1-26.4l-0.2-0.1l37.9-66.1l0.2-0.3l3.7,2.5l0.6,0.2c3.9-12,7.9-20.5,8.7-22.3l7,3.1&#10;&#9;&#9;c3.8,1.7,8.2-0.1,9.9-3.9l5.9-13.3h0.1c0.1-1,0.3-1.9,0.4-2.8l0.1-0.3c-2-0.9-7.4-2.4-12.2,2.7c-4,4.1-7.8,4.5-9.9,0.8&#10;&#9;&#9;C429.6,203.1,430,199.6,431.9,196.1z"/>
	<path d="M427.7,195.3c1.6,1.6,4.1,0.7,4.1,0.7l0.2,0.1c-1.9,3.5-2.3,7-1.3,8.9c2.1,3.7,5.9,3.4,9.9-0.8c4.8-5.1,10.2-3.5,12.2-2.7&#10;&#9;&#9;l-0.1,0.3c-0.2,0.9-0.3,1.8-0.4,2.8h-0.1l-5.9,13.3c-1.7,3.8-6.1,5.5-9.9,3.9l-7-3.1l-59.4-26c-3.8-1.7-5.5-6.1-3.8-9.9&#10;&#9;&#9;c0,0,8.7-19.8,8.7-19.9c-0.1,0-0.2,0-0.2-0.1c-0.7-0.2-1.4-0.4-2.1-0.7l-5-2.2c-6-2.6-8.7-9.6-6.1-15.6l2.2-5&#10;&#9;&#9;c2.6-6,9.6-8.7,15.6-6.1l5,2.2c0.7,0.3,1.3,0.6,1.9,1.1c0.1,0,0.1,0.1,0.2,0.2l11.9-27.1l26.8,11.7c-0.1,0.2-0.2,0.4-0.3,0.5&#10;&#9;&#9;c0.1-0.2,0.2-0.4,0.3-0.5c0,0,0-0.1,0-0.1c0.1-0.2,0.1-0.4,0.2-0.7c0.1-0.4,0.3-1,0.5-1.3l2.2-5c0.2-0.4,0.3-0.7,0.5-1&#10;&#9;&#9;c0.3-0.5,0.6-1,0.9-1.4c0.2-0.3,0.5-0.6,0.7-0.8c3.4-3.6,8.7-4.9,13.5-2.8l4.9,2.2c4.8,2.1,7.5,6.9,7.1,11.8c0,0.4-0.1,0.7-0.2,1.1&#10;&#9;&#9;c-0.1,0.6-0.3,1.2-0.5,1.8c-0.1,0.3-0.2,0.6-0.3,0.9l-2.2,5c-0.2,0.4-0.4,0.9-0.6,1.2c-0.1,0.2-0.2,0.4-0.4,0.7v0l26.9,11.8&#10;&#9;&#9;l-8.2,18.6c-2.3-3.4-5.2-6.2-8.1-9c-7.2-7-15-6.3-21.3-6.4c-6.3-0.1-11.3,2.8-10.4,7c0.9,4.2,9.4,3.9,15.2,3.8&#10;&#9;&#9;c5.7,0,7.1,4.3,7.1,4.3l0,0.1c-3.4-0.4-7.5-0.2-12,1.2c-12.9,4-16.9,8.3-15.7,12.4c1.3,4.5,8,2,11.5,0.9l0,0&#10;&#9;&#9;c-3.3,2.3-5.5,5.2-6.9,7.2C425.1,190.4,425.6,193.3,427.7,195.3z"/>
	<path style="fill:#CF9200;" d="M425,121.3c-0.1,0.2-0.2,0.4-0.3,0.5C424.8,121.7,424.9,121.5,425,121.3z"/>
	<path style="opacity:0.1;fill:#FFFFFF;" d="M342.5,362.2l15.6-73.8l3.3-0.2c1.2,3.8,2.4,7.5,3.6,11.2&#10;&#9;&#9;c12.4,36.4,27.4,64.1,27.4,64.1h-50.3h0C342.3,363.1,342.4,362.6,342.5,362.2z"/>
	<path style="opacity:0.6;fill:#FFFFFF;" d="M340.2,111.3c0.2,3.1-1.2,6.1-3.3,8l-0.3,0.2c-1.2-2.5-3-5-5.5-7.3&#10;&#9;&#9;c-0.7-0.7-3.6-4-8.5-2.1c-3.8,1.5-10.8,3.9-25.2,1.6c-11.1-1.8-12,9-12.2,11.3c-0.9,7,1.2,19.1-9.6,20.5l-3.9-2.7&#10;&#9;&#9;c0,0-8.6-6.9-13.7-0.5c-1.1,1.3-1.8,2.7-2.2,4.1l-0.2-0.1c-4,0.2-8.8-1-10.1-4c-2.9-7,5.1-9.6,5.1-9.6c-8.9-4.1-10.7-11.2-7.1-14.8&#10;&#9;&#9;c2.4-2.4,7-2.6,7-2.6s-4.3-6.7,1.8-12.4c5.7-5.3,15.1,0.4,15.1,0.4c-3.7-10.5,0.8-14.9,5.1-15c3.7-0.1,7.7,2.9,7.7,2.9&#10;&#9;&#9;s1.2-8.6,10-8.3c9.3,0.3,11.3,9.2,11.3,9.2s3.8-7.4,10.5-7c8.3,0.5,9.7,9.4,9.7,9.4s3.2-3.6,6.7-3.3c5.9,0.5,9.2,5.3,5.7,15.8&#10;&#9;&#9;C334.1,104.9,339.7,103.8,340.2,111.3z"/>
	<path style="opacity:0.3;" d="M266.7,157.4c-8.1,0.2-13.1-6.3-11-13c0.4-1.4,1.2-2.8,2.2-4.1c5.1-6.4,13.7,0.5,13.7,0.5l3.9,2.7&#10;&#9;&#9;c10.8-1.4,8.8-13.5,9.6-20.5c0.3-2.3,1.1-13.1,12.2-11.3c14.4,2.3,21.5-0.1,25.2-1.6c4.9-1.9,7.8,1.4,8.5,2.1&#10;&#9;&#9;c2.5,2.3,4.2,4.8,5.5,7.3c5.7,11.5,0.4,23.6,0.4,23.6c8.2,26.6-10.6,48.3-40.3,43.3c-29.3-5-30-28.8-30-28.8V157.4z"/>
	<path style="fill:#CF9200;" d="M264.7,299.6c0.4,0,0.8,0.1,1.2,0.2C265.4,299.6,265,299.6,264.7,299.6z"/>
	<path style="fill:#CF9200;" d="M263.9,299.6L263.9,299.6c0-0.1,0.1-0.1,0.1-0.1c0.3,0,0.5,0.1,0.7,0.1&#10;&#9;&#9;C264.4,299.6,264.1,299.5,263.9,299.6z"/>
	<path style="fill:#CF9200;" d="M263.9,299.5L263.9,299.5c-0.1,0-0.2,0-0.2,0C263.7,299.5,263.8,299.5,263.9,299.5z"/>
	<path d="M252,355.8l-0.4,1.7l-0.1,0.2l-29.7-6.3l-41.3-8.7l-4.5-1c-6.8-1.4-11.2-8.1-9.7-15l7.3-34.6l6.1-28.7&#10;&#9;&#9;c1.4-6.8,8.2-11.2,15-9.7l18.9,4c-0.2,0.6-0.4,1.2-0.6,1.9l-1.1,5.4c-1.4,6.6,2.8,13.1,9.4,14.5l5.4,1.2c6.6,1.4,13.1-2.8,14.5-9.4&#10;&#9;&#9;l1.1-5.4c0.2-0.7,0.2-1.3,0.3-2c0,0,27.7,5.9,27.7,5.9l-6.3,29.7c-0.1,0-0.2,0-0.2,0c0.1,0,0.1,0,0.2,0l0,0.1c0.3,0,0.5,0,0.8,0&#10;&#9;&#9;c0.4,0.1,0.8,0.1,1.2,0.2l5.4,1.2c6.6,1.4,10.8,7.9,9.4,14.5v0l-1.1,5.4c-1.4,6.6-7.9,10.8-14.5,9.4l-5.4-1.2&#10;&#9;&#9;c-0.2,0-0.4-0.1-0.6-0.2c-0.2-0.1-0.4-0.1-0.6-0.2c-0.2-0.1-0.5-0.2-0.7-0.3c-0.1,0-0.2,0-0.3,0c0.1,0,0.2,0.1,0.2,0.1l-1.7,7.9&#10;&#9;&#9;l-0.3,1.2l-0.1,0.6l-0.5,2.5l-3.1,14.4C252.1,355.3,252,355.6,252,355.8z"/>
	<path style="fill:#CF9200;" d="M259.1,328.9c0.2,0.1,0.4,0.1,0.6,0.2C259.4,329,259.2,329,259.1,328.9z"/>
	<path style="opacity:0.6;fill:#FFFFFF;" d="M258.5,328.7c0.2,0.1,0.4,0.1,0.6,0.2c0.2,0.1,0.4,0.1,0.6,0.2l5.4,1.2&#10;&#9;&#9;c6.6,1.4,13.1-2.8,14.5-9.4l1.1-5.4v0c1.4-6.6-2.8-13.1-9.4-14.5l-5.4-1.2c-0.4-0.1-0.8-0.1-1.2-0.2c-0.3,0-0.5-0.1-0.7-0.1&#10;&#9;&#9;c0,0,0,0-0.1,0v0l6.3-29.7l29.5,6.2c-0.1,0.3-0.2,0.6-0.3,0.9c-0.1,0.4-0.2,0.8-0.3,1.2l-1.1,5.4c-0.1,0.4-0.2,0.8-0.2,1.2&#10;&#9;&#9;c-0.1,0.6-0.1,1.2-0.1,1.7c0,0.4,0,0.8,0.1,1.1c0.7,5,4.4,9.3,9.6,10.4l5.4,1.1c5.2,1.1,10.4-1.3,13-5.6c0.2-0.3,0.4-0.7,0.5-1&#10;&#9;&#9;c0.3-0.6,0.5-1.2,0.7-1.8c0.1-0.3,0.2-0.6,0.2-0.9l1.1-5.4c0.1-0.4,0.2-0.8,0.2-1.2c0-0.3,0.1-0.6,0.1-1l29.5,6.2l-15.6,73.8&#10;&#9;&#9;c-0.1,0.5-0.2,0.9-0.4,1.3c-2.2,7-9.4,11.4-16.8,9.9l-46.4-9.8l-27.4-5.8c0,0,0,0,0,0l0.1-0.2l0.4-1.7l0.2-0.7l3.1-14.4&#10;&#9;&#9;c0.2-0.9,0.4-1.7,0.5-2.5l0.1-0.6c0.1-0.4,0.2-0.8,0.3-1.2c1-4.5,1.7-7.9,1.7-7.9C258,328.6,258.3,328.6,258.5,328.7z"/>
	<path style="fill:#CF9200;" d="M257.8,328.4c0.2,0.1,0.5,0.2,0.7,0.3c-0.2-0.1-0.5-0.1-0.7-0.2c0,0-0.7,3.3-1.7,7.9l1.7-7.9&#10;&#9;&#9;c-0.1,0-0.2-0.1-0.2-0.1C257.6,328.4,257.7,328.4,257.8,328.4z"/>
	<path style="fill:#CF9200;" d="M255.8,337.6l0.3-1.2C256,336.8,255.9,337.2,255.8,337.6z"/>
	<path style="fill:#CF9200;" d="M255.2,340.7l0.5-2.5C255.5,339,255.3,339.8,255.2,340.7z"/>
	<path style="fill:#CF9200;" d="M252,355.8c0.1-0.2,0.1-0.5,0.2-0.7L252,355.8z"/>
	<path style="opacity:0.1;fill:#FFFFFF;" d="M251.6,357.7l27.4,5.8v0l-57.4-0.1l0.2-12.1v0L251.6,357.7&#10;&#9;&#9;C251.6,357.7,251.6,357.7,251.6,357.7z"/>
	<path style="opacity:0.6;fill:#FFFFFF;" d="M242.4,181.1c1.8,0,3.3,1.5,3.3,3.3c0,1.8-1.5,3.3-3.3,3.3c-1.8,0-3.3-1.5-3.3-3.3&#10;&#9;&#9;C239.1,182.6,240.5,181.1,242.4,181.1z"/>
	<path style="opacity:0.1;fill:#FFFFFF;" d="M226.6,280.7l-5.4-1.2c-6.6-1.4-10.8-7.9-9.4-14.5l1.1-5.4c0.2-0.7,0.3-1.3,0.6-1.9&#10;&#9;&#9;l-18.9-4c-6.8-1.4-13.5,2.9-15,9.7l-6.1,28.7l-0.1,0l-7.8-8.3l-0.6,0.1c-0.7-7.2-1.9-14.6-3.2-21.1l1-0.2l45.7-43.3l0-0.1l13-5.3&#10;&#9;&#9;c3.6-1.5,6-4.7,6.6-8.3c10.4-4.9,24.6-8.5,41.7-4.6c29.1,6.5,42.7,2.2,53.3,0.2c30.7-5.9,58.8,14.5,58.8,14.5l34.2,22.7l-0.2,0.3&#10;&#9;&#9;l-37.9,66.1l-2.4,4.2l-10.7-9.6l0,0c-1.2-3.7-2.5-7.4-3.6-11.2l-3.3,0.2l-29.5-6.2c0,0.3,0,0.6-0.1,1c0,0.4-0.1,0.8-0.2,1.2&#10;&#9;&#9;l-1.1,5.4c-0.1,0.3-0.2,0.6-0.2,0.9c-0.2,0.6-0.4,1.2-0.7,1.8c-0.2,0.3-0.3,0.7-0.5,1c-2.6,4.3-7.8,6.7-13,5.6l-5.4-1.1&#10;&#9;&#9;c-5.2-1.1-8.9-5.4-9.6-10.4c-0.1-0.4-0.1-0.7-0.1-1.1c0-0.6,0-1.1,0.1-1.7c0-0.4,0.1-0.8,0.2-1.2l1.1-5.4c0.1-0.4,0.2-0.8,0.3-1.2&#10;&#9;&#9;c0.1-0.3,0.2-0.6,0.3-0.9l-29.5-6.2c0.1,0-27.7-5.9-27.7-5.9c0,0.7-0.1,1.3-0.3,2l-1.1,5.4C239.7,277.9,233.2,282.1,226.6,280.7z"/>
	<path style="fill:#CF9200;" d="M167.9,132.8c0,0.1,0,0.2,0.1,0.2C167.9,132.9,167.9,132.9,167.9,132.8z"/>
	<path style="opacity:0.3;" d="M156.4,240.5c0,0,2.9,9.6,5.5,22.3c1.3,6.5,2.5,13.9,3.2,21.1l0.6-0.1l7.8,8.3l0.1,0l-7.3,34.6&#10;&#9;&#9;c-1.4,6.8,2.9,13.5,9.7,15l4.5,1l-0.1,0.2c-18.2,10.1-37.9,13.5-51.7,6.3c-45.1-23.6-13.9-113.4-12.8-116.4&#10;&#9;&#9;c-0.3-0.6-7.1-12.5-9.2-34.4c-1-11.1,2.6-18.9,7-25.3c0.9-1.2,1.7-2.4,2.6-3.5c6.2-7.9,14-8.2,20.3-9c6.3-0.9,11.5,1.3,11.2,5.6&#10;&#9;&#9;c-0.4,4.2-8.9,5-14.6,5.7c-5.7,0.7-6.5,5.2-6.5,5.2l0,0.1c3.4-0.8,7.4-1.2,12-0.4c13.4,2.4,17.8,6.1,17.2,10.3&#10;&#9;&#9;c-0.7,4.6-7.7,3-11.3,2.3l0,0c3.5,1.9,6.1,4.5,7.8,6.2c5,5.2,4.9,8.1,3.1,10.3c-1.4,1.8-3.9,1.2-3.9,1.2l-0.2,0.1&#10;&#9;&#9;c2.3,3.3,3.2,6.7,2.4,8.7c-1.6,4-5.5,4.1-9.9,0.5c-5.5-4.4-10.6-2.2-12.5-1.1l0.2,0.3c3.1,3.3,4.8,8.3,4.6,13l2.9,7.1&#10;&#9;&#9;c2.3,5.6,8.6,8.3,14.2,6L156.4,240.5L156.4,240.5z"/>
	<path style="opacity:0.35;fill:#FFFFFF;" d="M144.8,189.3c3.6,0.7,10.6,2.3,11.3-2.3c0.7-4.2-3.8-7.9-17.2-10.3&#10;&#9;&#9;c-4.6-0.8-8.6-0.5-12,0.4l0-0.1c0,0,0.8-4.5,6.5-5.2c5.7-0.7,14.2-1.5,14.6-5.7c0.4-4.3-4.9-6.5-11.2-5.6c-6.3,0.9-14.1,1.2-20.3,9&#10;&#9;&#9;c-0.9,1.1-1.8,2.3-2.6,3.5l-2.3-5.6c-2.3-5.6,0.4-11.9,6-14.2l21.3-8.7c0,0.1,0.1,0.1,0.1,0.2c0-0.1-0.1-0.2-0.1-0.2&#10;&#9;&#9;c-0.5-0.6-0.8-1.2-1-1.9l-2.2-5.5c-2.7-6.6,0.5-14.2,7.1-16.9l5.5-2.2c6.6-2.7,14.2,0.5,16.9,7.1l2.2,5.5c0.3,0.7,0.5,1.3,0.6,2&#10;&#9;&#9;c0,0,0,0,0,0c0,0.1,0,0.2,0.1,0.2c0-0.1,0-0.2-0.1-0.2l27.9-11.3c0,0.1,12.1,29.9,12.1,29.9c-0.9,0.3-1.7,0.5-2.5,0.8l-5.5,2.2&#10;&#9;&#9;c-6.6,2.7-9.8,10.3-7.1,16.9l2.2,5.5c2.7,6.6,10.3,9.8,16.9,7.1l5.5-2.2c0.8-0.3,1.5-0.7,2.2-1.2c0.1,0.1,8,19.3,8,19.3&#10;&#9;&#9;c0.8,1.9,1,3.9,0.7,5.9c-0.6,3.6-3,6.9-6.6,8.3l-13,5.3l-52.2,21.2l-3,1.2c-5.6,2.3-11.9-0.4-14.2-6l-2.9-7.1&#10;&#9;&#9;c0.2-4.7-1.5-9.7-4.6-13l-0.2-0.3c1.9-1.1,7-3.4,12.5,1.1c4.4,3.6,8.3,3.5,9.9-0.5c0.8-2-0.1-5.4-2.4-8.7l0.2-0.1&#10;&#9;&#9;c0,0,2.5,0.6,3.9-1.2c1.8-2.2,1.9-5.1-3.1-10.3C150.9,193.9,148.3,191.3,144.8,189.3L144.8,189.3z"/>
	<path style="opacity:0.5;fill:#FFFFFF;" d="M84.4,272.5c3,0,5.4,2.4,5.4,5.4c0,3-2.4,5.4-5.4,5.4c-3,0-5.4-2.4-5.4-5.4&#10;&#9;&#9;C78.9,274.9,81.4,272.5,84.4,272.5z"/>
	<path style="fill:none;stroke:#000000;stroke-width:1.6784;stroke-linecap:round;stroke-linejoin:round;stroke-miterlimit:10;" d="&#10;&#9;&#9;M470.1,163.3l8.2-18.6l-26.9-11.8c0,0.1-0.1,0.2-0.1,0.3c0-0.1,0.1-0.2,0.1-0.3c0.2-0.3,0.3-0.5,0.4-0.7c0.2-0.3,0.5-0.9,0.6-1.2&#10;&#9;&#9;l2.2-5c0.1-0.3,0.2-0.6,0.3-0.9c0.2-0.6,0.4-1.2,0.5-1.8c0.1-0.4,0.1-0.7,0.1-1.1c0.4-4.9-2.3-9.7-7.1-11.8l-4.9-2.2&#10;&#9;&#9;c-4.8-2.1-10.1-0.8-13.5,2.8c-0.3,0.3-0.5,0.6-0.7,0.8c-0.3,0.4-0.6,0.9-0.9,1.4c-0.2,0.3-0.4,0.7-0.5,1l-2.2,5&#10;&#9;&#9;c-0.2,0.4-0.4,0.9-0.5,1.3c-0.1,0.2-0.1,0.4-0.2,0.7c-0.2,0.2-0.3,0.4-0.4,0.6c0.1-0.2,0.2-0.4,0.3-0.5l-26.8-11.7l-11.9,27.1&#10;&#9;&#9;c-0.1-0.1-0.2-0.1-0.2-0.2c-0.6-0.4-1.2-0.8-1.9-1.1l-5-2.2c-6-2.6-13,0.1-15.6,6.1l-2.2,5c-2.6,6,0.1,13,6.1,15.6l5,2.2&#10;&#9;&#9;c0.7,0.3,1.4,0.5,2.1,0.7c0.1,0,0.2,0,0.2,0.1c0,0-8.7,19.9-8.7,19.9c-1.7,3.8,0.1,8.2,3.9,9.9l66.4,29.1c3.8,1.7,8.2-0.1,9.9-3.9&#10;&#9;&#9;l5.9-13.3"/>
	<path style="fill:none;stroke:#000000;stroke-width:1.6784;stroke-linecap:round;stroke-linejoin:round;stroke-miterlimit:10;" d="&#10;&#9;&#9;M156.4,240.5c0,0,11.3,37.1,8.8,61.4"/>
	<path style="fill:none;stroke:#000000;stroke-width:1.6784;stroke-linecap:round;stroke-linejoin:round;stroke-miterlimit:10;" d="&#10;&#9;&#9;M116,232.7c0,0-33.1,92.5,12.8,116.5c13.8,7.2,33.5,3.8,51.7-6.3"/>
	<path style="fill:none;stroke:#FFFFFF;stroke-width:1.6784;stroke-linecap:round;stroke-miterlimit:10;" d="M392.4,363.5&#10;&#9;&#9;c0,0-31.1-57.3-40.6-115.2"/>
	
		<line style="fill:none;stroke:#FFFFFF;stroke-width:1.6784;stroke-linecap:round;stroke-miterlimit:10;" x1="222.9" y1="279.6" x2="223" y2="251.9"/>
	<path style="fill:none;stroke:#000000;stroke-width:1.6784;stroke-linecap:round;stroke-linejoin:round;stroke-miterlimit:10;" d="&#10;&#9;&#9;M429.5,218.4c0,0-19.2,38.9-16.7,74.4"/>
	<path style="fill:none;stroke:#000000;stroke-width:1.6784;stroke-linecap:round;stroke-linejoin:round;stroke-miterlimit:10;" d="&#10;&#9;&#9;M378.4,304.8c0,0,52.3,41.6,77.1,26.4c9.8-6,15.1-18.6,17.9-30.4c3.3-14.2,3-38.1,2.3-51.9c-0.7-14.1-1.6-22.2-3.5-35"/>
	<path style="fill:none;stroke:#000000;stroke-width:1.6784;stroke-linecap:round;stroke-linejoin:round;stroke-miterlimit:10;" d="&#10;&#9;&#9;M130.8,215.8c0,0,6.4-5,13.3,0.6c4.5,3.6,8.3,3.5,9.9-0.5c2.3-5.8-10-24.7-31.8-13.5"/>
	<path style="fill:none;stroke:#000000;stroke-width:1.6784;stroke-linecap:round;stroke-linejoin:round;stroke-miterlimit:10;" d="&#10;&#9;&#9;M151.8,207.2c0,0,2.5,0.6,3.9-1.2c1.8-2.2,1.9-5.1-3.1-10.3c-4.4-4.5-14.4-14.5-32.4-4.3"/>
	<path style="fill:none;stroke:#000000;stroke-width:1.6784;stroke-linecap:round;stroke-linejoin:round;stroke-miterlimit:10;" d="&#10;&#9;&#9;M116.6,181.9c0,0,9-7.5,22.3-5.1s17.8,6.1,17.2,10.3c-0.7,4.6-7.7,3-11.3,2.3"/>
	<path style="fill:none;stroke:#000000;stroke-width:1.6784;stroke-linecap:round;stroke-linejoin:round;stroke-miterlimit:10;" d="&#10;&#9;&#9;M453.6,201.9c0,0-7-4.2-13.1,2.3c-4,4.2-7.8,4.5-9.9,0.8c-3-5.5,6.8-25.7,29.8-17.4"/>
	<path style="fill:none;stroke:#000000;stroke-width:1.6784;stroke-linecap:round;stroke-linejoin:round;stroke-miterlimit:10;" d="&#10;&#9;&#9;M455.6,219.6c-4.3-4.4-4.1-12-3-17.8"/>
	<path style="fill:none;stroke:#000000;stroke-width:1.6784;stroke-linecap:round;stroke-linejoin:round;stroke-miterlimit:10;" d="&#10;&#9;&#9;M431.7,196c0,0-2.4,0.9-4-0.7c-2-2-2.5-4.8,1.8-10.6c3.8-5,12.5-16.3,31.6-8.3"/>
	<path style="fill:none;stroke:#000000;stroke-width:1.6784;stroke-linecap:round;stroke-linejoin:round;stroke-miterlimit:10;" d="&#10;&#9;&#9;M463.4,166.5c0,0-9.9-6.3-22.8-2.3s-16.9,8.3-15.7,12.4c1.3,4.5,8,2,11.5,0.9"/>
	<path style="fill:none;stroke:#000000;stroke-width:1.6784;stroke-linecap:round;stroke-linejoin:round;stroke-miterlimit:10;" d="&#10;&#9;&#9;M452.6,163c0,0-1.3-4.4-7.1-4.3c-5.7,0-14.3,0.3-15.2-3.8c-0.9-4.2,4.1-7.1,10.4-7c6.3,0.1,14.1-0.6,21.3,6.4&#10;&#9;&#9;c6.3,6.2,13,12.4,12.8,25.7c-0.3,13.2-2.7,34.3-2.7,34.3"/>
	<path style="fill:none;stroke:#FFFFFF;stroke-width:1.6784;stroke-linecap:round;stroke-miterlimit:10;" d="M336.9,119.3&#10;&#9;&#9;c2.1-1.9,3.5-4.9,3.3-8c-0.5-7.5-6.1-6.3-6.1-6.3c3.5-10.6,0.2-15.3-5.7-15.8c-3.4-0.3-6.7,3.3-6.7,3.3s-1.4-8.9-9.7-9.4&#10;&#9;&#9;c-6.7-0.4-10.5,7-10.5,7s-2-8.9-11.3-9.2c-8.8-0.3-10,8.3-10,8.3s-4.1-3-7.7-2.9c-4.4,0.1-8.8,4.5-5.1,15c0,0-9.3-5.7-15.1-0.3&#10;&#9;&#9;c-6.1,5.6-1.8,12.3-1.8,12.3s-4.5,0.1-7,2.6c-3.6,3.6-1.8,10.7,7.1,14.8c0,0-8,2.6-5.1,9.6c1.3,3.1,6,4.2,10,4"/>
	<g>
		<path style="fill:none;stroke:#FFFFFF;stroke-width:1.6784;stroke-linecap:round;stroke-miterlimit:10;" d="M321.5,133.9&#10;&#9;&#9;&#9;c2.6,3.2,5.2,6.5,7.9,9.7c0.7,0.8,1.3,1.6,1.7,2.6s0.4,2.1-0.1,3c-0.8,1.2-2.3,1.5-3.8,1.7c-2.2,0.2-4.5,0.2-6.7-0.1"/>
		
			<path style="fill:none;stroke:#000000;stroke-width:1.6784;stroke-linecap:round;stroke-linejoin:round;stroke-miterlimit:10;" d="&#10;&#9;&#9;&#9;M266.7,157.5c0,0,0.7,23.9,30,28.8c29.7,5,48.5-16.7,40.3-43.3c0,0,7.9-18-5.9-30.9c-0.7-0.7-3.6-4-8.5-2.1&#10;&#9;&#9;&#9;c-3.8,1.5-10.8,3.9-25.2,1.6c-11.1-1.8-11.9,9-12.2,11.3c-0.9,7,1.2,19-9.6,20.5l-3.9-2.7c0,0-8.6-6.9-13.8-0.5&#10;&#9;&#9;&#9;c-7,8.8,0.5,19.9,12.8,16.5"/>
	</g>
	<path style="fill:none;stroke:#FFFFFF;stroke-width:1.6784;stroke-linecap:round;stroke-linejoin:round;stroke-miterlimit:10;" d="&#10;&#9;&#9;M113.8,173.1l-2.3-5.6c-2.3-5.6,0.4-11.9,6-14.2l21.3-8.7c0,0.1,0.1,0.1,0.1,0.2c0-0.1,0-0.1-0.1-0.2c-0.5-0.6-0.8-1.2-1-1.9&#10;&#9;&#9;l-2.2-5.5c-2.7-6.6,0.5-14.2,7.1-16.9l5.5-2.2c6.6-2.7,14.2,0.5,16.9,7.1l2.2,5.5c0.3,0.7,0.5,1.3,0.6,2c0,0.1,0,0.2,0,0.3&#10;&#9;&#9;c0-0.1,0-0.1,0-0.2l27.9-11.3c0,0,12.1,29.9,12.1,29.9c-0.9,0.3-1.7,0.5-2.5,0.8l-5.5,2.2c-6.6,2.7-9.8,10.3-7.1,16.9l2.2,5.5&#10;&#9;&#9;c2.7,6.6,10.3,9.8,16.9,7.1l5.5-2.2c0.8-0.3,1.5-0.7,2.2-1.2c0.1,0,8,19.3,8,19.3c2.3,5.6-0.4,11.9-6,14.2l-68.1,27.7&#10;&#9;&#9;c-5.6,2.3-11.9-0.4-14.2-6l-2.9-7.2"/>
	<path style="fill:none;stroke:#000000;stroke-width:1.6784;stroke-linecap:round;stroke-linejoin:round;stroke-miterlimit:10;" d="&#10;&#9;&#9;M134.9,234.6c2.8-5.8,1.4-14.2-3.2-19"/>
	<path style="fill:none;stroke:#000000;stroke-width:1.6784;stroke-linecap:round;stroke-linejoin:round;stroke-miterlimit:10;" d="&#10;&#9;&#9;M126.9,177c0,0,0.8-4.5,6.5-5.2c5.7-0.7,14.2-1.5,14.6-5.7c0.4-4.3-4.9-6.5-11.2-5.6c-6.3,0.9-14.1,1.2-20.3,9&#10;&#9;&#9;c-5.5,7-10.9,15.6-9.7,28.8c2.1,22.5,9.2,34.5,9.2,34.5"/>
	<path style="fill:none;stroke:#000000;stroke-width:1.6784;stroke-linecap:round;stroke-linejoin:round;stroke-miterlimit:10;" d="&#10;&#9;&#9;M257.8,328.4c0.6,0.3,1.2,0.5,1.9,0.7l5.4,1.1c6.6,1.4,13.1-2.8,14.5-9.4l1.1-5.4c1.4-6.6-2.8-13.1-9.4-14.5l-5.4-1.1&#10;&#9;&#9;c-0.6-0.1-1.3-0.2-1.9-0.3c-0.1,0.1-0.2,0-0.3,0c0.1,0,0.2,0,0.2,0l6.3-29.7c0.1,0-27.7-5.9-27.7-5.9c0,0.6-0.1,1.3-0.3,2l-1.1,5.4&#10;&#9;&#9;c-1.4,6.6-7.9,10.8-14.5,9.4l-5.4-1.1c-6.6-1.4-10.8-7.9-9.4-14.5l1.1-5.4c0.1-0.7,0.3-1.3,0.6-1.9l-18.9-4&#10;&#9;&#9;c-6.8-1.4-13.5,2.9-15,9.7l-13.4,63.3c-1.4,6.8,2.9,13.5,9.7,15l75.6,16L257.8,328.4c-0.1,0.1-0.2,0-0.2,0&#10;&#9;&#9;C257.6,328.4,257.7,328.4,257.8,328.4z"/>
	<path style="fill:none;stroke:#FFFFFF;stroke-width:1.6784;stroke-linecap:round;stroke-linejoin:round;stroke-miterlimit:10;" d="&#10;&#9;&#9;M251.5,357.7l73.8,15.6c7.8,1.7,15.5-3.4,17.2-11.2l15.6-73.8l-29.5-6.2c0,0.3,0,0.6-0.1,1c0,0.4-0.1,0.8-0.2,1.2l-1.1,5.4&#10;&#9;&#9;c-0.1,0.3-0.1,0.6-0.2,0.9c-0.2,0.6-0.4,1.3-0.7,1.8c-0.2,0.3-0.3,0.7-0.5,1c-2.6,4.3-7.8,6.7-13,5.6l-5.4-1.1&#10;&#9;&#9;c-5.2-1.1-8.9-5.4-9.6-10.4c-0.1-0.4-0.1-0.8-0.1-1.1c0-0.6,0-1.1,0.1-1.7c0-0.4,0.1-0.8,0.2-1.2l1.1-5.4c0.1-0.4,0.2-0.8,0.3-1.2&#10;&#9;&#9;c0.1-0.3,0.2-0.6,0.3-0.9l-29.5-6.2l-6.3,29.8c0.7-0.1,1.3,0,2,0.2l5.4,1.1c6.6,1.4,10.8,7.9,9.4,14.5l-1.1,5.4&#10;&#9;&#9;c-1.4,6.6-7.9,10.8-14.5,9.4l-5.4-1.1c-0.6-0.1-1.3-0.3-1.9-0.5C257.8,328.4,251.5,357.7,251.5,357.7z"/>
</g>
</svg>