<svg xmlns="http://www.w3.org/2000/svg" viewBox="0 0 600 600"><g id="Change_colour"><path d="M379.568,359.649l67.545-172.146c1.321-3.365-.337-7.163-3.702-8.484l-20.352-7.985c-3.143-1.233-6.69,.315-7.923,3.458l-20.772,52.942-76.652-32.337,19.195-48.921c1.32-3.365-.337-7.163-3.702-8.484l-20.352-7.985c-3.142-1.233-6.689,.315-7.922,3.458l-87.006,221.743c-69.842,7.44-119.602,26.685-119.602,49.26,0,9.647,9.128,18.68,24.987,26.451,8.808,5.259,21.813,9.983,38.02,13.92,6.157,1.496,12.79,2.872,19.808,4.127,10.838,1.937,22.627,3.574,35.178,4.852,20.232,2.061,42.413,3.202,65.686,3.202,7.649,0,15.162-.137,22.545-.375,13.198-.426,25.923-1.215,37.998-2.333,25.776-2.387,48.612-6.245,66.75-11.169,13.154-3.571,23.824-7.701,31.398-12.223,15.858-7.771,24.987-16.804,24.987-26.451,0-18.764-34.398-35.221-86.11-44.518Zm6.387-110.787l-15.87,40.447-76.652-32.338,15.87-40.447,76.652,32.337Zm-100.931,29.539l76.653,32.337-14.992,38.209-76.653-32.337,14.992-38.209Zm-3.024,73.213c-8.799,0-17.441,.188-25.911,.53l5.535-14.104,32.475,13.7c-4.004-.074-8.029-.126-12.099-.126Z" style="fill: rgb(31, 107, 239);"/></g><g id="Foreground"><polygon points="361.677 310.738 285.025 278.401 270.032 316.61 346.685 348.947 361.677 310.738" style="fill:none;"/><polygon points="385.955 248.862 309.303 216.525 293.433 256.972 370.085 289.309 385.955 248.862" style="fill:none;"/><path d="M294.099,351.74l-32.475-13.7-5.534,14.104c8.469-.342,17.111-.53,25.91-.53,4.07,0,8.095,.052,12.099,.126Z" style="fill:none;"/><path d="M110.473,414.639c0-16.877,40.518-31.425,98.975-38.131l8.476-21.601c-69.842,7.44-119.602,26.685-119.602,49.26,0,9.647,9.128,18.68,24.987,26.452-8.254-4.928-12.836-10.321-12.836-15.979Z" style="fill:#231f20; opacity:.15;"/><path d="M336.562,374.746l1.714-4.37-44.178-18.637c-4.004-.074-8.029-.126-12.099-.126-8.799,0-17.441,.188-25.91,.53l-8.34,21.256c11.068-.551,22.52-.841,34.25-.841,19.083,0,37.416,.776,54.562,2.187Z" style="fill:#231f20; opacity:.15;"/><path d="M379.568,359.649l-7.525,19.176c48.892,7.414,81.484,20.678,81.484,35.815,0,5.658-4.582,11.051-12.836,15.979,15.858-7.771,24.987-16.804,24.987-26.452,0-18.764-34.398-35.221-86.11-44.518Z" style="fill:#231f20; opacity:.15;"/><path d="M453.527,414.639c0-15.136-32.592-28.401-81.484-35.815l-29.5,75.185c25.776-2.387,48.612-6.245,66.751-11.17,13.154-3.571,23.824-7.701,31.398-12.223,8.254-4.928,12.836-10.321,12.836-15.979Z" style="fill:#231f20; opacity:.4;"/><path d="M236.692,401.581l-20.378,51.936c20.232,2.061,42.412,3.202,65.686,3.202,7.649,0,15.162-.137,22.545-.375l8.8-22.426-76.653-32.337Z" style="fill:#231f20; opacity:.4;"/><path d="M336.562,374.746c-17.146-1.411-35.479-2.187-54.562-2.187-11.73,0-23.183,.29-34.25,.841l-2.649,6.751,76.653,32.337,14.809-37.742Z" style="fill:#231f20; opacity:.4;"/><path d="M209.447,376.508c-58.457,6.706-98.975,21.254-98.975,38.131,0,5.658,4.582,11.051,12.836,15.979,8.807,5.259,21.813,9.983,38.019,13.92,6.156,1.496,12.79,2.872,19.808,4.127l28.312-72.157Z" style="fill:#231f20; opacity:.4;"/><path d="M181.136,448.665c10.839,1.937,22.627,3.574,35.179,4.852l20.378-51.936-7.343-3.098c-5.855-2.47-8.601-9.219-6.129-15.074,2.47-5.859,9.217-8.608,15.074-6.129l6.806,2.871,2.649-6.751,8.34-21.256,5.534-14.104-8.548-3.606c-5.855-2.47-8.601-9.219-6.129-15.074,2.47-5.859,9.219-8.606,15.074-6.129l8.011,3.38,14.993-38.209-7.464-3.149c-5.855-2.47-8.601-9.219-6.129-15.074,2.47-5.859,9.219-8.606,15.074-6.129l6.927,2.922,15.87-40.447-9.292-3.92c-5.855-2.47-8.601-9.219-6.129-15.074,2.47-5.859,9.219-8.606,15.074-6.129l8.755,3.693,19.195-48.921c1.32-3.365-.337-7.163-3.702-8.484l-20.352-7.985c-3.142-1.233-6.69,.315-7.922,3.458l-87.006,221.744-8.476,21.601-28.312,72.157Z" style="fill:#fff; opacity:.4;"/><path d="M293.882,197.531c-2.472,5.855,.274,12.604,6.129,15.074l9.292,3.92,76.653,32.337,8.409-21.429-76.653-32.337-8.755-3.693c-5.855-2.477-12.604,.27-15.074,6.129Z" style="fill:#fff; opacity:.7;"/><path d="M370.085,289.309l-76.653-32.338-6.927-2.922c-5.855-2.477-12.604,.27-15.074,6.129-2.472,5.855,.274,12.604,6.129,15.074l7.464,3.149,76.653,32.337,8.408-21.429Z" style="fill:#fff; opacity:.7;"/><path d="M338.277,370.377l8.409-21.429-76.653-32.337-8.011-3.38c-5.855-2.477-12.604,.27-15.074,6.129-2.472,5.855,.274,12.604,6.129,15.074l8.548,3.606,32.475,13.7,44.178,18.637Z" style="fill:#fff; opacity:.7;"/><path d="M321.753,412.489l-76.653-32.337-6.806-2.871c-5.857-2.479-12.604,.27-15.074,6.129-2.472,5.855,.274,12.604,6.129,15.074l7.343,3.098,76.653,32.337,8.408-21.429Z" style="fill:#fff; opacity:.7;"/><path d="M370.085,289.309l-8.408,21.429-14.992,38.209-8.409,21.429-1.714,4.37-14.809,37.742-8.408,21.429-8.8,22.426c13.199-.426,25.923-1.215,37.998-2.333l29.5-75.185,7.525-19.176,67.545-172.147c1.32-3.365-.337-7.163-3.702-8.484l-20.352-7.985c-3.143-1.233-6.69,.315-7.923,3.458l-20.773,52.942-8.409,21.429-15.87,40.447Z" style="fill:#fff; opacity:.4;"/></g></svg>