<svg version="1.1" xmlns="http://www.w3.org/2000/svg" xmlns:xlink="http://www.w3.org/1999/xlink" x="0px" y="0px" viewBox="0 0 600 450" style="enable-background:new 0 0 600 450;" xml:space="preserve">
<g id="Change_colour">
	<g style="fill: rgb(31, 107, 239);">
		<path style="fill: rgb(31, 107, 239);" d="M509,181.8c-0.4-6.2-5.7-11-11.9-10.6c-6.2,0.4-11,5.7-10.6,11.9c0.3,5.4,4.5,9.8,9.7,10.5v81.6&#10;&#9;&#9;&#9;c0,9.2-7.5,16.7-16.7,16.7h-41.9c-0.8-2.8-2.8-4.8-5.2-5.2h2.5c1.9,0,3.6-0.8,5-2.3c1.3-1.5,2.1-3.5,2.1-5.6&#10;&#9;&#9;&#9;c0-4.2-2.9-7.7-6.6-7.9c1.6-0.2,3-1,4.1-2.3c1.3-1.5,2-3.5,2-5.6c0-4-2.6-7.3-5.9-7.9c3.1-13.8,9.8-26.6,19.4-37.1&#10;&#9;&#9;&#9;c1.2-1.2,2.3-2.4,3.4-3.6v0c0.2-0.3,0.5-0.5,0.7-0.8c0.9-1,1.7-2,2.4-2.9c11.9-14.7,18.4-32.9,18.4-52.2c0-9.3-1.5-18.2-4.3-26.5&#10;&#9;&#9;&#9;h0c-0.1-0.2-0.1-0.4-0.2-0.5c-0.2-0.6-0.4-1.2-0.6-1.8c0,0,0,0,0,0c-11.8-31.7-42.3-54.4-78-54.4c-22,0-41.9,8.6-56.8,22.5&#10;&#9;&#9;&#9;c-2.4-3.3-6.1-5.7-10.5-6.2L198.5,76.4c-8.3-1-15.7,5-16.7,13.2l-9.7,82.7h-6.3c-10.9,0-19.7,8.9-19.7,19.7v83.2&#10;&#9;&#9;&#9;c0,10.9,8.9,19.7,19.7,19.7h189.8c0.1,4.2,2.9,7.6,6.4,7.6h7.7c3.3,11.9,14.4,20.5,26.9,20.5s23.6-8.5,26.9-20.5h7.9&#10;&#9;&#9;&#9;c1.7,0,3.3-0.8,4.5-2.3c1.1-1.4,1.8-3.3,1.9-5.3h41.6c10.9,0,19.7-8.9,19.7-19.7v-81.6C505,192.9,509.3,187.8,509,181.8z&#10;&#9;&#9;&#9; M357.5,289c-0.7,0.8-1.2,1.9-1.5,3H165.8c-9.2,0-16.7-7.5-16.7-16.7v-83.2c0-9.2,7.5-16.7,16.7-16.7h5.9l-5.6,48&#10;&#9;&#9;&#9;c-1,8.3,4.9,15.8,13.2,16.7l72.3,8.5l41.6,27l-4.3-22.6l21.3,2.5c8.3,1,15.8-4.9,16.7-13.2l3.9-33c2.6,3.5,6,7.7,8.5,10.4&#10;&#9;&#9;&#9;c4.9,5.1,10.1,13.5,10.1,13.5c3.9,6.9,6.8,14.3,8.5,22.1c-1.4,0.3-2.7,1-3.7,2.2c-1.3,1.5-2,3.5-2,5.6c0,4.1,2.7,7.4,6.2,7.9&#10;&#9;&#9;&#9;c-1.7,0.1-3.3,0.9-4.5,2.3c-1.3,1.5-2.1,3.5-2.1,5.6c0,4.4,3.1,8,7,8h2.5C359.8,287,358.5,287.8,357.5,289z M498.2,190.7&#10;&#9;&#9;&#9;c-2.2,0.1-4.3-0.6-6-2.1c-1.7-1.5-2.6-3.5-2.8-5.7c-0.3-4.6,3.2-8.5,7.8-8.7c0.2,0,0.3,0,0.5,0c4.3,0,8,3.4,8.2,7.8&#10;&#9;&#9;&#9;C506.3,186.6,502.8,190.5,498.2,190.7z"/>
		<path style="fill: rgb(31, 107, 239);" d="M453.5,244.9c0,1.8,1.5,3.3,3.3,3.3c1.8,0,3.3-1.5,3.3-3.3c0-1.8-1.5-3.3-3.3-3.3&#10;&#9;&#9;&#9;C455,241.7,453.5,243.1,453.5,244.9z"/>
		<circle style="fill: rgb(31, 107, 239);" cx="302.5" cy="317.4" r="7.6"/>
		<path style="fill: rgb(31, 107, 239);" d="M125.5,120.1c-3.6,0-6.9,1.4-9.4,4c-2.5,2.5-3.9,5.9-3.9,9.5c0,7.3,6,13.3,13.3,13.3c0,0,0,0,0.1,0&#10;&#9;&#9;&#9;c3.6,0,6.9-1.4,9.4-4c2.5-2.5,3.9-5.9,3.9-9.5c0-3.6-1.4-6.9-3.9-9.4C132.5,121.5,129.1,120.1,125.5,120.1z M133,140.7&#10;&#9;&#9;&#9;c-1.9,2-4.5,3-7.3,3.1c-5.7,0-10.4-4.6-10.4-10.3c0-2.8,1-5.4,3-7.3c1.9-2,4.5-3.1,7.3-3.1c0,0,0,0,0.1,0c2.7,0,5.3,1.1,7.3,3&#10;&#9;&#9;&#9;c2,2,3.1,4.5,3.1,7.3C136,136.2,134.9,138.8,133,140.7z"/>
	</g>
</g>
<g id="Foreground">
	<path style="opacity:3.000000e-02;fill:#231F20;" d="M249.8,309.2L108.2,310c-8.8,0-16-7.1-16.1-15.9l-0.7-143.1&#10;&#9;&#9;c0-8.8,7.1-16,15.9-16.1l141.6-0.7c8.8,0,16,7.1,16.1,15.9l0.7,143.1C265.7,302,258.6,309.2,249.8,309.2z"/>
	
		<ellipse transform="matrix(1 -5.160452e-03 5.160452e-03 1 -1.9066 1.5728)" style="opacity:0.15;fill:#231F20;" cx="303.8" cy="370.3" rx="196.3" ry="11.6"/>
	<path style="opacity:0.25;fill:#231F20;" d="M509,181.8c-0.4-6.2-5.7-11-11.9-10.6c-6.2,0.4-11,5.7-10.6,11.9&#10;&#9;&#9;c0.3,5.4,4.5,9.8,9.7,10.5v81.6c0,9.2-7.5,16.7-16.7,16.7h-41.9c0.2,0.8,0.4,1.7,0.4,2.7c0,0.1,0,0.2,0,0.3h41.6&#10;&#9;&#9;c10.9,0,19.7-8.9,19.7-19.7v-81.6C505,192.9,509.3,187.8,509,181.8z M498.2,190.7c-2.2,0.1-4.3-0.6-6-2.1c-1.7-1.5-2.6-3.5-2.8-5.7&#10;&#9;&#9;c-0.3-4.6,3.2-8.5,7.8-8.7c0.2,0,0.3,0,0.5,0c4.3,0,8,3.4,8.2,7.8C506.3,186.6,502.8,190.5,498.2,190.7z"/>
	<path style="opacity:0.75;fill:#FFFFFF;" d="M453.5,244.9c0,1.8,1.5,3.3,3.3,3.3c1.8,0,3.3-1.5,3.3-3.3c0-1.8-1.5-3.3-3.3-3.3&#10;&#9;&#9;C455,241.7,453.5,243.1,453.5,244.9z"/>
	<path style="opacity:0.55;fill:#231F20;" d="M359.1,255.1c-0.4,0-0.8,0-1.2,0.1c-1.4,0.3-2.7,1-3.7,2.2c-1.3,1.5-2,3.5-2,5.6&#10;&#9;&#9;c0,4.1,2.7,7.4,6.2,7.9c0.1,0,0.3,0,0.4,0h76.1c0.1,0,0.3,0,0.4,0c1.6-0.2,3-1,4.1-2.3c1.3-1.5,2-3.5,2-5.6c0-4-2.6-7.3-5.9-7.9&#10;&#9;&#9;c-0.3,0-0.7-0.1-1-0.1H359.1z"/>
	<path style="opacity:0.35;fill:#231F20;" d="M358.7,270.9c-0.2,0-0.3,0-0.4,0c-1.7,0.1-3.3,0.9-4.5,2.3c-1.3,1.5-2.1,3.5-2.1,5.6&#10;&#9;&#9;c0,4.4,3.1,8,7,8h2.5h71.2h2.5c1.9,0,3.6-0.8,5-2.3c1.3-1.5,2.1-3.5,2.1-5.6c0-4.2-2.9-7.7-6.6-7.9c-0.1,0-0.3,0-0.4,0H358.7z"/>
	<path style="opacity:0.35;fill:#231F20;" d="M396.6,323.1c12.5,0,23.6-8.5,26.9-20.5h-53.8C373.1,314.6,384.1,323.1,396.6,323.1z"/>
	<path style="opacity:1.000000e-02;fill:#FFFFFF;" d="M313.4,158.6c0,16.2,4.6,31.7,13.2,45c0,0,1.7,2.4,4.1,5.6&#10;&#9;&#9;c2.6,3.5,6,7.7,8.5,10.4c4.9,5.1,10.1,13.5,10.1,13.5c3.9,6.9,6.8,14.3,8.5,22.1c0.4-0.1,0.8-0.1,1.2-0.1h75.4c0.3,0,0.7,0,1,0.1&#10;&#9;&#9;c3.1-13.8,9.8-26.6,19.4-37.1c1.2-1.2,2.3-2.4,3.4-3.6v0c0.2-0.3,0.5-0.5,0.7-0.8c0.9-1,1.7-2,2.4-2.9&#10;&#9;&#9;c11.9-14.7,18.4-32.9,18.4-52.2c0-9.3-1.5-18.2-4.3-26.5h0c-0.1-0.2-0.1-0.4-0.2-0.5c-0.2-0.6-0.4-1.2-0.6-1.8c0,0,0,0,0,0&#10;&#9;&#9;c-11.8-31.7-42.3-54.4-78-54.4c-22,0-41.9,8.6-56.8,22.5C323.6,113.1,313.4,134.7,313.4,158.6z"/>
	<path style="opacity:0.3;fill:#FFFFFF;" d="M334.3,138.2c1.4,0.9,3.4,0.9,4.6-0.7c2.7-3.7,5.3-7.2,8.2-10.6&#10;&#9;&#9;c8.5-10.3,18.8-18.4,29.2-26.8c2.8-2.2,0.6-6.8-3-5.9c-9.6,2.6-18.2,8-25.4,15c-5.1,5-9.4,10.9-12.3,17.5c-1.2,2.6-2.1,5.3-2.7,8.1&#10;&#9;&#9;C332.6,136.2,333.2,137.5,334.3,138.2z"/>
	<path style="opacity:0.75;fill:#FFFFFF;" d="M183,162.5l1.8-2.4l18.4,13.4l-2.6,2.1l-15.4,12.9l-1.9-2.3l13-10.9h-24.6l-5.6,48&#10;&#9;&#9;c-1,8.3,4.9,15.8,13.2,16.7l72.3,8.5l41.6,27l-4.3-22.6l21.3,2.5c8.3,1,15.8-4.9,16.7-13.2l3.9-33c-2.4-3.1-4.1-5.6-4.1-5.6&#10;&#9;&#9;c-8.6-13.3-13.2-28.8-13.2-45c0-23.9,10.2-45.5,26.4-60.7c-2.4-3.3-6.1-5.7-10.5-6.2L198.5,76.4c-8.3-1-15.7,5-16.7,13.2l-9.7,82.7&#10;&#9;&#9;h24.4L183,162.5z M258.6,216.1L270.9,111c0.3-2.2,2.3-3.8,4.5-3.6l16.1,1.9c2.2,0.3,3.8,2.3,3.6,4.5l-12.3,105.1&#10;&#9;&#9;c-0.3,2.2-2.3,3.8-4.5,3.6l-16.1-1.9C259.9,220.3,258.3,218.3,258.6,216.1z M241.5,103.5l12.6,22.4l-30-3.5L241.5,103.5z&#10;&#9;&#9; M222.8,157.7c0.8-6.7,6.9-11.5,13.6-10.8c6.7,0.8,11.5,6.9,10.8,13.6c-0.8,6.7-6.9,11.5-13.6,10.8&#10;&#9;&#9;C226.9,170.6,222,164.5,222.8,157.7z M219,191.1l24.1,2.8l-2.8,24.1l-24.1-2.8L219,191.1z"/>
	<circle style="opacity:1.000000e-02;fill:#FFFFFF;" cx="302.5" cy="317.4" r="7.6"/>
	<path style="opacity:0.85;fill:#FFFFFF;" d="M262.2,220.6l16.1,1.9c2.2,0.3,4.2-1.3,4.5-3.6l12.3-105.1c0.3-2.2-1.3-4.2-3.6-4.5&#10;&#9;&#9;l-16.1-1.9c-2.2-0.3-4.2,1.3-4.5,3.6l-12.3,105.1C258.3,218.3,259.9,220.3,262.2,220.6z"/>
	<polygon style="opacity:0.5;fill:#231F20;" points="241.5,103.5 224.1,122.3 254.1,125.8 &#9;"/>
	<path style="opacity:0.2;fill:#231F20;" d="M233.6,171.3c6.7,0.8,12.8-4,13.6-10.8c0.8-6.7-4-12.8-10.8-13.6&#10;&#9;&#9;c-6.7-0.8-12.8,4-13.6,10.8C222,164.5,226.9,170.6,233.6,171.3z"/>
	
		<rect x="217.5" y="192.4" transform="matrix(0.1165 -0.9932 0.9932 0.1165 -0.2173 408.8557)" style="opacity:1.000000e-02;fill:#FFFFFF;" width="24.3" height="24.3"/>
	<path style="opacity:0.25;fill:#231F20;" d="M356,292H165.8c-9.2,0-16.7-7.5-16.7-16.7v-83.2c0-9.2,7.5-16.7,16.7-16.7h5.9h24.6&#10;&#9;&#9;l-13,10.9l1.9,2.3l15.4-12.9l2.6-2.1l-18.4-13.4l-1.8,2.4l13.5,9.8h-24.4h-6.3c-10.9,0-19.7,8.9-19.7,19.7v83.2&#10;&#9;&#9;c0,10.9,8.9,19.7,19.7,19.7h189.8c0-0.1,0-0.2,0-0.3C355.6,293.8,355.8,292.9,356,292z"/>
	<path style="opacity:1.000000e-02;fill:#FFFFFF;" d="M125.5,120.1c-3.6,0-6.9,1.4-9.4,4c-2.5,2.5-3.9,5.9-3.9,9.5&#10;&#9;&#9;c0,7.3,6,13.3,13.3,13.3c0,0,0,0,0.1,0c3.6,0,6.9-1.4,9.4-4c2.5-2.5,3.9-5.9,3.9-9.5c0-3.6-1.4-6.9-3.9-9.4&#10;&#9;&#9;C132.5,121.5,129.1,120.1,125.5,120.1z M133,140.7c-1.9,2-4.5,3-7.3,3.1c-5.7,0-10.4-4.6-10.4-10.3c0-2.8,1-5.4,3-7.3&#10;&#9;&#9;c1.9-2,4.5-3.1,7.3-3.1c0,0,0,0,0.1,0c2.7,0,5.3,1.1,7.3,3c2,2,3.1,4.5,3.1,7.3C136,136.2,134.9,138.8,133,140.7z"/>
	<path style="opacity:0.55;fill:#231F20;" d="M437.5,292c-0.8-2.8-2.8-4.8-5.2-5.2h-71.2c-1.4,0.2-2.7,1-3.7,2.2&#10;&#9;&#9;c-0.7,0.8-1.2,1.9-1.5,3c-0.2,0.8-0.4,1.8-0.4,2.7c0,0.1,0,0.2,0,0.3c0.1,4.2,2.9,7.6,6.4,7.6h7.7h53.8h7.9c1.7,0,3.3-0.8,4.5-2.3&#10;&#9;&#9;c1.1-1.4,1.8-3.3,1.9-5.3c0-0.1,0-0.2,0-0.3C437.9,293.7,437.7,292.8,437.5,292z"/>
	<path style="opacity:0.1;fill:#FFFFFF;" d="M347.9,164c0,9.5,2.7,18.6,7.7,26.4c0,0,1,1.4,2.4,3.3c1.5,2,3.5,4.5,5,6.1&#10;&#9;&#9;c2.9,3,5.9,7.9,5.9,7.9c6,7.9,8.4,15.1,9.9,24.9c0.8,5.5,0.9,18.6,1,22.6l34-0.1c0-5.5,0.5-19.1,0.9-21.8&#10;&#9;&#9;c2.9-18.9,11.1-29.1,16-34.5c0.7-0.7,1.4-1.4,2-2.1v0c0.1-0.2,0.3-0.3,0.4-0.5c0.5-0.6,1-1.2,1.4-1.7c7-8.6,10.8-19.3,10.8-30.6&#10;&#9;&#9;c0-5.4-0.9-10.6-2.5-15.5h0c0-0.1-0.1-0.2-0.1-0.3c-0.1-0.4-0.2-0.7-0.4-1.1c0,0,0,0,0,0c-6.9-18.6-24.8-31.8-45.7-31.8&#10;&#9;&#9;c-12.9,0-24.6,5-33.3,13.2C353.9,137.4,347.9,150,347.9,164z"/>
	<path style="opacity:1.000000e-02;fill:#FFFFFF;" d="M453.5,244.9c0,1.8,1.5,3.3,3.3,3.3c1.8,0,3.3-1.5,3.3-3.3&#10;&#9;&#9;c0-1.8-1.5-3.3-3.3-3.3C455,241.7,453.5,243.1,453.5,244.9z"/>
	<circle style="opacity:0.75;fill:#FFFFFF;" cx="302.5" cy="317.4" r="7.6"/>
	<circle style="opacity:0.1;fill:#FFFFFF;" cx="396.6" cy="163.8" r="17"/>
</g>
</svg>