<svg version="1.1" xmlns="http://www.w3.org/2000/svg" xmlns:xlink="http://www.w3.org/1999/xlink" x="0px" y="0px" viewBox="0 0 600 600" style="enable-background:new 0 0 600 600;" xml:space="preserve">
<g id="Change_colour">
	<path style="fill: rgb(31, 107, 239);" d="M212.2,340.9l-0.4,0.2l-33.2,20.2c0,0,1.2,5.5,5.6,13.1c-12.7,5.4-40.6,23.4-43.3,76.4&#10;&#9;&#9;c0,0,52.7,1.3,73.6-47.5l0-0.1c4.1,2.2,8.6,4.2,13.6,5.9l19.2-34.3c0.1,0,0.3-0.1,0.4-0.1c7.8-2.3,16.3-5.1,25.3-8.4l0.2,0.5&#10;&#9;&#9;l24.6,78.8l26.7-27.7l2.6-77.4c18.5-11.1,36.9-24.9,53.4-42c36.1-37.4,56.1-83.4,67.1-119.4c0,0,0,0,0,0c0.2-0.7,0.4-1.3,0.6-2&#10;&#9;&#9;c0.2-0.7,0.4-1.3,0.6-2c0-0.1,0.1-0.3,0.1-0.4c0.3-1.2,0.7-2.4,1-3.5c0.5-1.9,1-3.8,1.5-5.6c0.2-0.9,0.5-1.8,0.7-2.7&#10;&#9;&#9;c0.1-0.4,0.2-0.9,0.3-1.3c0.4-1.8,0.9-3.5,1.3-5.2c0.1-0.4,0.2-0.8,0.3-1.3c0.2-0.8,0.4-1.6,0.6-2.5c4.5-20.3,5.7-33.4,5.7-33.4&#10;&#9;&#9;s-0.4,0.1-1.2,0.2c-0.1,0-0.3,0-0.5,0.1c0,0-0.1,0-0.1,0c-0.2,0-0.4,0.1-0.6,0.1c-0.2,0-0.4,0.1-0.7,0.1c-0.4,0.1-0.7,0.1-1.2,0.2&#10;&#9;&#9;c-0.3,0-0.6,0.1-0.9,0.1c-0.5,0.1-0.9,0.2-1.4,0.2c-0.2,0-0.3,0.1-0.5,0.1c-0.3,0.1-0.6,0.1-1,0.2c0,0-0.1,0-0.2,0&#10;&#9;&#9;c-1.1,0.2-2.3,0.4-3.6,0.7c-0.2,0-0.4,0.1-0.7,0.1c-1.1,0.2-2.2,0.4-3.4,0.7c-0.3,0.1-0.6,0.1-0.9,0.2c-0.7,0.2-1.5,0.3-2.2,0.5&#10;&#9;&#9;c-9,2-20.8,4.9-34.1,9.2h0c-0.3,0.1-0.6,0.2-1,0.3c-0.7,0.2-1.4,0.5-2.1,0.7c0,0,0,0-0.1,0c-1,0.3-2.1,0.7-3.1,1c0,0,0,0,0,0&#10;&#9;&#9;c-35.6,12.2-80.9,33.8-117,71.2c-16.5,17.1-29.6,36-40.1,54.9l-77.3,5.3L139.7,293l80.1,21.9C216.8,324.1,214.3,332.9,212.2,340.9z&#10;&#9;&#9;"/>
</g>
<g id="Foreground">
	<path style="opacity:0.15;" d="M300,479.8c88.1,0,159.6,4,159.6,8.9s-71.5,8.9-159.6,8.9c-88.2,0-159.6-4-159.6-8.9&#10;&#9;&#9;S211.8,479.8,300,479.8z"/>
	<g>
		<g id="XMLID_00000014595083298373157060000005165957967435513770_">
			<g>
				<g>
					<path style="fill:none;" d="M330.9,289.1c9.4-9.7,9.1-25.1-0.6-34.4c-9.7-9.3-25.1-9.1-34.5,0.6c-9.3,9.7-9.1,25.1,0.6,34.4&#10;&#9;&#9;&#9;&#9;&#9;&#9;C306.1,299,321.6,298.7,330.9,289.1z"/>
					<path style="fill:none;" d="M378.7,239.1c9.4-9.7,9.1-25.1-0.6-34.4c-9.7-9.4-25.1-9.1-34.5,0.6c-9.3,9.7-9.1,25.1,0.6,34.5&#10;&#9;&#9;&#9;&#9;&#9;&#9;C353.9,249.1,369.3,248.8,378.7,239.1z"/>
					<path style="opacity:0.3;fill:#160D3A;" d="M406.2,132.4l-0.1-0.2c-0.7,0.2-1.4,0.5-2.1,0.7c0,0,0,0-0.1,0&#10;&#9;&#9;&#9;&#9;&#9;&#9;c-1,0.3-2.1,0.7-3.1,1c0,0,0,0,0,0c-35.6,12.2-80.9,33.8-117,71.2c-16.5,17.1-29.6,36-40.1,54.9&#10;&#9;&#9;&#9;&#9;&#9;&#9;c-10.4,18.8-18.2,37.7-23.9,54.8c-3.1,9.3-5.6,18.1-7.7,26.1l-0.4,0.2c5,9.4,15.6,23.6,35,33.1c0.3,0.2,0.6,0.3,1,0.5&#10;&#9;&#9;&#9;&#9;&#9;&#9;c7.8-2.3,16.3-5.1,25.3-8.4c16.9-6.3,35.5-14.8,54-25.8c18.5-11.1,36.9-24.9,53.4-42c36.1-37.4,56.1-83.4,67.1-119.4&#10;&#9;&#9;&#9;&#9;&#9;&#9;c0,0,0,0,0,0c0.2-0.7,0.4-1.3,0.6-2c0.2-0.7,0.4-1.3,0.6-2c0-0.1,0.1-0.3,0.1-0.4c0.3-1.2,0.7-2.4,1-3.5&#10;&#9;&#9;&#9;&#9;&#9;&#9;C422.9,160.9,411,142.8,406.2,132.4z M343.6,205.3c9.3-9.7,24.8-10,34.5-0.6c9.7,9.3,10,24.8,0.6,34.4&#10;&#9;&#9;&#9;&#9;&#9;&#9;c-9.3,9.7-24.8,10-34.4,0.6C334.6,230.4,334.3,215,343.6,205.3z M295.8,255.2c9.3-9.7,24.8-10,34.5-0.6&#10;&#9;&#9;&#9;&#9;&#9;&#9;c9.7,9.3,10,24.8,0.6,34.4c-9.3,9.7-24.8,10-34.4,0.6C286.8,280.3,286.5,264.9,295.8,255.2z"/>
				</g>
				<path style="opacity:0.5;fill:#FFFFFF;" d="M373.3,209.7c6.9,6.7,7.1,17.7,0.4,24.6c-6.7,6.9-17.7,7.1-24.6,0.4&#10;&#9;&#9;&#9;&#9;&#9;c-6.9-6.7-7.1-17.7-0.4-24.6C355.3,203.2,366.3,203,373.3,209.7z"/>
				<path style="opacity:0.5;fill:#FFFFFF;" d="M325.5,259.6c6.9,6.7,7.1,17.7,0.4,24.6s-17.7,7.1-24.6,0.4&#10;&#9;&#9;&#9;&#9;&#9;c-6.9-6.7-7.1-17.7-0.4-24.6C307.5,253.1,318.5,252.9,325.5,259.6z"/>
				<path style="opacity:0.5;fill:#FFFFFF;" d="M214.6,403.3L214.6,403.3c-21,48.8-73.7,47.5-73.7,47.5c2.6-53,30.6-71,43.3-76.4&#10;&#9;&#9;&#9;&#9;&#9;c1.9,3.4,4.5,7.1,7.8,11l-0.6,0.5c-7.4,4.1-26.4,16.5-30.6,45c0,0,27.3-4.1,40.4-35.6l0.5-0.6&#10;&#9;&#9;&#9;&#9;&#9;C205.2,397.7,209.6,400.6,214.6,403.3z"/>
				<path style="opacity:0.75;fill:#FFFFFF;" d="M201.5,394.7l-0.5,0.6c-13.1,31.5-40.4,35.6-40.4,35.6c4.2-28.5,23.2-40.9,30.6-45&#10;&#9;&#9;&#9;&#9;&#9;l0.6-0.5C194.6,388.4,197.7,391.6,201.5,394.7z"/>
			</g>
		</g>
	</g>
</g>
</svg>