<svg xmlns="http://www.w3.org/2000/svg" viewBox="0 0 600 600"><g id="Change_colour"><path d="M480.003,272.46l-40.026-16.254c-3.794-26.835-15.175-51.233-31.917-71.002l.105-.07,7.901-18.656c1.358-3.202-1.845-6.438-5.047-5.081l-18.691,7.901c-19.804-17.054-44.342-28.714-71.386-32.682l-16.323-40.165c-1.601-3.899-7.1-3.899-8.666,0l-16.289,40.165c-27.044,3.967-51.582,15.593-71.351,32.577l-18.656-7.901c-3.202-1.357-6.438,1.88-5.081,5.047l7.936,18.795,.035,.035c-16.567,19.526-27.879,43.611-31.812,70.097l-40.793,16.567c-3.863,1.566-3.863,7.066,0,8.632l40.793,16.533c3.933,26.765,15.418,51.025,32.195,70.69v.035l-8.423,19.909c-1.357,3.167,1.88,6.404,5.081,5.047l19.805-8.353,.104-.139c19.317,16.324,43.124,27.496,69.263,31.499l16.567,40.792c1.601,3.898,7.066,3.898,8.666,0l16.463-40.617c26.661-3.794,50.885-15.036,70.55-31.569l19.943,8.423c3.202,1.358,6.404-1.879,5.047-5.047l-8.353-19.839h-.035c16.741-19.561,28.192-43.75,32.23-70.411l40.165-16.323c3.863-1.566,3.863-7.066,0-8.632Z" style="fill: rgb(68, 138, 255);"/></g><g id="Foreground"><ellipse cx="300" cy="481.554" rx="131.021" ry="11.146" style="fill:#231f20; opacity:.1;"/><path d="M480.003,272.46c3.863,1.566,3.863,7.065,0,8.632l-40.165,16.324c1.044-6.926,1.566-13.992,1.566-21.231,0-6.787-.487-13.435-1.427-19.978l40.026,16.254Z" style="fill:#fff; opacity:.4;"/><path d="M439.976,256.206c.94,6.543,1.427,13.191,1.427,19.978,0,7.239-.522,14.305-1.566,21.231-4.037,26.661-15.488,50.851-32.23,70.411-5.082,5.917-10.616,11.416-16.602,16.463-19.665,16.533-43.889,27.775-70.55,31.568-6.578,.975-13.33,1.462-20.187,1.462-7.309,0-14.479-.557-21.51-1.636-26.139-4.003-49.946-15.175-69.262-31.499-5.952-5.012-11.486-10.511-16.567-16.463v-.035c-16.776-19.665-28.262-43.924-32.195-70.69-1.009-6.787-1.566-13.713-1.566-20.814s.557-14.096,1.566-20.918c3.933-26.487,15.245-50.572,31.812-70.098,4.768-5.708,10.059-11.068,15.767-15.976,19.769-16.985,44.307-28.61,71.351-32.578,6.752-.975,13.609-1.531,20.605-1.531s13.922,.557,20.674,1.531c27.044,3.968,51.581,15.628,71.386,32.682,5.673,4.873,10.929,10.198,15.732,15.906,16.741,19.769,28.123,44.168,31.916,71.003Zm-17.925,19.978c0-67.139-54.644-121.749-121.784-121.749s-121.749,54.609-121.749,121.749,54.609,121.784,121.749,121.784,121.784-54.644,121.784-121.784Z" style="fill:#231f20; opacity:.03;"/><path d="M411.019,161.396c3.202-1.357,6.404,1.879,5.047,5.082l-7.901,18.656-.104,.07c-4.803-5.708-10.059-11.033-15.732-15.906l18.69-7.901Z" style="fill:#231f20; opacity:.3;"/><path d="M415.996,387.666c1.357,3.167-1.845,6.404-5.047,5.047l-19.943-8.423c5.987-5.047,11.521-10.546,16.602-16.463h.035l8.353,19.839Z" style="fill:#231f20; opacity:.3;"/><path d="M300.268,154.435c67.139,0,121.784,54.609,121.784,121.749s-54.644,121.784-121.784,121.784-121.749-54.644-121.749-121.784,54.609-121.749,121.749-121.749Zm108.488,121.749c0-59.795-48.658-108.453-108.488-108.453s-108.453,48.658-108.453,108.453,48.658,108.488,108.453,108.488,108.488-48.658,108.488-108.488Z" style="fill:#231f20; opacity:.3;"/><path d="M300.268,167.731c59.83,0,108.488,48.658,108.488,108.453s-48.658,108.488-108.488,108.488-108.453-48.658-108.453-108.488,48.658-108.453,108.453-108.453Zm55.132,35.327c.801-1.949-1.566-3.655-3.167-2.262l-71.594,62.649-35.78,86.944c-.87,2.088,1.705,3.933,3.411,2.436l70.794-61.849,3.968-9.537,32.369-78.381Z" style="fill:#fff; opacity:.75;"/><path d="M352.232,200.796c1.601-1.392,3.968,.313,3.167,2.262l-32.369,78.381-3.968,9.537-70.794,61.849c-1.705,1.497-4.281-.348-3.411-2.436l35.78-86.944,71.594-62.649Zm-42.567,82.837c3.759-5.256,2.541-12.53-2.715-16.324-5.256-3.759-12.6-2.541-16.358,2.715-3.724,5.256-2.506,12.53,2.68,16.324,5.29,3.759,12.6,2.541,16.393-2.715Z" style="fill:#231f20; opacity:.03;"/><path d="M304.619,96.45l16.324,40.165c-6.752-.975-13.644-1.531-20.674-1.531s-13.852,.557-20.605,1.531l16.289-40.165c1.566-3.898,7.065-3.898,8.667,0Z" style="fill:#fff; opacity:.4;"/><path d="M320.455,415.858l-16.463,40.618c-1.601,3.898-7.065,3.898-8.667,0l-16.567-40.792c7.031,1.079,14.201,1.636,21.51,1.636,6.857,0,13.609-.487,20.187-1.462Z" style="fill:#fff; opacity:.4;"/><path d="M306.951,267.309c5.256,3.794,6.474,11.068,2.715,16.324-3.794,5.256-11.103,6.474-16.393,2.715-5.186-3.794-6.404-11.068-2.68-16.324,3.759-5.256,11.103-6.474,16.358-2.715Z" style="fill:#231f20; opacity:.3;"/><path d="M209.496,384.185l-.104,.139-19.804,8.353c-3.202,1.357-6.439-1.879-5.082-5.047l8.423-19.909c5.082,5.952,10.616,11.451,16.567,16.463Z" style="fill:#231f20; opacity:.3;"/><path d="M189.657,161.292l18.656,7.901c-5.708,4.908-10.998,10.268-15.767,15.976l-.035-.035-7.936-18.795c-1.357-3.167,1.879-6.404,5.082-5.047Z" style="fill:#231f20; opacity:.3;"/><path d="M159.168,276.184c0,7.1,.557,14.027,1.566,20.814l-40.792-16.533c-3.863-1.566-3.863-7.065,0-8.632l40.792-16.567c-1.009,6.822-1.566,13.818-1.566,20.918Z" style="fill:#fff; opacity:.4;"/></g></svg>