<svg version="1.1" xmlns="http://www.w3.org/2000/svg" xmlns:xlink="http://www.w3.org/1999/xlink" x="0px" y="0px" viewBox="0 0 600 600" style="enable-background:new 0 0 600 600;" xml:space="preserve">
<g id="Change_colour">
	<path style="fill: rgb(31, 107, 239);" d="M476.1,198.1l-105.5-12.4c-12-24-39.1-40.9-70.6-40.9s-58.6,16.8-70.6,40.9l-105.5,12.4&#10;&#9;&#9;c-1.9,0.2-3.3,1.8-3.3,3.7v249.6c0,1.1,0.5,2.1,1.3,2.8c0.8,0.7,1.9,1,3,0.9L245.4,439h109.2l120.5,16.2c0.2,0,0.3,0,0.5,0&#10;&#9;&#9;c0.9,0,1.8-0.3,2.5-0.9c0.8-0.7,1.3-1.7,1.3-2.8V201.9C479.4,200,478,198.4,476.1,198.1z"/>
</g>
<g id="Foreground">
	<path style="opacity:0.7;fill:#FFFFFF;" d="M226.1,193.7l-98,11.5v242l111.7-15V288.4c-10.9-25.3-17-51.8-17-75.1&#10;&#9;&#9;C222.8,206.5,224,199.9,226.1,193.7z"/>
	<path style="opacity:0.7;fill:#FFFFFF;" d="M300,357.9c-16.8,0-36.6-24.8-49.6-48.1c-1-1.9-2.1-3.8-3.1-5.7v127.3h105V305.4&#10;&#9;&#9;C335.2,336.8,313.2,357.9,300,357.9z"/>
	<circle style="opacity:0.7;fill:#FFFFFF;" cx="300" cy="216.1" r="24.4"/>
	<path style="opacity:0.7;fill:#FFFFFF;" d="M377.2,213.3c0,27.3-7.1,54-17.3,76.9v141.9l112,15.1v-242l-98-11.5&#10;&#9;&#9;C376,199.9,377.2,206.5,377.2,213.3z"/>
	<path style="opacity:0.6;fill:#FFFFFF;" d="M202.9,216.5c0.1,3.7,0.3,7.5,0.6,11.4c1.8,20.7,7.4,42.7,16.3,64.5v122.2l-71.7,9.7&#10;&#9;&#9;V232.9V223L202.9,216.5"/>
	<path style="opacity:0.6;fill:#FFFFFF;" d="M397.1,216.5l54.7,6.5v10.6v190.7l-72-9.7V294.3c9.4-22.2,15.1-45.2,16.8-67.4&#10;&#9;&#9;C396.9,223.4,397.1,220,397.1,216.5"/>
</g>
</svg>