<svg xmlns="http://www.w3.org/2000/svg" viewBox="0 0 600 600"><g id="Change_colour"><path d="M420.613,230.105c0-61.567-32.332-100.272-85.403-111.557-10.767-2.303-22.393-3.47-34.765-3.47-66.383,0-120.183,35.948-120.183,120.784v252.334h.002v.142h240.349V230.105Z" style="fill: rgb(31, 107, 239);"/></g><g id="Foreground"><path d="M224.674,234.418v176.092h42.239v-38.51h40.683v-38.494h112.973v-16.232h.043v-87.169c0-61.567-32.332-100.272-85.403-111.557l-.032,.113c-61.389-2.189-110.504,44.396-110.504,115.757Zm70.502,66.74c-4.799,1.589-8.35,3.47-10.329,13.296-.114,.568-.632,.989-1.232,.989h-.032c-.616-.016-1.119-.47-1.2-1.054-1.378-9.745-5.756-11.448-10.394-13.247-.503-.211-.811-.681-.778-1.2s.405-.957,.924-1.086c4.119-1.07,8.561-3.454,10.248-13.166,.114-.584,.632-1.005,1.265-1.005,.633,.016,1.151,.47,1.216,1.07,1.135,9.81,7.524,12.42,10.232,13.085,.535,.146,.908,.6,.924,1.135,.032,.519-.308,1.005-.843,1.184Zm32.105-98.683c-11.123,3.681-19.344,8.042-23.901,30.581-.113,.567-.632,.973-1.216,.973h-.048c-.6-.016-1.119-.47-1.2-1.054-3.146-22.441-13.718-26.544-23.933-30.516-.503-.195-.827-.681-.795-1.2,.049-.519,.405-.957,.941-1.086,9.583-2.465,19.912-7.994,23.803-30.321,.097-.584,.681-.989,1.265-1.006,.616,.016,1.135,.487,1.2,1.087,2.627,22.603,17.512,28.684,23.787,30.24,.535,.13,.908,.584,.94,1.119,.016,.535-.324,1.022-.843,1.184Zm14.658,25.717c5.626-1.459,11.691-4.702,13.977-17.901,.114-.584,.6-.989,1.265-1.005,.632,.016,1.151,.487,1.216,1.07,1.557,13.345,10.28,16.912,13.961,17.836,.535,.13,.924,.584,.941,1.119,.016,.535-.324,1.006-.843,1.184-6.535,2.173-11.383,4.735-14.074,18.063-.114,.567-.633,.973-1.232,.973h-.032c-.616-.016-1.119-.454-1.2-1.038-1.865-13.248-7.816-15.566-14.123-18.015-.502-.194-.811-.681-.778-1.2,.032-.519,.405-.957,.924-1.086Z" style="fill:#231f20; opacity:.4;"/><path d="M341.793,230.478c6.308,2.448,12.258,4.767,14.123,18.015,.081,.584,.584,1.021,1.2,1.038h.032c.6,0,1.119-.405,1.232-.973,2.692-13.329,7.54-15.891,14.074-18.063,.519-.178,.859-.648,.843-1.184-.016-.535-.405-.989-.941-1.119-3.681-.924-12.404-4.492-13.961-17.836-.065-.584-.584-1.054-1.216-1.07-.665,.016-1.151,.422-1.265,1.005-2.287,13.199-8.351,16.442-13.977,17.901-.519,.13-.892,.567-.924,1.086-.032,.519,.276,1.006,.778,1.2Z" style="fill:#fff; opacity:.45;"/><path d="M327.183,200.173c-6.275-1.557-21.16-7.637-23.787-30.24-.065-.6-.584-1.07-1.2-1.087-.584,.016-1.167,.422-1.265,1.006-3.891,22.328-14.22,27.857-23.803,30.321-.535,.13-.892,.568-.941,1.086-.032,.519,.292,1.005,.795,1.2,10.215,3.973,20.787,8.075,23.933,30.516,.081,.584,.6,1.038,1.2,1.054h.048c.584,0,1.103-.405,1.216-.973,4.556-22.539,12.777-26.9,23.901-30.581,.519-.162,.859-.649,.843-1.184-.032-.535-.405-.989-.94-1.119Z" style="fill:#fff; opacity:.6;"/><path d="M295.094,298.84c-2.708-.665-9.097-3.275-10.232-13.085-.065-.6-.584-1.054-1.216-1.07-.633,0-1.151,.422-1.265,1.005-1.686,9.713-6.129,12.096-10.248,13.166-.519,.13-.891,.567-.924,1.086s.276,.989,.778,1.2c4.637,1.8,9.015,3.502,10.394,13.247,.081,.584,.584,1.038,1.2,1.054h.032c.6,0,1.119-.422,1.232-.989,1.978-9.826,5.529-11.707,10.329-13.296,.535-.178,.876-.665,.843-1.184-.016-.535-.389-.989-.924-1.135Z" style="fill:#fff; opacity:.25;"/><path d="M180.878,449.409h43.699v-38.899h.097V234.418c0-71.361,49.115-117.946,110.504-115.757l.032-.113c-10.767-2.303-22.393-3.47-34.765-3.47-66.383,0-120.183,35.948-120.183,120.784v252.334h.002v-38.786h.615Z" style="fill:#231f20; opacity:.05;"/><polygon points="266.913 372 266.913 410.51 420.569 410.51 420.569 372 307.596 372 266.913 372" style="fill:#fff; opacity:.45;"/><rect x="307.596" y="333.506" width="112.973" height="38.494" style="fill:#fff; opacity:.6;"/><polygon points="224.674 410.51 224.577 410.51 224.577 449.004 224.577 449.409 420.569 449.409 420.569 410.51 266.913 410.51 224.674 410.51" style="fill:#fff; opacity:.25;"/><path d="M420.613,488.195v-38.786H180.263v38.928h240.349v-.142Z" style="fill:#fff; opacity:.05;"/></g></svg>