<svg xmlns="http://www.w3.org/2000/svg" viewBox="0 0 600 600"><g id="Change_colour"><path d="M471.948,343.323h-25.874c1.469-.549,2.527-1.938,2.527-3.599v-80.67c0-2.034-1.585-3.655-3.58-3.811h27.464c.09,0,.162-.073,.162-.162v-12.258c0-.09-.072-.162-.162-.162h-21.294v-67.05h21.294c.09,0,.162-.054,.162-.144v-12.258c0-.108-.072-.162-.162-.162H168.467c-24.876,0-46.367,19.134-47.501,43.992-.018,.18-.018,.342-.018,.504-.019,.163-.019,.324-.019,.505v1.062c0,.414,0,.792,.037,1.188,.62,24.535,20.395,44.268,44.889,44.887h-43.088c-2.137,0-3.869,1.732-3.869,3.869v80.67c0,2.137,1.732,3.87,3.869,3.87h25.875c-1.47,.548-2.528,1.937-2.528,3.598v80.67c0,2.137,1.732,3.869,3.869,3.869H471.948c2.137,0,3.869-1.732,3.869-3.869v-80.67c0-2.137-1.732-3.869-3.869-3.869Z" style="fill: rgb(68, 138, 255);"/></g><g id="Foreground"><ellipse cx="300" cy="502.697" rx="175.653" ry="11.146" style="fill:#231f20; opacity:.1;"/><path d="M475.808,347.188v80.679c0,2.112-1.724,3.879-3.879,3.879H173.651v-.043h22.885v-88.091h248.199c.474,0,.905-.129,1.336-.302h25.859c2.155,0,3.879,1.767,3.879,3.879Z" style="fill:#231f20; opacity:.2;"/><rect x="366.556" y="175.617" width="84.644" height="67.06" style="fill:#fff; opacity:.75;"/><polygon points="302.211 275.301 302.211 285.602 316.692 275.301 352.075 275.301 366.556 285.602 366.556 275.301 421.936 275.301 421.936 323.485 145.551 323.485 145.551 275.301 302.211 275.301" style="fill:#fff; opacity:.55;"/><rect x="173.651" y="343.611" width="22.885" height="88.091" style="fill:#fff; opacity:.3;"/><path d="M173.651,431.703v.043h-23.661c-2.155,0-3.879-1.767-3.879-3.879v-80.679c0-1.638,1.077-3.06,2.543-3.577h24.997v88.091Z" style="fill:#231f20; opacity:.2;"/><g style="opacity:.1;"><path d="M445.037,255.261c-.129-.043-.216-.086-.302-.086h-78.179v.086h0v20.04h55.381v48.183H145.551v-48.183h156.659v-20.127H122.753c-2.112,0-3.835,1.724-3.835,3.879v80.679c0,2.112,1.723,3.879,3.835,3.879H444.735c.475,0,.906-.129,1.336-.301,1.466-.518,2.543-1.94,2.543-3.577v-80.679c0-2.025-1.595-3.664-3.577-3.793Z" style="fill:#fff;"/><polygon points="334.362 262.717 316.692 275.302 352.075 275.302 334.362 262.717" style="fill:#fff;"/></g><g style="opacity:.5;"><path d="M451.199,242.676h-84.643v12.498h78.179c.086,0,.173,.043,.302,.086h27.454c.086,0,.172-.086,.172-.172v-12.283c0-.086-.085-.129-.172-.129h-21.291Z" style="fill:#fff;"/><path d="M472.49,163.032H168.48c-24.867,0-46.373,19.135-47.494,44.002-.043,.173-.043,.345-.043,.518s0,.345,.043,.517c-.043,.345-.043,.69-.043,1.034,0,.431,0,.776,.043,1.207,.603,24.523,20.385,44.261,44.864,44.865h136.36v-12.498H167.014c-18.833,0-34.09-15.644-33.487-34.607,.043-.646,.086-1.336,.129-2.025,1.551-17.497,16.98-30.427,34.521-30.427H472.49c.086,0,.172-.043,.172-.129v-12.283c0-.086-.085-.173-.172-.173Z" style="fill:#fff;"/></g><polygon points="302.211 175.617 302.211 275.302 302.211 285.601 316.692 275.302 334.362 262.717 352.075 275.302 366.556 285.601 366.556 275.302 366.556 175.617 302.211 175.617" style="fill:#fff; opacity:.95;"/><path d="M120.943,207.552c0,.172,0,.345,.043,.517-.043,.345-.043,.69-.043,1.034v-1.552Z" style="fill:#ffe56a;"/><path d="M302.211,175.617v67.06H167.014c-18.834,0-34.09-15.644-33.487-34.607,.043-.646,.086-1.336,.129-2.026,1.552-17.498,16.98-30.427,34.521-30.427h134.034Z" style="fill:#fff; opacity:.75;"/></g></svg>