<svg version="1.1" xmlns="http://www.w3.org/2000/svg" xmlns:xlink="http://www.w3.org/1999/xlink" x="0px" y="0px" viewBox="0 0 600 500" style="enable-background:new 0 0 600 500;" xml:space="preserve">
<g id="Change_colour">
	<path style="fill: rgb(68, 138, 255);" d="M491.4,290.9h-10.1V143.3c0-12.3-8.7-22.7-20.2-25.2V99.5c0-10.1-8.2-18.3-18.3-18.3H309.9&#10;&#9;&#9;c-10.1,0-18.3,8.2-18.3,18.3v18H142.5c-14.3,0-25.8,11.6-25.8,25.8v78.4c-1.3-0.2-2.5-0.4-3.9-0.4l-41.6,0.3&#10;&#9;&#9;c-10.6,0.1-19.1,8.7-19,19.3l0.7,88c0.1,10.6,8.7,19.1,19.3,19l41.6-0.3c1,0,2-0.1,2.9-0.3v9.8c0,14.3,11.6,25.8,25.8,25.8h292&#10;&#9;&#9;c2.4,7.3,9.2,12.6,17.4,12.6h39.6c10.1,0,18.3-8.2,18.3-18.3v-68.3C509.7,299.1,501.5,290.9,491.4,290.9z"/>
</g>
<g id="Foreground">
	<polygon style="fill:none;" points="394,322.4 433.6,322.1 394,322.4 &#9;"/>
	<path style="fill:none;" d="M221,306.5c20.3-0.2,31.3-8.4,33.9-14.6l0.1-0.3l-13.6-6V272c-0.8,0.7-5.7,4.8-12.3,7.2&#10;&#9;&#9;c-1.8,0.6-4.8,1.1-7.9,1.1H221c-3.2,0-6.2-0.5-7.9-1.1c-7.3-2.6-12.4-7.3-12.4-7.3h-0.1v13.8l-12.9,5.7l0.1,0.2&#10;&#9;&#9;C189.8,297.7,201.3,306.7,221,306.5z"/>
	<path style="fill:none;" d="M216.8,274.2c1.9,0.2,6.4,0.2,8,0c1.7-0.1,3.5-0.4,4.8-1c4.9-2.3,8.8-5.2,11.8-8.1&#10;&#9;&#9;c4.1-3.9,6.4-7.7,7.5-10c0.8-1.8,1-4,1-4l0.2-4c1.4,1.3,4.1,1.9,6.8,0.1c4.9-3.4,6.1-12,4.4-16.3c-0.6-1.5-2.2-3.2-4.3-3&#10;&#9;&#9;c-0.8,0.1-1.8,0.4-2.8,1.2c-2.2,1.7-3.3,4.5-3.3,4.5l0.1-2.8c0,0,0.4-12.1,0.3-13c-0.2-3.8-1.1-8.5-4.5-10.8&#10;&#9;&#9;c-8.3-5.7-14.8,2.8-25.4,3.1c-9.8,0.2-17-8.8-25.2-3.4c-4.3,2.8-5,7.5-5.1,11.1c0,0.9,0.1,13,0.1,13l0.1,2.9h0c0,0-1.1-2.9-3.3-4.6&#10;&#9;&#9;c-0.7-0.6-1.5-0.9-2.1-1.1c-2.5-0.7-4.4,1.2-5,2.9c-1.7,4.3-0.5,12.9,4.4,16.3c2.7,1.9,5.4,1.2,6.8-0.1l0.2,4c0,0,0.2,2.1,1,4&#10;&#9;&#9;c1,2.3,3.4,6,7.3,9.9c3,2.9,6.9,5.8,11.9,8.2C213.7,273.7,215.3,274,216.8,274.2z"/>
	<path style="fill:none;" d="M121.8,345.9c-1,0.4-2,0.8-3,1.1C119.8,346.7,120.8,346.3,121.8,345.9z"/>
	<path style="fill:none;" d="M374.8,313.8l2.3,1.7c0,0,2-1.5,2.3-1.8c4-3,29.9-22.4,30.2-22.7c-7.7-4.1-12.7-8.5-14.5-16.4l-0.1,0&#10;&#9;&#9;c-19.8,11.3-35.2,1.4-37,0.1c-1.8,7.6-6.5,11.9-13.8,15.9l0.1,0.2L374.8,313.8z"/>
	<path style="fill:none;" d="M376.8,274.1c6.9,0,13-2.8,17.7-6.8c6.1-5.2,10-12.5,10.8-18.8c0.1-0.8,0.2-1.6,0.3-2.5l0.1,0&#10;&#9;&#9;c0.7,2.4,3.9,4.2,7.1,1.1c4.9-4.8,4.4-16.3,0.2-17.5c-0.3-0.1-0.6-0.1-0.8-0.2c-4.4-0.7-5.4,4.1-5.6,5.2c0.1-1.7,0.2-3.4,0.2-4.8&#10;&#9;&#9;l0.1-8.2h-60.4l0.5,9.2l0,0.6c0,1,0.1,2.2,0.2,3.3h0c0,0-0.7-6.3-5.7-5.4v0c-0.2,0-0.5,0.1-0.8,0.2c-4.1,1.2-4.6,12.7,0.2,17.5&#10;&#9;&#9;c3.2,3.1,6.4,1.4,7.1-1.1l0.1,0c0.1,0.8,0.2,1.7,0.3,2.5c0.8,6.3,4.7,13.6,10.7,18.8c4.7,4.1,10.8,6.8,17.7,6.8H376.8z"/>
	<path style="opacity:0.3;fill:#160D3A;" d="M452.8,154.3c-0.3,0.2-0.6,0.4-0.9,0.6c-0.6,0.4-1.3,0.7-1.9,1c-1,0.4-2,0.8-3.1,1&#10;&#9;&#9;v113.7v21.2c0.8-0.2,1.6-0.4,2.4-0.5c0.8-0.1,1.7-0.2,2.5-0.2h2.7V153C454,153.5,453.4,153.9,452.8,154.3z"/>
	<path style="opacity:0.3;fill:#FFFFFF;" d="M409.7,291c-0.4,0.3-26.2,19.7-30.2,22.7v34.8h39.6L394,322.4l39.6-0.3v-12.9&#10;&#9;&#9;c0-0.5,0-1.1,0.1-1.6c0.1-1.1,0.3-2.1,0.6-3.1c0.1-0.5,0.3-1,0.5-1.5c-2.1-1.3-4.3-2.4-6.6-3.5C420.9,296.3,414.7,293.7,409.7,291z&#10;&#9;&#9;"/>
	<polygon style="opacity:0.75;fill:#FFFFFF;" points="419.1,348.6 394,322.4 394,322.4 &#9;"/>
	<polygon style="opacity:0.3;fill:#FFFFFF;" points="419.1,348.6 394,322.4 394,322.4 &#9;"/>
	<path style="opacity:0.75;fill:none;stroke:#FFFFFF;stroke-width:0;stroke-linecap:round;stroke-linejoin:round;" d="M433.6,307.6&#10;&#9;&#9;c0.1-1.1,0.3-2.1,0.6-3.1"/>
	<path style="opacity:0.3;fill:none;stroke:#FFFFFF;stroke-width:0;stroke-linecap:round;stroke-linejoin:round;" d="M433.6,307.6&#10;&#9;&#9;c0.1-1.1,0.3-2.1,0.6-3.1"/>
	<path style="opacity:0.75;fill:none;stroke:#FFFFFF;stroke-width:0;stroke-linecap:round;stroke-linejoin:round;" d="M433.6,307.6&#10;&#9;&#9;c0.1-1.1,0.3-2.1,0.6-3.1"/>
	<path style="opacity:0.3;fill:none;stroke:#FFFFFF;stroke-width:0;stroke-linecap:round;stroke-linejoin:round;" d="M433.6,307.6&#10;&#9;&#9;c0.1-1.1,0.3-2.1,0.6-3.1"/>
	<path style="opacity:0.5;fill:#160D3A;" d="M347,234.8L347,234.8c0-1.2-0.1-2.3-0.1-3.3l0-0.6l-0.5-9.2h60.4l-0.1,8.2&#10;&#9;&#9;c-0.1,1.4-0.1,3.1-0.2,4.8c0.2-1.1,1.2-5.9,5.6-5.2c0.6-2.2,1.1-6,1-8.8c-0.3-7.3-1.7-13.2-3.9-17.9c5.4-3,9.1-8.8,9.1-15.5&#10;&#9;&#9;c0-9.8-7.9-17.7-17.7-17.7c-7.4,0-13.8,4.6-16.4,11.1c-7.8-1.7-16.6-0.3-24.9,4.4c-8.9,5.1-18.1,14.5-18.9,34.7&#10;&#9;&#9;c-0.1,2.9,0,6.7,0.8,9.7C346.2,228.6,347,234.8,347,234.8z"/>
	<path style="opacity:0.1;fill:#160D3A;" d="M395.1,274.7L395.1,274.7c-0.4-2.2-0.7-4.6-0.7-7.3l0,0c-4.7,4.1-10.8,6.8-17.7,6.8&#10;&#9;&#9;h-0.2c-6.9,0-13-2.8-17.7-6.8l0,0c0,2.8-0.3,5.2-0.8,7.4C359.9,276.1,375.4,286,395.1,274.7z"/>
	<path style="opacity:0.3;fill:#160D3A;" d="M374.8,348.6h-68v-35.7V157c-0.4-0.1-0.9-0.2-1.3-0.3c-0.8-0.2-1.7-0.5-2.5-0.8&#10;&#9;&#9;s-1.6-0.7-2.3-1.1c-1.5-0.8-2.8-1.9-4-3.1c-1.8-1.8-3.2-4-4.1-6.4c-0.2-0.4-0.3-0.8-0.4-1.2h-1.2H143.4v109.7h7.8v-102h140v156.6&#10;&#9;&#9;v40.1h-140v-40.4v-30.3l-7.8,8.2v35v35.3h147.8h15.7h119.7l-0.5-0.5l-7-7.3h-39.6H374.8z"/>
	<path style="opacity:0.2;fill:#160D3A;" d="M374.8,313.8v34.8h4.6v-34.8c-0.3,0.2-2.3,1.8-2.3,1.8L374.8,313.8z"/>
	<path style="opacity:0.3;fill:#FFFFFF;" d="M374.8,348.6v-34.8l-30.5-22.9l-0.1-0.2c-5.1,2.8-11.5,5.4-19,8.9&#10;&#9;&#9;c-7.4,3.4-13.5,8.2-18.4,13.3v35.7H374.8z"/>
	<polygon style="opacity:0.75;fill:#FFFFFF;" points="426.5,356.4 426,355.9 426.5,356.4 &#9;"/>
	<polygon style="opacity:0.3;fill:#160D3A;" points="426.5,356.4 426,355.9 426.5,356.4 &#9;"/>
	
		<line style="opacity:0.75;fill:none;stroke:#FFFFFF;stroke-width:0;stroke-linecap:round;stroke-linejoin:round;" x1="426" y1="355.9" x2="419.1" y2="348.6"/>
	
		<line style="opacity:0.3;fill:none;stroke:#160D3A;stroke-width:0;stroke-linecap:round;stroke-linejoin:round;" x1="426" y1="355.9" x2="419.1" y2="348.6"/>
	
		<line style="opacity:0.75;fill:none;stroke:#FFFFFF;stroke-width:0;stroke-linecap:round;stroke-linejoin:round;" x1="426" y1="355.9" x2="419.1" y2="348.6"/>
	
		<line style="opacity:0.3;fill:none;stroke:#160D3A;stroke-width:0;stroke-linecap:round;stroke-linejoin:round;" x1="426" y1="355.9" x2="419.1" y2="348.6"/>
	<path style="opacity:0.2;fill:#160D3A;" d="M446.9,156.8c-1.3,0.3-2.7,0.5-4.1,0.5h-78.4l-4.2,4l-37.2,35.6l-0.3-39.6h-12.9&#10;&#9;&#9;c-1,0-2-0.1-3-0.3v155.8c4.9-5.1,11-9.9,18.4-13.3c7.5-3.4,13.9-6.1,19-8.9c7.3-4,12-8.3,13.8-15.9c0.5-2.2,0.8-4.6,0.8-7.4l0,0&#10;&#9;&#9;c-6-5.2-9.9-12.5-10.7-18.8c-0.1-0.8-0.2-1.6-0.3-2.5l-0.1,0c-0.7,2.4-3.9,4.2-7.1,1.1c-4.9-4.8-4.4-16.3-0.2-17.5&#10;&#9;&#9;c0.3-0.1,0.5-0.1,0.8-0.2v0c-0.8-3-0.9-6.8-0.8-9.7c0.7-20.2,10-29.6,18.9-34.7c8.3-4.8,17.1-6.2,24.9-4.4&#10;&#9;&#9;c2.6-6.5,9-11.1,16.4-11.1c9.8,0,17.7,7.9,17.7,17.7c0,6.7-3.7,12.4-9.1,15.5c2.1,4.8,3.6,10.6,3.9,17.9c0.1,2.8-0.4,6.7-1,8.8&#10;&#9;&#9;c0.3,0,0.5,0.1,0.8,0.2c4.1,1.2,4.6,12.7-0.2,17.5c-3.2,3.1-6.4,1.4-7.1-1.1l-0.1,0c-0.1,0.8-0.2,1.7-0.3,2.5&#10;&#9;&#9;c-0.8,6.4-4.7,13.7-10.8,18.8l0,0c0,2.7,0.2,5.1,0.7,7.3c1.8,7.9,6.8,12.3,14.5,16.4c5,2.7,11.2,5.2,18.4,8.5&#10;&#9;&#9;c2.3,1.1,4.5,2.2,6.6,3.5c0.2-0.7,0.5-1.4,0.9-2c0.3-0.6,0.7-1.3,1.1-1.9c0.6-0.9,1.3-1.8,2-2.5c0.5-0.5,1-1,1.6-1.5&#10;&#9;&#9;c1.7-1.4,3.6-2.5,5.6-3.2c0.3-0.1,0.7-0.2,1.1-0.3v-21.2V156.8z"/>
	<path style="opacity:0.75;fill:none;stroke:#FFFFFF;stroke-width:0;stroke-linecap:round;stroke-linejoin:round;" d="M440.2,295.2&#10;&#9;&#9;c-0.6,0.5-1.1,1-1.6,1.5"/>
	<path style="opacity:0.2;fill:none;stroke:#160D3A;stroke-width:0;stroke-linecap:round;stroke-linejoin:round;" d="M440.2,295.2&#10;&#9;&#9;c-0.6,0.5-1.1,1-1.6,1.5"/>
	<path style="opacity:0.75;fill:none;stroke:#FFFFFF;stroke-width:0;stroke-linecap:round;stroke-linejoin:round;" d="M440.2,295.2&#10;&#9;&#9;c-0.6,0.5-1.1,1-1.6,1.5"/>
	<path style="opacity:0.2;fill:none;stroke:#160D3A;stroke-width:0;stroke-linecap:round;stroke-linejoin:round;" d="M440.2,295.2&#10;&#9;&#9;c-0.6,0.5-1.1,1-1.6,1.5"/>
	<path style="opacity:0.75;fill:none;stroke:#FFFFFF;stroke-width:0;stroke-linecap:round;stroke-linejoin:round;" d="M436.6,299.2&#10;&#9;&#9;c-0.4,0.6-0.8,1.2-1.1,1.9"/>
	<path style="opacity:0.2;fill:none;stroke:#160D3A;stroke-width:0;stroke-linecap:round;stroke-linejoin:round;" d="M436.6,299.2&#10;&#9;&#9;c-0.4,0.6-0.8,1.2-1.1,1.9"/>
	<path style="opacity:0.75;fill:none;stroke:#FFFFFF;stroke-width:0;stroke-linecap:round;stroke-linejoin:round;" d="M436.6,299.2&#10;&#9;&#9;c-0.4,0.6-0.8,1.2-1.1,1.9"/>
	<path style="opacity:0.2;fill:none;stroke:#160D3A;stroke-width:0;stroke-linecap:round;stroke-linejoin:round;" d="M436.6,299.2&#10;&#9;&#9;c-0.4,0.6-0.8,1.2-1.1,1.9"/>
	<path style="opacity:0.75;fill:#FFFFFF;" d="M458.4,148.6c0.5-0.8,1-1.7,1.3-2.6C459.3,146.9,458.9,147.8,458.4,148.6z"/>
	<path style="fill:none;stroke:#00CBC3;stroke-width:0;stroke-linecap:round;stroke-linejoin:round;" d="M460.8,142.1&#10;&#9;&#9;c-0.2,1-0.4,2-0.8,2.9"/>
	<path style="opacity:0.75;fill:none;stroke:#FFFFFF;stroke-width:0;stroke-linecap:round;stroke-linejoin:round;" d="M460.8,142.1&#10;&#9;&#9;c-0.2,1-0.4,2-0.8,2.9"/>
	<path style="fill:none;stroke:#00CBC3;stroke-width:0;stroke-linecap:round;stroke-linejoin:round;" d="M461,140.1&#10;&#9;&#9;c0,0.7-0.1,1.4-0.2,2"/>
	<path style="opacity:0.75;fill:none;stroke:#FFFFFF;stroke-width:0;stroke-linecap:round;stroke-linejoin:round;" d="M461,140.1&#10;&#9;&#9;c0,0.7-0.1,1.4-0.2,2"/>
	<path style="opacity:0.3;fill:none;stroke:#160D3A;stroke-width:0;stroke-linecap:round;stroke-linejoin:round;" d="M451.9,154.8&#10;&#9;&#9;c-0.6,0.4-1.3,0.7-1.9,1"/>
	<path style="opacity:0.75;fill:none;stroke:#FFFFFF;stroke-width:0;stroke-linecap:round;stroke-linejoin:round;" d="M451.9,154.8&#10;&#9;&#9;c-0.6,0.4-1.3,0.7-1.9,1"/>
	<path style="opacity:0.3;fill:none;stroke:#160D3A;stroke-width:0;stroke-linecap:round;stroke-linejoin:round;" d="M451.9,154.8&#10;&#9;&#9;c-0.6,0.4-1.3,0.7-1.9,1"/>
	<path style="opacity:0.75;fill:none;stroke:#FFFFFF;stroke-width:0;stroke-linecap:round;stroke-linejoin:round;" d="M451.9,154.8&#10;&#9;&#9;c-0.6,0.4-1.3,0.7-1.9,1"/>
	<polyline style="opacity:0.2;fill:none;stroke:#160D3A;stroke-width:0;stroke-linecap:round;stroke-linejoin:round;" points="&#10;&#9;&#9;322.8,157.3 323.1,196.9 360.2,161.3 &#9;"/>
	<polyline style="opacity:0.75;fill:none;stroke:#FFFFFF;stroke-width:0;stroke-linecap:round;stroke-linejoin:round;" points="&#10;&#9;&#9;322.8,157.3 323.1,196.9 360.2,161.3 &#9;"/>
	<polyline style="opacity:0.2;fill:none;stroke:#160D3A;stroke-width:0;stroke-linecap:round;stroke-linejoin:round;" points="&#10;&#9;&#9;322.8,157.3 323.1,196.9 360.2,161.3 &#9;"/>
	<polyline style="opacity:0.75;fill:none;stroke:#FFFFFF;stroke-width:0;stroke-linecap:round;stroke-linejoin:round;" points="&#10;&#9;&#9;322.8,157.3 323.1,196.9 360.2,161.3 &#9;"/>
	<path style="opacity:0.3;fill:none;stroke:#160D3A;stroke-width:0;stroke-linecap:round;stroke-linejoin:round;" d="M305.6,156.8&#10;&#9;&#9;c-0.8-0.2-1.7-0.5-2.5-0.8"/>
	<path style="opacity:0.75;fill:none;stroke:#FFFFFF;stroke-width:0;stroke-linecap:round;stroke-linejoin:round;" d="M305.6,156.8&#10;&#9;&#9;c-0.8-0.2-1.7-0.5-2.5-0.8"/>
	<path style="opacity:0.75;fill:none;stroke:#FFFFFF;stroke-width:0;stroke-linecap:round;stroke-linejoin:round;" d="M305.6,156.8&#10;&#9;&#9;c-0.8-0.2-1.7-0.5-2.5-0.8"/>
	<path style="opacity:0.3;fill:none;stroke:#160D3A;stroke-width:0;stroke-linecap:round;stroke-linejoin:round;" d="M305.6,156.8&#10;&#9;&#9;c-0.8-0.2-1.7-0.5-2.5-0.8"/>
	<path style="opacity:0.3;fill:none;stroke:#160D3A;stroke-width:0;stroke-linecap:round;stroke-linejoin:round;" d="M300.8,154.9&#10;&#9;&#9;c-1.5-0.8-2.8-1.9-4-3.1"/>
	<path style="opacity:0.75;fill:none;stroke:#FFFFFF;stroke-width:0;stroke-linecap:round;stroke-linejoin:round;" d="M300.8,154.9&#10;&#9;&#9;c-1.5-0.8-2.8-1.9-4-3.1"/>
	<path style="opacity:0.75;fill:none;stroke:#FFFFFF;stroke-width:0;stroke-linecap:round;stroke-linejoin:round;" d="M300.8,154.9&#10;&#9;&#9;c-1.5-0.8-2.8-1.9-4-3.1"/>
	<path style="opacity:0.3;fill:none;stroke:#160D3A;stroke-width:0;stroke-linecap:round;stroke-linejoin:round;" d="M300.8,154.9&#10;&#9;&#9;c-1.5-0.8-2.8-1.9-4-3.1"/>
	<path style="opacity:0.5;fill:#160D3A;" d="M255,291.6l-0.1,0.3c-2.6,6.2-13.6,14.4-33.9,14.6c-19.6,0.2-31.1-8.8-33.2-14.9&#10;&#9;&#9;l-0.1-0.2l-27,11.8c0,0-4.3,1.5-9.5,5.1v40.4h140v-40.1c-5.4-3.8-9.8-5.3-9.8-5.3L255,291.6z"/>
	<path style="opacity:0.1;fill:#160D3A;" d="M213,279.2c1.8,0.6,4.8,1.1,7.9,1.1h0.2c3.2,0,6.2-0.5,7.9-1.1&#10;&#9;&#9;c6.7-2.4,11.5-6.5,12.3-7.2v-6.8c-3,2.9-6.9,5.7-11.8,8.1c-1.3,0.6-3.1,0.9-4.8,1c-1.7,0.1-6.2,0.1-8,0c-1.5-0.1-3.2-0.4-4.3-0.9&#10;&#9;&#9;c-5-2.3-8.9-5.3-11.9-8.2l0,0.1v6.8h0.1C200.6,271.9,205.8,276.5,213,279.2z"/>
	<path style="opacity:0.3;fill:#FFFFFF;" d="M191.3,233.9L191.3,233.9l-0.1-2.9c0,0-0.1-12.1-0.1-13c0.1-3.7,0.9-8.3,5.1-11.1&#10;&#9;&#9;c8.2-5.4,15.3,3.6,25.2,3.4c10.5-0.2,17.1-8.8,25.4-3.1c3.4,2.4,4.3,7.1,4.5,10.8c0,0.9-0.3,13-0.3,13l-0.1,2.8&#10;&#9;&#9;c0,0,1.1-2.8,3.3-4.5c1-0.8,2-1.1,2.8-1.2l0-0.2c0,0-0.9-14,5.1-36.5c0,0-10.4-5.6-40.4-5.6s-40.6,5.6-40.6,5.6&#10;&#9;&#9;c6,22.5,5,36.5,5,36.5l-0.1,0.3c0.7,0.2,1.4,0.5,2.1,1.1C190.2,231,191.3,233.9,191.3,233.9z"/>
	<path style="opacity:0.2;fill:#160D3A;" d="M160.6,303.2l27-11.8l12.9-5.7v-13.8v-6.8l0-0.1c-4-3.8-6.3-7.6-7.3-9.9&#10;&#9;&#9;c-0.8-1.8-1-4-1-4l-0.2-4c-1.4,1.3-4.1,1.9-6.8,0.1c-4.9-3.4-6.1-12-4.4-16.3c0.7-1.6,2.5-3.5,5-2.9l0.1-0.3c0,0,0.9-14-5-36.5&#10;&#9;&#9;c0,0,10.6-5.6,40.6-5.6s40.4,5.6,40.4,5.6c-6,22.5-5.1,36.5-5.1,36.5l0,0.2c2.2-0.2,3.8,1.5,4.3,3c1.7,4.3,0.5,12.9-4.4,16.3&#10;&#9;&#9;c-2.7,1.9-5.3,1.2-6.8-0.1l-0.2,4c0,0-0.2,2.1-1,4c-1.1,2.3-3.4,6.1-7.5,10v6.8v13.7l13.6,6l26.3,11.5c0,0,4.5,1.6,9.8,5.3V151.9&#10;&#9;&#9;h-140v102l22.6,0l-22.6,24v30.3C156.3,304.6,160.6,303.2,160.6,303.2z"/>
	<path style="fill:none;stroke:#00CBC3;stroke-width:0;stroke-linecap:round;stroke-linejoin:round;" d="M119.8,222.6&#10;&#9;&#9;c1,0.4,2,0.9,2.9,1.4"/>
	<path style="opacity:0.75;fill:none;stroke:#FFFFFF;stroke-width:0;stroke-linecap:round;stroke-linejoin:round;" d="M119.8,222.6&#10;&#9;&#9;c1,0.4,2,0.9,2.9,1.4"/>
	<path style="fill:none;stroke:#00CBC3;stroke-width:0;stroke-linecap:round;stroke-linejoin:round;" d="M119.8,222.6&#10;&#9;&#9;c-1-0.4-2.1-0.7-3.2-0.9"/>
	<path style="opacity:0.75;fill:none;stroke:#FFFFFF;stroke-width:0;stroke-linecap:round;stroke-linejoin:round;" d="M119.8,222.6&#10;&#9;&#9;c-1-0.4-2.1-0.7-3.2-0.9"/>
	
		<line style="fill:none;stroke:#00CBC3;stroke-width:0;stroke-linecap:round;stroke-linejoin:round;" x1="143.4" y1="286.1" x2="140" y2="289.7"/>
	
		<line style="opacity:0.75;fill:none;stroke:#FFFFFF;stroke-width:0;stroke-linecap:round;stroke-linejoin:round;" x1="143.4" y1="286.1" x2="140" y2="289.7"/>
	
		<line style="opacity:0.3;fill:none;stroke:#160D3A;stroke-width:0;stroke-linecap:round;stroke-linejoin:round;" x1="143.4" y1="286.1" x2="151.2" y2="277.9"/>
	
		<line style="opacity:0.75;fill:none;stroke:#FFFFFF;stroke-width:0;stroke-linecap:round;stroke-linejoin:round;" x1="143.4" y1="286.1" x2="151.2" y2="277.9"/>
	
		<line style="opacity:0.3;fill:none;stroke:#160D3A;stroke-width:0;stroke-linecap:round;stroke-linejoin:round;" x1="143.4" y1="286.1" x2="151.2" y2="277.9"/>
	
		<line style="opacity:0.75;fill:none;stroke:#FFFFFF;stroke-width:0;stroke-linecap:round;stroke-linejoin:round;" x1="143.4" y1="286.1" x2="151.2" y2="277.9"/>
	<path style="opacity:0.75;fill:#FFFFFF;" d="M151.2,253.9h-7.8l-7.9,0h-3.3l-0.1-13.5c0-1.2-0.1-2.3-0.3-3.4&#10;&#9;&#9;c-0.4-2.2-1.2-4.3-2.3-6.1c-1.6-2.8-4-5.1-6.7-6.8c-0.9-0.6-1.9-1-2.9-1.4c-1-0.4-2.1-0.7-3.2-0.9c-1.3-0.2-2.5-0.4-3.9-0.4&#10;&#9;&#9;l-41.6,0.3c-10.6,0.1-19.1,8.7-19,19.3l0.7,88c0.1,10.6,8.7,19.1,19.3,19l41.6-0.3c1,0,2-0.1,2.9-0.3c0.7-0.1,1.4-0.3,2.1-0.5&#10;&#9;&#9;c1-0.3,2-0.7,3-1.1c1-0.4,1.9-1,2.7-1.6c1.8-1.3,3.4-2.8,4.7-4.7c0.6-0.9,1.2-1.9,1.7-2.9c1.2-2.5,1.9-5.4,1.9-8.4l-0.2-30.8&#10;&#9;&#9;l2.9-3.1l1.2-1.3l3.4-3.6l3.4-3.6l7.8-8.2l22.6-24L151.2,253.9z M108,318.2H77c-0.8,0-1.5-0.7-1.5-1.5s0.7-1.5,1.5-1.5H108&#10;&#9;&#9;c0.8,0,1.5,0.7,1.5,1.5S108.8,318.2,108,318.2z M109.5,296.3c0,0.8-0.7,1.5-1.5,1.5H77c-0.8,0-1.5-0.7-1.5-1.5v-40.8&#10;&#9;&#9;c0-0.8,0.7-1.5,1.5-1.5H108c0.8,0,1.5,0.7,1.5,1.5V296.3z"/>
	<path style="opacity:0.9;fill:#FFFFFF;" d="M108,315.2H77c-0.8,0-1.5,0.7-1.5,1.5s0.7,1.5,1.5,1.5H108c0.8,0,1.5-0.7,1.5-1.5&#10;&#9;&#9;S108.8,315.2,108,315.2z"/>
	<path style="opacity:0.45;fill:#FFFFFF;" d="M108,254H77c-0.8,0-1.5,0.7-1.5,1.5v40.8c0,0.8,0.7,1.5,1.5,1.5H108&#10;&#9;&#9;c0.8,0,1.5-0.7,1.5-1.5v-40.8C109.5,254.7,108.8,254,108,254z"/>
	<path style="opacity:0.75;fill:#FFFFFF;" d="M491.4,290.9h-10.1h-18.8h-8h-2.7c-0.9,0-1.7,0.1-2.5,0.2c-0.8,0.1-1.6,0.3-2.4,0.5&#10;&#9;&#9;c-0.4,0.1-0.7,0.2-1.1,0.3c-2.1,0.7-4,1.8-5.6,3.2c-0.6,0.5-1.1,1-1.6,1.5c-0.7,0.8-1.4,1.6-2,2.5c-0.4,0.6-0.8,1.2-1.1,1.9&#10;&#9;&#9;c-0.3,0.6-0.6,1.3-0.9,2c-0.2,0.5-0.3,1-0.5,1.5c-0.3,1-0.5,2-0.6,3.1c0,0.5-0.1,1.1-0.1,1.6v12.9l-39.6,0.3l25.1,26.2l7,7.3&#10;&#9;&#9;l0.5,0.5l3,3.2l4,4.2v0.5v13.2c0,1,0.1,2,0.2,2.9c0.2,0.9,0.4,1.9,0.7,2.8c2.4,7.3,9.2,12.6,17.4,12.6h39.6&#10;&#9;&#9;c10.1,0,18.3-8.2,18.3-18.3v-68.3C509.7,299.1,501.5,290.9,491.4,290.9z M489.1,364.7H458c-0.8,0-1.5-0.7-1.5-1.5s0.7-1.5,1.5-1.5&#10;&#9;&#9;h31.1c0.8,0,1.5,0.7,1.5,1.5S489.9,364.7,489.1,364.7z M489.1,344.3H458c-0.8,0-1.5-0.7-1.5-1.5s0.7-1.5,1.5-1.5h31.1&#10;&#9;&#9;c0.8,0,1.5,0.7,1.5,1.5S489.9,344.3,489.1,344.3z M489.1,323.9H458c-0.8,0-1.5-0.7-1.5-1.5s0.7-1.5,1.5-1.5h31.1&#10;&#9;&#9;c0.8,0,1.5,0.7,1.5,1.5S489.9,323.9,489.1,323.9z"/>
	<path style="opacity:0.9;fill:#FFFFFF;" d="M489.1,320.9H458c-0.8,0-1.5,0.7-1.5,1.5s0.7,1.5,1.5,1.5h31.1c0.8,0,1.5-0.7,1.5-1.5&#10;&#9;&#9;S489.9,320.9,489.1,320.9z"/>
	<path style="opacity:0.9;fill:#FFFFFF;" d="M489.1,341.3H458c-0.8,0-1.5,0.7-1.5,1.5s0.7,1.5,1.5,1.5h31.1c0.8,0,1.5-0.7,1.5-1.5&#10;&#9;&#9;S489.9,341.3,489.1,341.3z"/>
	<path style="opacity:0.9;fill:#FFFFFF;" d="M489.1,361.7H458c-0.8,0-1.5,0.7-1.5,1.5s0.7,1.5,1.5,1.5h31.1c0.8,0,1.5-0.7,1.5-1.5&#10;&#9;&#9;S489.9,361.7,489.1,361.7z"/>
	<path style="opacity:0.75;fill:#FFFFFF;" d="M442.8,81.2H309.9c-10.1,0-18.3,8.2-18.3,18.3v18v18.7v2.8c0,0.9,0.1,1.8,0.2,2.7&#10;&#9;&#9;c0.1,0.4,0.1,0.9,0.2,1.3c0.1,0.4,0.2,0.8,0.3,1.3c0.1,0.4,0.3,0.8,0.4,1.2c0.9,2.4,2.3,4.6,4.1,6.4c1.2,1.2,2.5,2.2,4,3.1&#10;&#9;&#9;c0.7,0.4,1.5,0.8,2.3,1.1s1.6,0.6,2.5,0.8c0.4,0.1,0.8,0.2,1.3,0.3c1,0.2,2,0.3,3,0.3h12.9l0.3,39.6l37.2-35.6l4.2-4h78.4&#10;&#9;&#9;c1.4,0,2.8-0.2,4.1-0.5c1.1-0.2,2.1-0.6,3.1-1c0.7-0.3,1.3-0.6,1.9-1c0.3-0.2,0.6-0.4,0.9-0.6c0.6-0.4,1.2-0.8,1.7-1.3&#10;&#9;&#9;c0.2-0.2,0.5-0.4,0.7-0.6c0.5-0.4,0.9-0.9,1.3-1.4c0.4-0.5,0.8-1,1.2-1.5c0.2-0.3,0.4-0.5,0.5-0.8c0.5-0.8,1-1.7,1.3-2.6&#10;&#9;&#9;c0.1-0.3,0.2-0.6,0.4-0.9c0.3-0.9,0.6-1.9,0.8-2.9c0.1-0.7,0.2-1.3,0.2-2c0-0.3,0-0.7,0-1v-2.8v-18.1V99.5&#10;&#9;&#9;C461.1,89.4,452.9,81.2,442.8,81.2z M394.4,129.1c0,0.8-0.7,1.5-1.5,1.5h-76.4c-0.8,0-1.5-0.7-1.5-1.5v-20.6c0-0.8,0.7-1.5,1.5-1.5&#10;&#9;&#9;h76.4c0.8,0,1.5,0.7,1.5,1.5V129.1z M435.2,130.7h-24.9c-0.8,0-1.5-0.7-1.5-1.5s0.7-1.5,1.5-1.5h24.9c0.8,0,1.5,0.7,1.5,1.5&#10;&#9;&#9;S436.1,130.7,435.2,130.7z M435.2,110.3h-24.9c-0.8,0-1.5-0.7-1.5-1.5s0.7-1.5,1.5-1.5h24.9c0.8,0,1.5,0.7,1.5,1.5&#10;&#9;&#9;S436.1,110.3,435.2,110.3z"/>
	<path style="opacity:0.9;fill:#FFFFFF;" d="M435.2,127.7h-24.9c-0.8,0-1.5,0.7-1.5,1.5s0.7,1.5,1.5,1.5h24.9c0.8,0,1.5-0.7,1.5-1.5&#10;&#9;&#9;S436.1,127.7,435.2,127.7z"/>
	<path style="opacity:0.9;fill:#FFFFFF;" d="M435.2,107.3h-24.9c-0.8,0-1.5,0.7-1.5,1.5s0.7,1.5,1.5,1.5h24.9c0.8,0,1.5-0.7,1.5-1.5&#10;&#9;&#9;S436.1,107.3,435.2,107.3z"/>
	<path style="opacity:0.45;fill:#FFFFFF;" d="M392.9,107h-76.4c-0.8,0-1.5,0.7-1.5,1.5v20.6c0,0.8,0.7,1.5,1.5,1.5h76.4&#10;&#9;&#9;c0.8,0,1.5-0.7,1.5-1.5v-20.6C394.4,107.6,393.7,107,392.9,107z"/>
</g>
</svg>