<svg version="1.1" xmlns="http://www.w3.org/2000/svg" xmlns:xlink="http://www.w3.org/1999/xlink" x="0px" y="0px" viewBox="0 0 600 600" style="enable-background:new 0 0 600 600;" xml:space="preserve">
<g id="Change_colour">
	<path style="fill: rgb(31, 107, 239);" d="M455.3,197.6c0-3.3-2.7-6-6-6c-3.3,0-6,2.7-6,6c0,3.3,2.7,6,6,6&#10;&#9;&#9;C452.6,203.6,455.3,200.9,455.3,197.6z"/>
	<path style="fill: rgb(31, 107, 239);" d="M441,313.6c-2.5,0-4.4,2-4.4,4.4c0,2.5,2,4.4,4.4,4.4s4.4-2,4.4-4.4&#10;&#9;&#9;C445.4,315.6,443.5,313.6,441,313.6z"/>
	<path style="fill: rgb(31, 107, 239);" d="M172.6,348.2c-0.2,0.1-0.4,0.2-0.5,0.4c-2.6,2.6,1.3,10.7,8.7,18.1c7.4,7.4,15.5,11.3,18,8.7&#10;&#9;&#9;c0.2-0.2,0.4-0.5,0.5-0.9L314,259.2l1.5-0.5l7.9,25.5l28.6-40.5l49.6,0.6l-29.7-39.8l15.9-47l-47,15.9l-39.8-29.7l0.6,49.6&#10;&#9;&#9;l-40.5,28.6l29.9,9.3l-0.5,1.6L172.6,348.2z"/>
	<path style="fill: rgb(31, 107, 239);" d="M365.5,323c0-0.3-0.3-0.5-0.5-0.5c-0.3,0-0.5,0.2-0.5,0.5c-1.6,10.5-10.1,19-20.6,20.6&#10;&#9;&#9;c-0.3,0-0.5,0.3-0.5,0.5c0,0.3,0.2,0.5,0.5,0.5c10.5,1.6,19,10.1,20.6,20.6c0,0.3,0.3,0.5,0.5,0.5c0.3,0,0.5-0.2,0.5-0.5&#10;&#9;&#9;c1.6-10.5,10.1-19,20.6-20.6c0.3,0,0.5-0.3,0.5-0.5c0-0.3-0.2-0.5-0.5-0.5C375.6,342,367.1,333.6,365.5,323z"/>
	<path style="fill: rgb(31, 107, 239);" d="M227.4,180.4c-14.1-4.3-24.1-17.6-24.2-32.3c0-0.4-0.3-0.7-0.6-0.7c-0.4,0-0.7,0.2-0.8,0.5&#10;&#9;&#9;c-4.3,14.1-17.6,24.1-32.3,24.2c-0.4,0-0.7,0.3-0.7,0.6c-0.1,0.4,0.2,0.7,0.5,0.8c14.1,4.3,24.1,17.6,24.2,32.3&#10;&#9;&#9;c0,0.4,0.3,0.7,0.6,0.7c0.4,0.1,0.7-0.2,0.8-0.5c4.3-14.1,17.6-24.1,32.3-24.2c0.4,0,0.7-0.3,0.7-0.6&#10;&#9;&#9;C228,180.8,227.8,180.5,227.4,180.4z"/>
	<path style="fill: rgb(31, 107, 239);" d="M166.6,272.3c0-2.9-2.4-5.3-5.3-5.3c-2.9,0-5.3,2.4-5.3,5.3c0,2.9,2.4,5.3,5.3,5.3&#10;&#9;&#9;C164.3,277.6,166.6,275.2,166.6,272.3z"/>
</g>
<g id="Foreground">
	<path style="opacity:0.15;fill:#160D3A;" d="M449.3,191.5c3.3,0,6,2.7,6,6s-2.7,6-6,6c-3.3,0-6-2.7-6-6S446,191.5,449.3,191.5z"/>
	<path style="opacity:0.15;fill:#160D3A;" d="M441,313.6c2.4,0,4.4,2,4.4,4.4c0,2.5-2,4.4-4.4,4.4c-2.5,0-4.4-2-4.4-4.4&#10;&#9;&#9;C436.6,315.6,438.6,313.6,441,313.6z"/>
	<polygon style="opacity:0.65;fill:#FFFFFF;" points="371.9,204.6 401.6,244.4 352,243.7 323.4,284.3 315.4,258.8 308.6,236.9 &#10;&#9;&#9;291.2,231.4 261.2,222.1 301.8,193.5 301.1,143.9 340.9,173.6 387.9,157.6 &#9;"/>
	<polygon style="opacity:0.65;fill:#FFFFFF;" points="348.2,210.2 360.4,226.6 339.9,226.3 328.1,243 324.8,232.5 322,223.5 &#10;&#9;&#9;314.8,221.2 302.4,217.4 319.2,205.6 318.9,185.1 335.3,197.3 354.7,190.8 &#9;"/>
	<path style="opacity:0.15;" d="M289.8,425.7c77.2,0,139.9,4,139.9,8.9c0,4.9-62.6,8.9-139.9,8.9c-77.3,0-139.9-4-139.9-8.9&#10;&#9;&#9;C149.9,429.7,212.5,425.7,289.8,425.7z"/>
	<path style="opacity:0.5;fill:#FFFFFF;" d="M386.1,343.6c0.3,0,0.5,0.3,0.5,0.5c0,0.3-0.2,0.5-0.5,0.5c-10.5,1.6-19,10.1-20.6,20.6&#10;&#9;&#9;c0,0.3-0.3,0.5-0.5,0.5c-0.3,0-0.5-0.2-0.5-0.5c-1.6-10.5-10.1-19-20.6-20.6c-0.3,0-0.5-0.3-0.5-0.5c0-0.3,0.2-0.5,0.5-0.5&#10;&#9;&#9;c10.5-1.6,19-10.1,20.6-20.6c0-0.3,0.3-0.5,0.5-0.5c0.3,0,0.5,0.2,0.5,0.5C367.1,333.6,375.6,342,386.1,343.6z"/>
	<path style="opacity:0.5;fill:#FFFFFF;" d="M227.4,180.4c0.4,0.1,0.6,0.5,0.5,0.8c-0.1,0.4-0.4,0.6-0.7,0.6&#10;&#9;&#9;c-14.8,0.1-28.1,10-32.3,24.2c-0.1,0.4-0.4,0.6-0.8,0.5c-0.4-0.1-0.6-0.4-0.6-0.7c-0.1-14.8-10-28.1-24.2-32.3&#10;&#9;&#9;c-0.4-0.1-0.6-0.5-0.5-0.8c0.1-0.4,0.4-0.6,0.7-0.6c14.8-0.1,28.1-10,32.3-24.2c0.1-0.4,0.5-0.6,0.8-0.5c0.4,0.1,0.6,0.4,0.6,0.7&#10;&#9;&#9;C203.4,162.8,213.3,176.1,227.4,180.4z"/>
	<path style="opacity:0.15;fill:#160D3A;" d="M199.3,374.6c-0.1,0.3-0.3,0.6-0.5,0.9c-2.6,2.6-10.7-1.3-18.1-8.7&#10;&#9;&#9;c-7.4-7.4-11.3-15.5-8.7-18.1c0.2-0.2,0.3-0.3,0.5-0.4c3-1.7,10.6,2.2,17.5,9.1C196.8,364.1,200.6,371.4,199.3,374.6z"/>
	<path style="opacity:0.15;fill:#160D3A;" d="M161.3,267c2.9,0,5.3,2.4,5.3,5.3c0,2.9-2.4,5.3-5.3,5.3c-2.9,0-5.3-2.4-5.3-5.3&#10;&#9;&#9;C156,269.4,158.4,267,161.3,267z"/>
</g>
</svg>