<svg xmlns="http://www.w3.org/2000/svg" version="1.1" viewBox="0 0 1300 450">
  <!-- Generator: Adobe Illustrator 29.0.0, SVG Export Plug-In . SVG Version: 2.1.0 Build 186)  -->
  <g id="Change_colour">
    <g style="fill: rgb(68, 138, 255);">
      <path d="M1231.2,181.6s5.6-7.5.1-18.1h.1c0,0,.2-10.1-5-19.5h.1c0,0-3.2-17.1-11.5-27.4-8.4-10.3-16-4-10.7,5.1,0,.1.1.2.2.3h-161c-3.1,0-5.5,2.5-5.5,5.5v61.7c-9.1-2-18.7-3.4-28.9-4-2.5-.1-4.9-.3-7.3-.4-20.4-.8-39.8-.2-57.9,3-27.4,4.9-51.8,15.7-71.8,36.4v.3h-69.7c25.4-12.8,51.6-32.4,68.7-62.2l-27.3-100.4c-45.9,57.3-93.7,76.7-119.8,83.2l-.2-.9s.6-12.1-4.6-17.1c-6.1-5.8-12-.5-11.1,8.8.4,4.2.5,8.2,0,12h0c-2.7.4-4.1.4-4.1.4l2.1,9.3h0c-.8,2.3-1.7,4.6-2.9,6.9-4.7,9.5-8.8,27.6,4.5,39.8h.2c-1.2,3-6.7,16.7-11,37h-.2s-39.9-51.7-122-56.3c-23-1.3-44.1-1.1-63.1,2.2-1.5-2.6-2.7-5.3-3.6-8.3-1.8-6.5-5.4-12.5-10.9-17.2-14.9-12.8-37.5-10.8-49.9,4.6-.2.3-.5.6-.7.9-10.6,14-8.9,34.2,3.9,46.3.6.5,1.2,1.1,1.8,1.6-9,8.3-17.3,18.8-24.7,31.7v.6h-11.5v-.2c-.2-5.4-6.7-9.1-24.1-8.9-1.9,0-3.6.1-5.2.4-4.3-9.7-10.4-20.1-18.9-29.8.1.1.2.3.3.4,0,0,11.1-9.1,10.4-23.6-1-20.8-13.6-27.8-22.3-32.4-15.3-8-24.7-15.1-31.5-25.4l21.7-5.8v.9c0,12.3,10,22.2,22.2,22.2h67c12.3,0,22.2-10,22.2-22.2v-23.4c0-12.3-10-22.2-22.2-22.2h-67c-12.3,0-22.2,10-22.2,22.2v1.8l-25.6,20.3c-.9-1.7-1.8-3.4-2.7-5.2-7.2-14.7-9-25.1-22.4-38.1-30.3-29.2-67.8-13-81.1-.5-5.4,5-9,12.3-10.5,19.9l-.8-.2c-6.5-.9-12.8,3.1-21.6,11.9-7,7-9.4,4.8-12.4-3-5.5-14.6-16.7-18.1-29.9-9.9-14.2,9.7-21.4,26.4-21.9,40.8l-25.2,1.2-2.3,28.1.3.4c-.3.2-.6.4-.9.7-8,6.4-14.1,23.1-16.3,30.4h0c-5.2,8-2.7,13-2.7,13h0c-5.3,8.5-2,15.8-2,15.8h.1c-6.5,12.2,1.6,32.4,15.2,37l.7,1.8s0,.7.1,2.1c1,13.9,8.7,92.1,58.4,97.9,19.7,2.3,39-16.5,52.9-34.5h0c-3.6,15.1-8.5,29.5-15,41.9h-32.3c-5.6,0-10.1,4.5-10.1,10.1v1.5c0,5.6,4.5,10.1,10.1,10.1h195.5c5.4,1.5,11.3,2.1,18,1.5,0,0,3.2,0,7.9-1.5h743.5c5.6,0,10.1-4.5,10.1-10.1s-1.3-6.1-3.4-8.2c-2.1-2.1-5-3.4-8.2-3.4h-13.4c-4.2-12.8-9.6-30.2-14.3-48.7h0c11.4,11,28.9,21.7,28.9,21.7,20.5,12.7,40.2,7.5,55.3-13.1h38.8c1.5,0,2.8-1.2,2.8-2.8v-14.4c0-1.5-1.2-2.8-2.8-2.8h-27.1c19.9-39.3,23.5-74.2,24.3-89h2.9c3,0,5.5-2.5,5.5-5.5v-2.9c9.3-7.7,22.5-21.4,18.4-34.2h0ZM147.7,272.1c-2.6-7.1-5.6-14.2-9.2-21.1-.3-.6-.6-1.2-.9-1.8v-.6s16.2-.3,16.2-.3c-4.7,12.9-5.9,22.5-6.1,23.8ZM227.4,165.3v8.2h-.2c-42.7,9-62.2,43.3-67.2,58.5l7.2-89c2.3.1,4.7,2,7.3,6,9,13.6,21.8,16.2,36.5,8.7,3.1-1.6,6.2-3.4,9.2-5.3h.1c1.9,5.3,4.9,9.7,8.8,13h-1.8ZM664,373.3c-4.2-12.8-9.6-30.3-14.3-48.7h0c6.1,5.4,12,10.1,17.7,14.1,28.5,20.3,51.8,24.5,67.6,15.4,6,8.2,14,15.1,24.3,19.1h-95.3ZM759.2,282.8c.2-15.5-1.2-29.3-3.1-40.8,2.8-.7,5.7-1.6,8.7-2.5,2.6,16,6.2,30.6,10.2,43.4-6.7,0-12.2-.1-15.8-.1ZM1136.3,248.2c-.6-.8-9.1-11.5-25.1-23.9h40.3c-4.7,6.5-9.9,14.5-15.2,23.9Z" style="fill: rgb(68, 138, 255);"/>
      <path d="M1055.8,108c5.8,0,10.6-4.7,10.6-10.6s-4.7-10.6-10.6-10.6-10.6,4.7-10.6,10.6,4.7,10.6,10.6,10.6Z" style="fill: rgb(68, 138, 255);"/>
      <path d="M923.9,100.6h0c-2.5,11,1.9,20.9,1.9,20.9-9.5,30.9,12.4,56.2,46.8,50.3,34.1-5.8,34.9-33.5,34.9-33.5v-.2c10.7.3,16.7-9.4,11.4-18.1l.3-.2c11.5-28.8-9.9-41.6-9.9-41.6-.6-4.4-5.7-9.3-10-11.4-10.4-5.1-19.9-3.9-29.7-3.9-14.7,0-22.7-8-30.1-7.3-8.7.9-6.4,7.9-6.4,7.9-12.5-3.1-19.5,2.5-19.3,7.3.2,4,4.8,6.8,4.8,6.8,0,0-9.5,1.2-9,10.9.5,9.6,14.3,12,14.3,12Z" style="fill: rgb(68, 138, 255);"/>
      <path d="M899.3,174.2c2.4,0,4.4-1.9,4.4-4.4s-2-4.4-4.4-4.4-4.4,2-4.4,4.4,2,4.4,4.4,4.4Z" style="fill: rgb(68, 138, 255);"/>
      <polygon points="673 161.4 673 137.1 651.9 124.9 630.8 137.1 630.8 161.4 651.9 173.6 673 161.4" style="fill: rgb(68, 138, 255);"/>
      <path d="M517,145.3h.4c3.1,8.5,10.6,19.1,28.5,24.6,29.3,9.1,52.3-6.6,54.3-32,4.7-.9,8.9-5.4,10.2-11.4,1.4-6.8-1.3-13.2-6.2-15.4.6-5.9-.2-12.9-4.6-19.8.6-1.5,7.8-20.3-14.5-31.1-28.8-13.9-67.2-5.8-73,13,0,0-6.5.4-12.5,10.1-6.2,10.1-17.3,51.4,17.3,61.9Z" style="fill: rgb(68, 138, 255);"/>
      <path d="M396.4,208.9c-.9,2.3.3,4.8,2.5,5.6,2.2.9,4.8-.3,5.6-2.5.9-2.2-.3-4.8-2.5-5.6-2.2-.9-4.8.3-5.6,2.5Z" style="fill: rgb(68, 138, 255);"/>
    </g>
  </g>
  <g id="Foreground">
    <path d="M137.6,249.3c.3.6.6,1.2.9,1.8,3.6,6.9,6.6,14.1,9.2,21.1.1-1.3,1.4-10.9,6.1-23.8l-16.2.3v.6Z" style="fill: none;"/>
    <path d="M1136.3,248.2c5.2-9.4,10.5-17.4,15.2-23.9h-40.3c15.9,12.4,24.5,23.1,25.1,23.9Z" style="fill: none;"/>
    <path d="M229.2,165.3c-3.9-3.3-6.9-7.6-8.8-13h-.1c-3,2-6.1,3.7-9.2,5.3-14.7,7.5-27.6,4.9-36.5-8.7-2.6-4-5-5.8-7.3-6l-7.2,89c5-15.2,24.5-49.5,67.2-58.5h0v-8.2h1.9Z" style="fill: none;"/>
    <path d="M764.8,239.5c-3,.9-5.9,1.7-8.7,2.5,1.9,11.5,3.3,25.3,3.1,40.8,3.6,0,9.1,0,15.8.1-4-12.9-7.6-27.4-10.2-43.4Z" style="fill: none;"/>
    <path d="M735,354.1c-15.8,9-39.1,4.9-67.6-15.4-5.7-4.1-11.6-8.8-17.7-14.1h0c4.7,18.4,10.1,35.9,14.3,48.7h95.3c-10.4-4-18.3-10.9-24.3-19.1Z" style="fill: none;"/>
    <path d="M1231.2,181.6s5.6-7.5.1-18.1h.1c0,0,.2-10.1-5-19.5h.1c0,0-3.2-17.1-11.5-27.4-8.4-10.3-16-4-10.7,5.1,0,.1.1.2.2.3h2.8c3,0,5.5,2.5,5.5,5.5v2.8c-1.8-.6-3.3-.4-4.8.1-.6.2-1.1.5-1.7.9-4.1,2.6-3.1,9.3,2.8,14h0c-2.1.1-3.9.9-5.3,2.4-5.7,6,2.9,13.1,5.8,14.6v.3c-3.6-.7-6.6-.4-8.8.4-1.9.7-3.2,1.9-3.6,3.1-1.1,3.8.2,6.2,3.6,8.2,2.1,1.3,5.1,2.4,9,3.6,1.1.4,2.2.9,3.1,1.5v36.2c9.3-7.7,22.5-21.4,18.4-34.2h0Z" style="fill: #fff; opacity: .2;"/>
    <path d="M1209.7,178.2c-3.9-1.2-6.9-2.3-9-3.6v37.6h-150.6v-77.9h150.6v28.9c2.2-.8,5.3-1.1,8.8-.4v-.3c-2.8-1.5-11.4-8.6-5.7-14.6,1.4-1.5,3.2-2.2,5.3-2.2h0c-5.9-4.8-6.9-11.5-2.8-14.1.6-.4,1.1-.6,1.7-.9,1.5-.6,3-.7,4.8-.1v-2.8c0-3.1-2.5-5.5-5.5-5.5h-163.8c-3.1,0-5.5,2.5-5.5,5.5v91.1c0,3.1,2.5,5.5,5.5,5.5h163.8c3,0,5.5-2.5,5.5-5.5v-39.1c-.9-.6-2-1.1-3.1-1.5Z" style="fill: #fff; opacity: .8;"/>
    <path d="M1125.2,134.3v77.9h75.4v-37.6c-3.4-2-4.6-4.4-3.6-8.2.3-1.2,1.6-2.3,3.6-3.1v-28.9h-75.4ZM1181.4,194.9h-39.2v-43.5h39.2v43.5Z" style="opacity: .8;"/>
    <path d="M1142.2,194.9h39.2v-43.5h-39.2v43.5ZM1150.1,172.2c0-6,4.9-11,11-11h.6c6,0,11,4.9,11,11v.6c0,6-4.9,11-11,11h-.6c-6.1,0-11-4.9-11-11v-.6Z" style="fill: #231f20; opacity: .3;"/>
    <path d="M1118.6,316v14.4c0,1.5,1.2,2.8,2.8,2.8h85.9c1.5,0,2.8-1.2,2.8-2.8v-14.4c0-1.5-1.2-2.8-2.8-2.8h-85.9c-1.5,0-2.8,1.2-2.8,2.8Z" style="fill: #231f20; opacity: .3;"/>
    <rect x="1150.1" y="161.3" width="22.5" height="22.6" rx="11" ry="11" style="fill: #231f20; opacity: .1;"/>
    <path d="M1136.3,248.2c-3.5,6.3-7.1,13.2-10.4,20.7h-.3c0-.1-30.8,18-44.8,42,1,4.6,2.2,9.2,3.3,13.7h0c11.4,11,28.9,21.7,28.9,21.7,20.5,12.7,40.2,7.5,55.3-13.1h-47.1c-1.5,0-2.8-1.2-2.8-2.8v-14.4c0-1.5,1.2-2.8,2.8-2.8h58.8c19.9-39.3,23.5-74.2,24.3-89h-52.8c-4.7,6.5-9.9,14.5-15.2,23.9Z" style="fill: #fff; opacity: .2;"/>
    <path d="M888.7,394.4c0-4.5.2-3.1.5-11.5-33.5,0-68-.1-80.5-.4-7.1-.1-11.1-1.7-14.3-4.6-.6-.6-1.3-1.2-1.9-1.9-13.1,2-24.1.7-33.2-2.9h-95.3c4.2,12.9,7.3,21.1,7.3,21.1h-217.2c0-4.5.4-5.3.7-13.6h-55.1c-3.2,0-6.2-.9-8.7-2.6-6.8,10.4-15.1,14.9-21,16.8h743.5c5.6,0,10.1-4.5,10.1-10.1s-1.3-6.1-3.4-8.2c-2.1-2.1-5-3.4-8.2-3.4h-13.4c4.2,12.9,7.3,21.1,7.3,21.1h-217.2Z" style="fill: #231f20; opacity: 0;"/>
    <rect x="1085.3" y="186.3" width="22.6" height="6.6" style="fill: #231f20; opacity: .5;"/>
    <rect x="1085.3" y="169.8" width="22.6" height="6.6" style="fill: #231f20; opacity: .5;"/>
    <rect x="1085.3" y="153.4" width="22.6" height="6.6" style="fill: #231f20; opacity: .5;"/>
    <path d="M1125.7,268.8h.3c0,.1,0,.1,0,.1,3.3-7.5,6.8-14.4,10.4-20.7-.6-.8-9.1-11.5-25.1-23.9h-67.8c-3.1,0-5.5-2.5-5.5-5.5v-29.4c-9.1-2-18.7-3.4-28.9-4-2.5-.1-4.9-.3-7.3-.4v.4c-.2,6.5-11,19.4-28.6,19.3-14.5,0-23.7-6.3-29.2-16.2v-.5c-27.5,4.9-51.9,15.7-71.9,36.4v.3h35.3c2.1,17.2,5.3,33,9.1,47.1v.8h95.8s10.7-.7,8.7,6.4c-1.2,4.2-12.5,29.6-22.7,51.4h6.8c1.2,0,2.1.9,2.1,2.1v20.2c0,1.2-1,2.1-2.1,2.1h-18.7c-.9,1.7-1.6,3.1-2.3,4.3-3.4,6-6,10.6-8.4,14.1-4.2,6.1-7.4,8.7-12.3,8.9-8.8.5-41,.7-74.1.7-.4,8.3-.5,6.9-.5,11.5h217.2s-3.1-8.2-7.3-21.1c-4.2-12.8-9.6-30.2-14.3-48.7-1.2-4.5-2.3-9.1-3.3-13.7,14-24,44.8-42.1,44.8-42.1Z" style="fill: #231f20; opacity: .2;"/>
    <path d="M1074.6,150.8c-3.3,0-6,2.7-6,6s2.7,6,6,6,6-2.7,6-6-2.7-6-6-6Z" style="fill: #231f20; opacity: .2;"/>
    <path d="M1074.6,167.1c-3.3,0-6,2.7-6,6s2.7,6,6,6,6-2.7,6-6-2.7-6-6-6Z" style="fill: #231f20; opacity: .2;"/>
    <path d="M1074.6,183.5c-3.3,0-6,2.7-6,6s2.7,6,6,6,6-2.7,6-6-.7-3.2-1.8-4.2c-1.1-1.1-2.6-1.8-4.2-1.8Z" style="fill: #231f20; opacity: .2;"/>
    <path d="M1055.8,108c5.8,0,10.6-4.7,10.6-10.6s-4.7-10.6-10.6-10.6-10.6,4.7-10.6,10.6,4.7,10.6,10.6,10.6Z" style="fill: #fff; opacity: .6;"/>
    <path d="M1050.1,134.3v77.9h75.2v-77.9h-75.2ZM1074.6,195.5c-3.3,0-6-2.7-6-6s2.7-6,6-6,3.2.7,4.2,1.8c1.1,1.1,1.8,2.6,1.8,4.2,0,3.3-2.7,6-6,6ZM1074.6,179.2c-3.3,0-6-2.7-6-6s2.7-6,6-6,6,2.7,6,6-2.7,6-6,6ZM1074.6,162.8c-3.3,0-6-2.7-6-6s2.7-6,6-6,6,2.7,6,6-2.7,6-6,6ZM1108,192.9h-22.6v-6.6h22.6v6.6ZM1108,176.4h-22.6v-6.6h22.6v6.6ZM1108,160h-22.6v-6.6h22.6v6.6Z" style="fill: #fff; opacity: .4;"/>
    <path d="M842.1,274.5c-2.2,1.4-3.9,3.4-5.3,5.6-.2.3-.3.6-.5.8,0,.1-.5,1-1.2,2.5,0,0-2.8,5.7-6.9,14.3-1.7,3.5-3.6,7.4-5.6,11.7-1.5,3.1-3.1,6.4-4.7,9.8-1.9,4-3.9,8.1-5.9,12.2-2.8,5.8-5.5,11.5-8,16.6-5.5,11.5-9.7,20.2-10,21.1-.5,1.4-.9,2.8-1.1,4.2-.2,1.8.1,3.5,1.2,4.7,3.2,2.9,7.2,4.4,14.3,4.6,12.5.2,47,.4,80.5.4,33.2,0,65.4-.2,74.1-.7,4.9-.3,8.2-2.8,12.3-8.9,2.3-3.5,5-8.1,8.4-14.1.7-1.2,1.5-2.7,2.3-4.3h-21.2c-1.2,0-2.1-.9-2.1-2.1v-20.2c0-1.2,1-2.1,2.1-2.1h33.2c10.2-21.8,21.5-47.2,22.7-51.4,2-7.1-8.7-6.4-8.7-6.4h-161.6c-2.9,0-6.1.3-8.6,1.9Z" style="fill: #231f20; opacity: .4;"/>
    <path d="M923.9,100.6h0c1.5-6.8,5.6-14,14.9-19.7,0,0,10.3,10,39.3,2.8,0,0,.8,6.3,5.8,10.8,6.4,5.7-1.8,25.5,13.3,27.6l4.5-3.1s10-8.1,16-.6c.5.6.9,1.2,1.2,1.7l.3-.2c11.5-28.8-9.9-41.6-9.9-41.6-.6-4.4-5.7-9.3-10-11.4-10.4-5.1-19.9-3.9-29.7-3.9-14.7,0-22.7-8-30.1-7.3-8.7.9-6.4,7.9-6.4,7.9-12.5-3.1-19.5,2.5-19.3,7.3.2,4,4.8,6.8,4.8,6.8,0,0-9.5,1.2-9,10.9.5,9.6,14.3,12,14.3,12Z" style="fill: #231f20; opacity: .2;"/>
    <path d="M1001.7,118.9l-4.5,3.1c-15-2-6.9-21.8-13.3-27.6-5-4.5-5.8-10.8-5.8-10.8-29.1,7.3-39.3-2.8-39.3-2.8-9.3,5.6-13.4,12.9-14.9,19.7-2.5,11,1.9,20.9,1.9,20.9-9.5,30.9,12.4,56.2,46.8,50.3,34.1-5.8,34.9-33.5,34.9-33.5v-.2c10.7.3,16.7-9.4,11.4-18.1-.4-.6-.8-1.2-1.2-1.7-6-7.5-16,.6-16,.6Z" style="fill: #fff; opacity: .2;"/>
    <path d="M973.1,204.7c17.6,0,28.4-12.8,28.6-19.3v-.4c-20.3-.8-39.8-.2-57.9,3v.5c5.6,9.8,14.7,16.1,29.3,16.2Z" style="fill: #fff; opacity: .2;"/>
    <path d="M963,332.5v20.2c0,1.2,1,2.1,2.1,2.1h39.9c1.2,0,2.1-.9,2.1-2.1v-20.2c0-1.2-1-2.1-2.1-2.1h-39.9c-1.2,0-2.1.9-2.1,2.1Z" style="fill: #fff; opacity: .2;"/>
    <path d="M899.3,174.2c2.4,0,4.4-1.9,4.4-4.4s-2-4.4-4.4-4.4-4.4,2-4.4,4.4,2,4.4,4.4,4.4Z" style="fill: #fff; opacity: .8;"/>
    <path d="M828.2,297.6l-34.4.2s2.3,7.8,4.7,12.2l24.2-.6h0c2-4.2,3.9-8.2,5.6-11.6h0Z" style="fill: #231f20; opacity: .5;"/>
    <path d="M809,280.6c10.2-.7,18-9.6,17.4-20.1-.7-10.5-9.5-18.4-19.7-17.8-10.2.7-18,9.6-17.4,20.1.7,10.5,9.5,18.4,19.7,17.8Z" style="fill: #fff; opacity: .8;"/>
    <path d="M857.3,163.9l-20.3-73.7s-26.2,33-71.2,54.5l18.6,72.9s33.1-9.7,72.8-53.7Z" style="fill: #fff; opacity: .4;"/>
    <path d="M817.8,319l-14.5.2s2.4,7.8,4.9,12.1l3.8-.2h.2c1.9-4,3.9-8.1,5.9-12.1h-.2Z" style="fill: #231f20; opacity: .5;"/>
    <path d="M793.1,373.3c.1-1.4.6-2.8,1.1-4.2.3-.9,4.5-9.6,10-21.1h-.5c-2.8-4.4-17.2-27.7-28.7-65-6.7,0-12.2-.1-15.8-.1-1.9,0-3.3,0-4,0-12.3,0-13.6,4.5-11,10.3l.3.6c14.7-7.7,21.9-7.4,24.5-2.8,2.9,5.2-5.3,9.1-9.6,11.3,0,0-8.6,4.4-11.5,7.2.2-.1.4-.2.6-.4,15.3-8.2,22.8-8,25.5-3.2,2.9,5.2-7,10.2-11.2,12.3h0c4.4-.4,8.3.1,11,.5,9.2,1.3,11.4,4.3,11.3,7.9,0,2.9-3,4.3-3,4.3v.2c4.9,1.5,8.5,4.2,9.2,6.8,1.6,5.3-2.3,8-9.6,8.3-2.7.1-4.9.8-6.9,1.8v.2c7,12.2,12.8,21.3,13,21.7.8,1.1,1.5,2.2,2.2,3.2.8,1,1.5,2,2.3,2.9.6.7,1.2,1.3,1.9,1.9-1.1-1.3-1.4-2.9-1.2-4.7Z" style="opacity: .8;"/>
    <path d="M788,370.1c-.3-.4-6-9.5-12.9-21.7v-.2c1.9-1,4.2-1.7,6.9-1.8,7.3-.3,11.2-3.1,9.6-8.3-.8-2.6-4.4-5.4-9.3-6.8v-.2c0,0,3-1.4,3.1-4.3,0-3.6-2.1-6.7-11.3-7.9-2.7-.4-6.7-.9-11-.4h0c4.2-2.3,14.1-7.2,11.2-12.4-2.7-4.8-10.1-4.9-25.5,3.2-.2.1-.4.2-.6.4,2.9-2.8,11.5-7.2,11.5-7.2,4.2-2.2,12.5-6.1,9.6-11.3-2.6-4.7-9.8-4.9-24.5,2.8-.3.2-.6.3-.9.5-8.1,4.3-12.6,9.8-15.4,15.3-2.6,5.1-6.8,16.6-2,28.4,2.3,5.7,5.2,11.2,8.8,16.2,6,8.2,14,15.1,24.3,19.1,9.1,3.5,20.1,4.9,33.2,2.9-.8-.9-1.5-1.8-2.3-2.9-.7-1-1.5-2-2.2-3.2Z" style="fill: #fff; opacity: .2;"/>
    <path d="M764.8,239.5c2.6,16,6.2,30.6,10.2,43.4,11.5,37.3,25.9,60.6,28.7,64.9h.5c2.4-5,5.2-10.7,8-16.6h-.2c0,0-3.8,0-3.8,0-2.5-4.4-4.9-12.1-4.9-12.1l14.5-.2h.2c1.6-3.3,3.2-6.5,4.7-9.7h0s-24.2.6-24.2.6c-2.4-4.4-4.7-12.2-4.7-12.2l34.4-.2h0c4.1-8.5,6.9-14.2,6.9-14.2.7-1.5,1.1-2.4,1.2-2.5.2-.3.3-.6.5-.8,1.4-2.2,3.1-4.2,5.3-5.6,2.6-1.6,5.7-1.9,8.6-1.9h65.7v-.8c-3.8-14.1-7.1-29.9-9.1-47.1h-144.7c.6,5.1,1.3,10.1,2.1,14.9ZM806.6,242.8c10.2-.6,19.1,7.3,19.7,17.8.7,10.4-7.1,19.4-17.4,20.1-10.2.6-19.1-7.3-19.7-17.8-.6-10.4,7.1-19.4,17.4-20.1Z" style="fill: #fff; opacity: .6;"/>
    <path d="M761.4,160l-3.2-11.7c-.2,0-20.6,8.8-38.9,11.6l3.1,11.4c17.3-1.5,38.2-10.9,39-11.3Z" style="fill: #231f20; opacity: 0;"/>
    <path d="M723.7,235.4l2.8,12.5s12.1-1.2,29.6-5.8c2.8-.7,5.7-1.6,8.7-2.5-.8-4.8-1.5-9.8-2.1-14.9h39.7c25.4-12.8,51.6-32.4,68.7-62.2l-27.3-100.4c-45.9,57.3-93.7,76.7-119.8,83.2-7,1.8-12.4,2.6-15.9,3-2.7.3-4.1.3-4.1.3l2.1,9.3,4.5,20,13.1,57.5ZM837,90.2l20.3,73.7c-39.8,44-72.8,53.7-72.8,53.7l-18.6-72.9c44.9-21.4,71.2-54.5,71.2-54.5ZM727,190.4l-3.1-11.4c5.5-.8,11.1-2.2,16.4-3.7l3.2,11.8c-5.5,1.6-10.9,2.9-16.5,3.3ZM758.2,148.3l3.2,11.7c-.9.4-21.7,9.8-39,11.3l-3.1-11.4c18.3-2.8,38.7-11.5,38.9-11.6Z" style="fill: #fff; opacity: .8;"/>
    <path d="M723.9,179l3.1,11.4c5.6-.5,10.9-1.8,16.5-3.3l-3.2-11.8c-5.2,1.5-10.9,2.9-16.4,3.7Z" style="fill: #fff; opacity: .2;"/>
    <path d="M667.6,338.4l-.2.3c28.5,20.3,51.8,24.5,67.6,15.4-3.6-5-6.5-10.5-8.8-16.2-4.8-11.9-.6-23.3,2-28.4,2.8-5.5,7.3-11,15.4-15.3.3-.2.6-.3.9-.5l-.3-.6c-2.6-5.8-1.3-10.3,11-10.3s2.1,0,4,0c.2-15.5-1.2-29.3-3.1-40.8-17.6,4.7-29.6,5.8-29.6,5.8l-2.8-12.5-13.1-57.5-4.5-20h0c-.8,2.3-1.7,4.6-2.9,6.9-4.7,9.5-8.8,27.6,4.5,39.8h.2c-1.2,3-6.7,16.7-11,37-2.2,10.4-4.1,22.5-5,35.8-1,1.9-21.9,39.9-24.2,61Z" style="fill: #231f20; opacity: .2;"/>
    <path d="M723.7,144.4s.6-12.1-4.6-17.1c-6.1-5.8-12-.5-11.1,8.8.4,4.2.5,8.2,0,12h0c3.4-.3,8.9-1.2,15.9-2.9l-.2-.9Z" style="fill: #231f20; opacity: .2;"/>
    <polygon points="673 161.4 673 137.1 651.9 124.9 630.8 137.1 630.8 161.4 651.9 173.6 673 161.4" style="fill: #fff; opacity: 0;"/>
    <polygon points="659.7 153.8 659.7 144.7 651.9 140.2 644.1 144.7 644.1 153.8 651.9 158.3 659.7 153.8" style="fill: #fff; opacity: .2;"/>
    <path d="M523.3,199c1.3.8,2.6,1.7,3.9,2.7,10.6,9.1,11.5,25.4,1.6,35.6-.4.4-.8.8-1.3,1.2-8.6,7.6-21.7,8.3-30.9,1.2-1.6-1.2-3.1-2.6-4.3-4.1-5.5-6.8-13.1-11.5-21.8-12.4-6.6-.7-13-3.3-18.4-7.8-9,8.3-17.3,18.8-24.7,31.7v.6h145.7v-16.3h36.7v28.1c0,3.4-2.8,6.1-6.1,6.1h-14.2v99c0,3.2-.9,6.2-2.5,8.7-2.9,4.5-7.9,7.5-13.6,7.5h-118.5c-.4,8.3-.7,9.1-.7,13.6h217.2s-3.1-8.2-7.3-21.1c-4.2-12.8-9.6-30.3-14.3-48.7h0c6.1,5.4,12,10.1,17.7,14.1l.2-.3c2.3-21,23.2-59.1,24.2-61,.9-13.3,2.8-25.4,5-35.8h-.2s-39.9-51.7-122-56.3c-23-1.3-44.1-1.1-63.1,2.2,2.9,4.8,6.9,8.7,11.9,11.5Z" style="opacity: .8;"/>
    <path d="M589.5,263.8v1.7h14.2c3.4,0,6.1-2.7,6.1-6.1v-20.5h-36.7v8.8h.3c8.9,0,16.1,7.2,16.1,16.1Z" style="fill: #231f20; opacity: .1;"/>
    <polygon points="609.8 238.9 609.8 231.4 573.1 231.4 573.1 238.9 573.3 238.9 609.8 238.9" style="fill: #231f20; opacity: 0;"/>
    <path d="M517,145.3h.4c-2.7-7.6-2.1-13.7-2.1-13.7v-.2c-11.4-1.2-16-13.2-7.6-21.3,7-6.7,16,2.7,16,2.7l4.2,3.7c8.1,7.9,16.6,1.2,13.8-6.8-3.8-11.1-9.3-19.1-4.3-26.4,5.2-7.5,19.2-1.4,19.2-1.4,30.7,11.8,35.3,1.3,35.3,1.3,3.3,2.6,5.7,5.4,7.6,8.2.6-1.5,7.8-20.3-14.5-31.1-28.8-13.9-67.2-5.8-73,13,0,0-6.5.4-12.5,10.1-6.2,10.1-17.3,51.4,17.3,61.9Z" style="fill: #231f20; opacity: .8;"/>
    <path d="M586.9,373.3c1.6-2.5,2.5-5.5,2.5-8.7v-100.8c0-8.9-7.2-16.1-16.1-16.1h-157.5c0,5.8-9,5.4-13.7,5.4,0,0-9.7,0-13.6,1.1.2,0,.5,0,.8,0,17.4-.1,23.9,3.5,24.1,8.9.2,5.9-10.9,5.8-15.7,5.7h0c4.1,1.7,7.3,4,9.6,5.6,7.6,5.4,8.1,9.1,6.4,12.3-1.4,2.6-4.7,2.5-4.7,2.5l-.2.2c3.7,3.6,5.6,7.7,5.1,10.3-1.1,5.4-5.7,6-12.4,2.9-6.8-3.2-13.2-1-17.6,1.6h0s-.1,32.1-.1,32.1v28.4c-.1,3.2.8,6.2,2.4,8.7,1.3,2,2.9,3.7,4.9,4.9,2.5,1.6,5.5,2.6,8.7,2.6h173.6c5.7,0,10.7-3,13.6-7.5ZM516.1,293.6h45.8v42.2h-45.8v-42.2ZM494.3,292.1c5.5,0,10,4.5,10,10s-4.5,10-10,10-10-4.5-10-10,4.5-10,10-10ZM494.3,319.7c5.5,0,10,4.5,10,10s-4.5,10-10,10-10-4.5-10-10,4.5-10,10-10ZM416,294h54.6v9h-54.6v-9ZM416,310.4h54.6v9h-54.6v-9ZM416,326.5h36.9v9h-36.9v-9Z" style="fill: #231f20; opacity: .4;"/>
    <path d="M561.8,293.6h-45.8v42.2h45.8v-42.2ZM539.3,300c3.8,0,6.9,3.1,6.9,6.9s-3.1,6.9-6.9,6.9-6.9-3.1-6.9-6.9,3.1-6.9,6.9-6.9ZM527,329.6c0-6.8,5.5-12.3,12.3-12.3s12.3,5.5,12.3,12.3h-24.6Z" style="fill: #231f20; opacity: .7;"/>
    <path d="M539.3,317.3c-6.8,0-12.3,5.5-12.3,12.3h24.6c0-6.8-5.5-12.3-12.3-12.3Z" style="fill: #fff; opacity: .2;"/>
    <path d="M539.3,313.9c3.8,0,6.9-3.1,6.9-6.9s-3.1-6.9-6.9-6.9-6.9,3.1-6.9,6.9,3.1,6.9,6.9,6.9Z" style="fill: #fff; opacity: .2;"/>
    <path d="M592,83.1s-4.7,10.5-35.3-1.3c0,0-14-6.1-19.2,1.4-5,7.3.5,15.3,4.3,26.4,2.8,8-5.7,14.7-13.8,6.8l-4.2-3.7s-9-9.4-16-2.7c-8.5,8.1-3.9,20.1,7.6,21.3v.2s-.6,6,2,13.5c3.1,8.6,10.6,19.2,28.5,24.8,29.3,9.1,52.3-6.6,54.3-32-1.1.2-2.3.2-3.5,0-5.9-1.3-9.5-8.4-7.9-15.9,1.6-7.6,7.7-12.7,13.7-11.4.6.1,1.2.3,1.7.6.6-5.9-.2-12.9-4.6-19.8-1.9-2.8-4.3-5.6-7.6-8.2ZM576,122.7c-1.6,7.5-7.7,12.6-13.7,11.4-6-1.3-9.5-8.4-7.9-15.9,1.6-7.6,7.7-12.6,13.7-11.4,5.9,1.3,9.5,8.4,7.9,16Z" style="fill: #231f20; opacity: .2;"/>
    <path d="M494.3,312.2c5.5,0,10-4.5,10-10s-4.5-10-10-10-10,4.5-10,10,4.5,10,10,10Z" style="fill: #fff; opacity: .2;"/>
    <path d="M494.3,339.7c5.5,0,10-4.5,10-10s-4.5-10-10-10-10,4.5-10,10,4.5,10,10,10Z" style="fill: #fff; opacity: .2;"/>
    <rect x="416" y="310.4" width="54.6" height="9" style="fill: #231f20; opacity: .8;"/>
    <rect x="416" y="294" width="54.6" height="9" style="fill: #231f20; opacity: .8;"/>
    <rect x="416" y="326.5" width="36.9" height="9" style="fill: #231f20; opacity: .8;"/>
    <path d="M450.3,213.9c.6.5,1.2,1.1,1.8,1.6,5.4,4.5,11.9,7.1,18.4,7.8,8.6.9,16.3,5.7,21.8,12.4,1.2,1.5,2.7,2.9,4.3,4.1,9.3,7,22.4,6.4,30.9-1.2.4-.4.9-.8,1.3-1.2,9.9-10.2,9-26.5-1.6-35.6-1.2-1-2.5-2-3.9-2.7-4.9-2.8-9-6.8-11.9-11.5-1.5-2.6-2.7-5.3-3.6-8.3-1.8-6.5-5.4-12.5-10.9-17.2-14.9-12.8-37.5-10.8-49.9,4.6-.2.3-.5.6-.7.9-10.6,14-8.9,34.2,3.9,46.3Z" style="fill: #fff; opacity: .7;"/>
    <path d="M368.1,209.5s11.1-9.1,10.4-23.6c-1-20.8-13.6-27.8-22.3-32.4-15.3-8-24.7-15.1-31.5-25.4l-17.9,4.8,14-11.1c-.9-1.7-1.8-3.4-2.7-5.2-7.2-14.7-9-25.1-22.4-38.1-30.3-29.2-67.8-13-81.1-.5-5.4,5-9,12.3-10.5,19.9-2.8,13.4.6,28,11,33.9h.2c-.9-2.9-1.1-4.7-1.1-4.7-1.5-9.3.5-22.4,15.6-33.9,0,0,16,27.5,51.6,23.9,0,0,6.2-9.2,13-4.5,8.3,5.7,6.1,16.4-3.4,19h0c0,.1,6.2,18.8-18.8,33.7h1.2v3.7c16.8.3,35.8,3.9,53.6,11.2,17.9,7.4,31.3,17.9,41.2,29.4" style="fill: #fff; opacity: .7;"/>
    <path d="M383.8,304c4.4-2.6,10.8-4.8,17.6-1.6,6.7,3.1,11.3,2.5,12.4-2.9.5-2.7-1.4-6.8-5.1-10.3l.2-.2s3.3.1,4.7-2.5c1.7-3.2,1.2-6.9-6.4-12.3-2.2-1.6-5.5-3.9-9.6-5.5h0c4.7,0,15.8.1,15.7-5.8-.2-5.4-6.7-9.1-24.1-8.9-.2,0-.5,0-.8,0,3.9-1.2,13.6-1.1,13.6-1.1,4.7,0,13.7.4,13.7-5.4v-.2c-.2-5.4-6.7-9.1-24.1-8.9-1.9,0-3.6.1-5.2.4-6.5.9-11.5,3.2-15.6,6.1-4.6,3.3-13.7,11.5-15,24.2-.5,4.6-.6,9.5-.3,14.4.9,15.9,6,32.3,15.8,43.3,3.4,3.8,7.4,7,12.1,9.3h0v-32.1c.1,0,.1,0,.1,0Z" style="fill: #231f20; opacity: .2;"/>
    <path d="M391,378.2c-2-1.3-3.6-3-4.9-4.9-1.6-2.5-2.5-5.5-2.5-8.7v-28.4c.1,0,0,0,0,0-4.6-2.3-8.7-5.4-12.1-9.3-9.9-11-14.9-27.4-15.8-43.3-.3-4.9-.2-9.8.3-14.4,1.3-12.7,10.3-20.9,15-24.2,4.1-2.9,9-5.2,15.6-6.1-9.4-21.1-26.8-45.1-59.7-58.7-17.8-7.3-36.8-10.9-53.6-11.2v9.8h1.5c6.3-2.1,24.2-3.2,31.8,7.1,4.7,6.3,14,24.4,18,36.9,4.1,12.7,8.6,26.7,9.8,31.3,0,0-20,19-38.7,21.4h-.5c0-4,0-6.3,0-6.3-10.4-4.8-13-19.4-13-19.4-10.4,6-19.2-11.6-21.7-16.5-2-4-.5-7,1.8-9.1l-.6-.4s-5.5-7-.9-13.4h0s-3.2-5.7.1-11.1h-.2c0-.1-33.8-.4-33.8-.4l.2-25.3h0c-42.7,9-62.2,43.3-67.2,58.5l-1.3,16.3h-4.8c-4.7,13-5.9,22.6-6.1,23.9-2.6-7.1-5.6-14.2-9.2-21.1h0s-27.5,14.1-53.6,16.8h-.4c1,13.9,8.7,92.1,58.4,97.9,19.7,2.3,39-16.5,52.9-34.5h0c-3.6,15.1-8.5,29.5-15,41.9-4.2,8.1-9.1,15.5-14.7,21.6h167.9s.9-1.8,1.2-3.5c2.7,1.5,5.6,2.7,8.7,3.6,5.4,1.5,11.3,2.1,18,1.5,0,0,3.2,0,7.9-1.5,6-1.9,14.3-6.4,21-16.8Z" style="fill: #231f20; opacity: .5;"/>
    <path d="M324.7,128.2l21.7-5.8v.9c0,12.3,10,22.2,22.2,22.2h67c12.3,0,22.2-10,22.2-22.2v-23.4c0-12.3-10-22.2-22.2-22.2h-67c-12.3,0-22.2,10-22.2,22.2v1.8l-25.6,20.3-14,11.1,17.9-4.8Z" style="fill: #fff; opacity: .4;"/>
    <path d="M229.2,165.3h42.9c25-14.9,18.8-33.5,18.8-33.5h0c9.5-2.8,11.7-13.4,3.4-19.1-6.8-4.7-13,4.5-13,4.5-35.6,3.6-51.6-23.9-51.6-23.9-15.1,11.5-17.1,24.6-15.6,33.9,0,0,.2,1.8,1.1,4.6.5,1.7,1.3,3.8,2.4,6.2.3.7.5,1.1.5,1.1,0,4.9.8,9.4,2.2,13.3,1.9,5.4,4.9,9.7,8.8,13Z" style="fill: #fff; opacity: .4;"/>
    <path d="M272,165.3h-44.7v8.2c0,0-.3,25.3-.3,25.3l33.8.3h.2c.4-.6.9-1.2,1.5-1.8,2.9-3,5.9-5.3,11-6.7l-.2-.7v-24.6h-1.2ZM242.9,193.2h-9.3l.6-9.3h9.1l-.3,9.3Z" style="fill: #231f20; opacity: .2;"/>
    <path d="M273.5,190.6c-5.1,1.3-8.1,3.6-11,6.7-.6.6-1.1,1.3-1.5,1.9-3.3,5.4-.1,11-.1,11h0c-4.6,6.4.9,13.4.9,13.4l.6.4c-2.3,2.1-3.8,5.1-1.8,9.1,2.4,4.9,11.3,22.5,21.7,16.5,0,0,2.6,14.6,13,19.4,0,0,0,2.3,0,6.3h.5c18.7-2.4,38.7-21.4,38.7-21.4-1.2-4.6-5.6-18.6-9.8-31.3-4.1-12.5-13.4-30.5-18-36.9-7.6-10.4-25.5-9.2-31.8-7.1h-1.5v11.2l.2.7Z" style="fill: #fff; opacity: .4;"/>
    <polygon points="233.6 193.2 242.9 193.2 243.2 183.8 234.1 183.8 233.6 193.2" style="fill: #fff; opacity: .2;"/>
    <path d="M167.2,142.9c2.3.1,4.7,2,7.3,6,9,13.6,21.8,16.2,36.5,8.7,3.1-1.6,6.2-3.4,9.2-5.3h.1c-1.4-4-2.2-8.4-2.2-13.3,0,0-.2-.4-.5-1.1-1.1-2.3-1.9-4.4-2.4-6.2h-.2c-10.4-5.9-13.8-20.4-11-33.8l-.8-.2c-6.5-.9-12.8,3.1-21.6,11.9-7,7-9.4,4.8-12.4-3-5.5-14.6-16.7-18.1-29.9-9.9-14.2,9.7-21.4,26.4-21.9,40.8l50.4-2.3-.6,7.8Z" style="fill: #fff; opacity: 0;"/>
    <path d="M99.1,175.3c-2,2.2-3.4,4-4.2,5.3v.2c4.7-1.5,8.1-1,10.1,1.3,2.6,3,0,9.7-6.1,13.1h0c2.1.6,3.8,1.7,4.9,3.6,4.4,7.4-5.8,12.6-9,13.5h0c6.9.2,11.2,3.9,11.7,6.6,1.4,6.9-7.4,8.9-15.7,10.9-2.2.5-4.1,1.3-5.9,2.1h0c0,.1-1.7,17.7-1.7,17.7l54.5-.9,16.2-.3h4.8c0,0,1.3-16.4,1.3-16.4l7.2-89,.6-7.8-50.4,2.3-25.2,1.2-2.3,28.1.3.4c10.2-7.5,16,.4,8.9,8.2ZM149.7,238.2h-21.8l1.3-21.8h21.1l-.6,21.8Z" style="opacity: .8;"/>
    <polygon points="128 238.2 149.7 238.2 150.4 216.5 129.3 216.5 128 238.2" style="fill: #231f20; opacity: .2;"/>
    <path d="M138.5,251h0c-.3-.6-.6-1.2-.9-1.8v-.6s-54.5.9-54.5.9l1.7-17.5h0c1.7-.9,3.7-1.7,5.9-2.2,8.2-2.1,17.1-4.1,15.7-10.9-.6-2.7-4.8-6.4-11.7-6.6h0c3.2-.9,13.5-6.2,9-13.5-1.1-1.8-2.8-3-4.9-3.5h0c6.1-3.5,8.7-10.3,6.1-13.2-2-2.3-5.4-2.8-10-1.3v-.2c.8-1.3,2.1-3,4.1-5.3,7.2-7.8,1.4-15.7-8.9-8.2-.3.2-.6.4-.9.7-8,6.4-14.1,23.1-16.3,30.4h0c-5.2,8-2.7,13-2.7,13h0c-5.3,8.5-2,15.8-2,15.8h.1c-6.5,12.2,1.6,32.4,15.2,37l.7,1.8s0,.7.1,2.1h.4c26.1-2.7,53.6-16.8,53.6-16.8Z" style="fill: #fff; opacity: .4;"/>
    <path d="M588.9,122c-1.6,7.5,1.9,14.7,7.9,15.9,1.2.2,2.3.2,3.5,0,4.7-.9,8.9-5.4,10.2-11.4,1.4-6.8-1.3-13.2-6.2-15.4-.5-.2-1.1-.4-1.7-.6-5.9-1.3-12.1,3.8-13.7,11.4Z" style="fill: #fff; opacity: .2;"/>
    <path d="M568.2,106.7c-5.9-1.3-12.1,3.8-13.7,11.4-1.6,7.5,1.9,14.7,7.9,15.9,5.9,1.3,12.1-3.8,13.7-11.4,1.6-7.6-1.9-14.7-7.9-16Z" style="fill: #fff; opacity: .2;"/>
    <path d="M398.9,214.5c2.2.9,4.8-.3,5.6-2.5.9-2.2-.3-4.8-2.5-5.6-2.2-.9-4.8.3-5.6,2.5-.9,2.3.3,4.8,2.5,5.6Z" style="fill: #fff; opacity: .2;"/>
    <g>
      <path d="M83.8,265c-.1,0-.2,0-.3,0-8.4-2.9-15.5-11.8-17.6-22.3-1.7-8.6.3-16.2,5.6-20.8,13.6-12,23.7-11.2,28.6-9.6,4.4,1.5,6.9,4.3,7.3,6.5,1.6,7.6-7.7,9.9-15.8,11.9l-.6.2c-7.7,1.9-12.8,6.6-12.8,6.6-.4.4-1,.4-1.4,0-.4-.4-.4-1,0-1.4.2-.2,5.5-5.1,13.7-7.1l.6-.2c9.4-2.3,15.5-4.2,14.3-9.6-.3-1.6-2.5-3.8-6-5-10.7-3.5-22.1,5.2-26.6,9.2-4.7,4.2-6.5,11.1-4.9,18.9,2,9.8,8.5,18.1,16.2,20.8.5.2.8.7.6,1.3-.1.4-.5.7-.9.7Z"/>
      <path d="M68.4,227.9c-.4,0-.7-.2-.9-.6,0-.1-4.9-11.2,6.5-22,8-7.6,17.4-12,24-11.1,2.9.4,5.2,1.8,6.6,4.1,1.4,2.3,1.6,4.6.7,6.8-1.8,4.5-7.8,7.5-10.4,8.2-.5.1-1.1-.2-1.2-.7-.1-.5.2-1.1.7-1.2,1.9-.5,7.5-3.1,9-7,.7-1.7.5-3.3-.6-5-1.1-1.8-2.8-2.9-5.1-3.2-5.9-.8-14.9,3.5-22.3,10.6-10.3,9.9-6.1,19.7-6,19.8.2.5,0,1.1-.5,1.3-.1,0-.3,0-.4,0Z"/>
      <path d="M70.4,212.2c-.4,0-.7-.2-.9-.6-.2-.4-4.9-10.4,12.8-24.6,10.3-8.2,19.2-10.4,23.4-5.6,1.1,1.2,1.5,3,1.1,5.1-.6,3.6-3.6,7.4-7.5,9.6-.5.3-1.1,0-1.4-.4-.3-.5,0-1.1.4-1.4,3.4-1.9,5.9-5.1,6.5-8.2.2-1.4,0-2.6-.7-3.4-3.3-3.8-11.4-1.5-20.6,5.9-16.3,13.1-12.3,22-12.3,22.1.2.5,0,1.1-.5,1.3-.1,0-.3.1-.4.1Z"/>
      <path d="M73,199.2c0,0-.2,0-.3,0-.5-.2-.8-.7-.7-1.2,1.2-3.9,7.5-23.6,16.6-30.9,6.5-5.2,11.1-4.4,13.2-2.3,2,2.1,2.2,6.6-2.1,11.2-1.7,1.9-3.1,3.6-4.1,5.1-.3.5-.9.6-1.4.3-.5-.3-.6-.9-.3-1.4,1.1-1.6,2.5-3.4,4.3-5.4,3.3-3.6,3.5-7,2.1-8.5-1.6-1.7-5.4-1.6-10.5,2.5-8.7,6.9-14.8,26.2-15.9,29.9-.1.4-.5.7-1,.7Z"/>
    </g>
    <path d="M232.3,147.6c-1.2,0-2.3-.2-3.4-.7-1.3-.5-2-1.4-2.1-2.4-.1-1.3.9-2.2,1.6-2.8,4.6-3.8,6.7-10.3,5.4-16.2-.1-.5.2-1.1.7-1.2.5-.1,1.1.2,1.2.7,1.5,6.5-.9,13.8-6,18.1-.4.3-1,.8-.9,1.1,0,.2.3.5.9.7,1.2.5,2.7.6,4,.4.5-.1,1.1.3,1.2.8,0,.5-.3,1.1-.8,1.2-.5,0-1.1.1-1.6.1Z"/>
    <path d="M278,251.9c-.8,0-1.6-.1-2.4-.3-7.9-2.1-13.9-14.1-15.9-18-1.2-2.5-1.4-4.8-.4-7,2.2-5.1,9.6-7.3,10-7.4l27-8.1c.5-.2,1.1.1,1.2.7.2.5-.1,1.1-.7,1.2l-27,8.1c0,0-6.9,2-8.7,6.2-.7,1.6-.6,3.4.4,5.3,5,10,9.9,15.7,14.6,17,2.2.6,4.2.2,6.3-1.2,1-.7,1.5-1.5,1.7-2.7.7-5.1-6.4-13-6.4-13.1-.4-.4-.3-1,0-1.4.4-.4,1-.3,1.4,0,.3.4,7.7,8.7,6.9,14.7-.2,1.7-1.1,3.1-2.6,4.1-1.8,1.2-3.6,1.8-5.5,1.8Z"/>
    <path d="M261.8,224.6c-.3,0-.6-.1-.8-.4,0,0-6.2-8.2-.4-15.2,5.6-6.7,21.7-7.8,32.3-8.6h.2c.6,0,1,.4,1.1.9,0,.6-.4,1-.9,1.1h-.2c-9.7.7-25.9,1.8-30.9,7.9-4.7,5.7.3,12.4.5,12.7.3.4.3,1.1-.2,1.4-.2.1-.4.2-.6.2Z"/>
    <path d="M260.8,211.2c-.3,0-.7-.2-.9-.5,0,0-4.3-7.8,1.8-14.2,5.9-6.2,12.4-9.1,31.4-7.9.6,0,1,.5.9,1.1,0,.6-.5,1-1.1.9-20-1.3-25.2,2.4-29.9,7.3-5.1,5.3-1.6,11.5-1.5,11.8.3.5.1,1.1-.4,1.4-.2,0-.3.1-.5.1Z"/>
    <path d="M356.9,397.7c-12.3,0-22.9-4.2-31.8-12.6-32.2-30.5-31-107.5-30.8-115.4-10.3-5.3-12.8-19.3-13-19.9,0-.5.3-1.1.8-1.2.5,0,1.1.3,1.2.8,0,.1,2.6,14.1,12.4,18.7.4.2.6.5.6.9,0,.8-2.9,83.2,30.2,114.5,9.7,9.2,21.7,13.2,35.6,11.8,0,0,0,0,.1,0,.1,0,14.5,0,25.8-14.6.3-.4,1-.5,1.4-.2.4.3.5,1,.2,1.4-11.7,15.1-26.1,15.3-27.3,15.4-1.8.2-3.5.3-5.3.3Z"/>
    <path d="M168.4,393.5c-.2,0-.5,0-.6-.2-.4-.4-.5-1-.1-1.4,26.1-31.1,35.4-89,35.4-132.8s.4-1,1-1,1,.4,1,1c0,44.1-9.4,102.5-35.9,134.1-.2.2-.5.4-.8.4Z"/>
    <path d="M160.3,322.7c-.5,0-.9-.4-1-.9,0-.3-3.9-28.2-14.9-55.6-1.5-3.8-4.6-10.5-6.6-13.5-.3-.5-.2-1.1.3-1.4.5-.3,1.1-.2,1.4.3,2.3,3.3,5.4,10.3,6.8,13.9,11.1,27.7,15,55.8,15,56.1,0,.5-.3,1.1-.9,1.1,0,0,0,0-.1,0Z"/>
    <path d="M354.3,282c-.3,0-.7-.2-.9-.5-9.7-16.4-19-26-19.1-26.1-.4-.4-.4-1,0-1.4.4-.4,1-.4,1.4,0,0,0,9.6,9.8,19.4,26.5.3.5.1,1.1-.4,1.4-.2,0-.3.1-.5.1Z"/>
    <path d="M142,232.7h-21.8c-.3,0-.5-.1-.7-.3s-.3-.5-.3-.7l1.3-21.8c0-.5.5-.9,1-.9h21.1c.3,0,.5.1.7.3.2.2.3.5.3.7l-.6,21.8c0,.5-.5,1-1,1ZM121.3,230.7h19.7l.6-19.8h-19.2l-1.2,19.8Z" style="fill: #fff;"/>
    <g>
      <path d="M377.9,309.6c-.2,0-.5,0-.7-.3-.4-.4-.4-1,0-1.4.1-.1,11.8-12.5,24.7-6.4,3.8,1.8,6.9,2.2,8.7,1.3,1.2-.6,1.9-1.8,2.3-3.5.6-3.1-2.8-8.9-8.9-12.6-13.8-8.5-27.5,0-32.7,4.1-.4.3-1.1.3-1.4-.2-.3-.4-.3-1.1.2-1.4,5.6-4.3,20.2-13.4,35-4.2,6.3,3.9,10.6,10.4,9.8,14.7-.5,2.4-1.6,4-3.3,4.9-2.5,1.2-6,.8-10.5-1.3-4.8-2.3-10.1-2-15.5.9-4.2,2.2-6.9,5.1-6.9,5.1-.2.2-.5.3-.7.3Z" style="fill: #fff;"/>
      <path d="M409,290c0,0,0,0,0,0-.6,0-1-.5-1-1,0-.6.5-1,1-1,0,0,2.7,0,3.8-1.9,1.3-2.4,1.6-5.6-6-11-5.8-4.1-19.3-13.8-37.7-.1-.4.3-1.1.2-1.4-.2-.3-.4-.2-1.1.2-1.4,19.6-14.5,34.5-3.9,40.1,0,6.9,4.9,9,9.2,6.6,13.6-1.5,2.8-4.9,3-5.5,3Z" style="fill: #fff;"/>
      <path d="M399.5,269.8c-.5,0-1,0-1.5,0h-.3c-.6,0-1-.5-1-1s.4-1,1-1h.3c3.6,0,11,0,13.5-2.5.6-.6.9-1.3.8-2.2-.2-5.4-7.9-8.1-23-8-8.9,0-15.6,3.2-19.7,5.9-.5.3-1.1.2-1.4-.3s-.2-1.1.3-1.4c4.3-2.8,11.4-6.2,20.8-6.2,16.7-.1,24.9,3.1,25.1,9.9,0,1.4-.4,2.6-1.4,3.6-2.8,2.9-9.2,3.1-13.5,3.1Z" style="fill: #fff;"/>
    </g>
    <path d="M598.6,139.1c-.7,0-1.4,0-2-.2-3.2-.7-5.8-2.9-7.5-6.1-1.6-3.2-2-7.1-1.2-11,.8-3.9,2.8-7.3,5.5-9.6,2.8-2.4,6.1-3.3,9.3-2.6,3.2.7,5.8,2.9,7.5,6.1,1.6,3.2,2,7.1,1.2,11-.8,3.9-2.8,7.3-5.5,9.6-2.2,1.8-4.7,2.8-7.3,2.8ZM600.8,111.4c-2.1,0-4.1.8-6,2.3-2.4,2-4.1,5-4.9,8.4-.7,3.4-.4,6.9,1,9.7,1.3,2.7,3.5,4.5,6.1,5.1,2.6.5,5.3-.2,7.6-2.2,2.4-2,4.1-5,4.9-8.4.7-3.4.4-6.9-1-9.7-1.3-2.7-3.5-4.5-6.1-5.1-.5-.1-1.1-.2-1.6-.2Z"/>
    <path d="M564.2,135.2c-.7,0-1.3,0-2-.2-6.5-1.4-10.4-9.1-8.6-17.1h0c1.7-8.1,8.4-13.5,14.8-12.2,3.2.7,5.8,2.9,7.5,6.1,1.6,3.2,2,7.1,1.2,11-1.5,7.2-7,12.4-12.8,12.4ZM555.5,118.3c-1.5,7,1.7,13.6,7.1,14.8,5.4,1.1,11-3.6,12.5-10.6.7-3.4.4-6.9-1-9.7-1.3-2.7-3.5-4.5-6.1-5.1-5.4-1.1-11,3.6-12.5,10.6h0Z"/>
    <path d="M576,123.7c-.3,0-.6-.2-.8-.4-.3-.5-.2-1.1.3-1.4,6.7-4.6,13.6-.9,13.9-.8.5.3.7.9.4,1.4-.3.5-.9.7-1.4.4h0c-.2-.1-6.1-3.2-11.8.7-.2.1-.4.2-.6.2Z"/>
    <path d="M585.6,147.5c-1.8,0-3.7-.3-5.7-1-.5-.2-.8-.7-.6-1.3.2-.5.7-.8,1.3-.6,4.4,1.5,8.4.9,9.5-.5.3-.3.5-.9,0-1.9-2.2-3.9-8.8-10.1-8.8-10.1-.4-.4-.4-1,0-1.4.4-.4,1-.4,1.4,0,.3.3,6.9,6.5,9.2,10.6,1.2,2.1.4,3.5-.2,4.2-1.1,1.4-3.4,2.1-6,2.1Z" style="fill: #fff;"/>
    <path d="M691.5,303.3c-.5,0-1-.4-1-1-2.3-54.9,16.4-98.1,16.6-98.5.2-.5.8-.7,1.3-.5.5.2.7.8.5,1.3-.2.4-18.7,43.3-16.4,97.7,0,.6-.4,1-1,1,0,0,0,0,0,0Z"/>
    <path d="M647,314.6c-.5,0-.9-.3-1-.8-2.1-8.9-3.8-17.2-5.1-24.9-4.5-26.7-3.1-42.6-3-42.7,0-.5.5-1,1.1-.9.5,0,1,.5.9,1.1,0,.2-1.4,15.8,3,42.2,1.3,7.6,3,15.9,5,24.8.1.5-.2,1.1-.7,1.2,0,0-.2,0-.2,0Z" style="fill: #fff;"/>
    <path d="M763.9,363.8c0,0-.2,0-.3,0-.5-.1-.8-.7-.7-1.2,0-.2,4.7-16.5,18.9-17.2,4.2-.2,7.1-1.2,8.3-2.9.8-1.1.9-2.5.4-4.2-.9-3-6.6-6.5-13.7-7.1-16.2-1.1-24.4,12.8-27.1,18.8-.2.5-.8.7-1.3.5-.5-.2-.7-.8-.5-1.3,2.9-6.4,11.7-21.2,29.1-20,7.4.5,14.2,4.3,15.5,8.5.7,2.3.5,4.3-.7,5.9-1.6,2.3-4.9,3.5-9.9,3.7-5.3.2-9.8,2.9-13.3,8-2.7,3.8-3.7,7.7-3.8,7.7-.1.4-.5.7-1,.7Z"/>
    <path d="M739.4,337.7c-.1,0-.3,0-.4,0-.5-.2-.7-.8-.5-1.3,10.6-21.9,28.7-19.5,35.5-18.5,8.4,1.1,12.2,4,12.2,8.9,0,3.5-3.4,5.2-3.6,5.2-.5.2-1.1,0-1.3-.5-.2-.5,0-1.1.5-1.3,0,0,2.4-1.2,2.4-3.5,0-2.7-1.2-5.7-10.5-6.9-7-1-23.5-3.2-33.5,17.4-.2.4-.5.6-.9.6Z"/>
    <path d="M733.5,324.9c-.2,0-.3,0-.5-.1-.5-.3-.7-.9-.4-1.4,2.5-4.5,7.3-10.8,15.5-15.2,14.7-7.8,23.5-8.8,26.8-2.8.7,1.2.8,2.5.4,3.9-1.3,4.3-8.1,7.8-11.8,9.7h-.3c-.5.4-1.1.2-1.3-.3s0-1.1.4-1.3h.3c3.2-1.8,9.8-5.2,10.8-8.6.2-.8.2-1.6-.3-2.3-2.6-4.7-10.8-3.5-24.1,3.6-7.8,4.2-12.3,10.1-14.7,14.4-.2.3-.5.5-.9.5Z"/>
    <path d="M784.5,218.6c-.3,0-.5,0-.7-.3-.4-.4-.4-1,0-1.4,30.7-31.3,52.1-125.9,52.3-126.9.1-.5.7-.9,1.2-.8.5.1.9.7.8,1.2-.2,1-21.7,96.2-52.8,127.9-.2.2-.5.3-.7.3Z" style="fill: #fff;"/>
    <path d="M857.3,164.9h0c-.5,0-45.9-.8-91.8-19.3-.5-.2-.8-.8-.6-1.3.2-.5.8-.8,1.3-.6,45.5,18.3,90.6,19.1,91.1,19.1.6,0,1,.5,1,1,0,.5-.5,1-1,1Z" style="fill: #fff;"/>
    <path d="M784.5,218.6c-.2,0-.3,0-.5-.1-.2-.1-.4-.4-.5-.6l-18.6-72.9c-.1-.5.1-.9.5-1.1,44.2-21.1,70.6-53.9,70.8-54.2.2-.3.6-.4,1-.4.4,0,.7.4.8.7l20.3,73.7c0,.3,0,.7-.2.9-20.6,22.8-39.4,36.3-51.6,43.6-13.2,7.9-21.4,10.3-21.7,10.4,0,0-.2,0-.3,0ZM767,145.2l18.1,71.1c2.6-.9,9.9-3.7,20.4-10,11.9-7.1,30.4-20.3,50.7-42.7l-19.6-71.3c-5.7,6.7-30.8,34.2-69.6,52.9Z" style="fill: #fff;"/>
    <path d="M940.6,131.8c-1.2,0-2.4,0-3.5-.2-1.6-.2-4-.6-5.1-2.4-.8-1.2-.8-2.8-.2-4.4.5-1.3,1.4-2.4,2.1-3.3l9.1-11.3c.3-.4,1-.5,1.4-.1.4.3.5,1,.1,1.4l-9.1,11.3c-.7.9-1.4,1.8-1.8,2.8-.4,1-.4,1.9,0,2.6.7,1.1,2.4,1.4,3.6,1.5,2.5.2,5.1.2,7.6,0,.5,0,1,.3,1.1.9,0,.5-.3,1-.9,1.1-1.5.2-3,.3-4.5.3Z"/>
    <path d="M1231.2,182.6c-.2,0-.4,0-.6-.2-.4-.3-.5-1-.2-1.4.3-.4,6-8.5-1.6-19.8-5.5-8.2-13.1-14.1-18.8-14.6-2.3-.2-4.1.5-5.5,1.9-1.3,1.4-1.8,2.9-1.6,4.6.7,3.9,5.4,7.6,7.1,8.4.5.3.7.9.4,1.4-.3.5-.9.7-1.4.4-2.3-1.2-7.3-5.2-8.1-9.9-.4-2.3.3-4.4,2.1-6.3,1.8-1.9,4.2-2.8,7.1-2.5,6.4.5,14.4,6.6,20.3,15.4,4.4,6.6,4.6,12.2,4,15.8-.7,3.9-2.4,6.3-2.5,6.4-.2.3-.5.4-.8.4Z"/>
    <path d="M1231.4,164.5h0c-.6,0-1-.5-1-1,0-.1.2-13.5-7.9-23.4-8.7-10.7-12.5-9.7-15.7-7.7-1.6,1-2,2.5-2,3.6-.2,2.9,1.7,6.3,4.9,8.8.4.3.5,1,.2,1.4-.3.4-1,.5-1.4.2-3.7-2.9-5.9-6.9-5.7-10.5.1-2.2,1.2-4.1,3-5.2,5.5-3.5,10.7-1.2,18.3,8.1,8.6,10.5,8.4,24.2,8.4,24.7,0,.5-.5,1-1,1Z"/>
    <path d="M1215,215c-.3,0-.6-.1-.8-.3-.4-.4-.3-1,0-1.4,19.9-17.5,18.4-29.2,13.5-35.9-8.5-11.9-18.4-14.8-24.8-13.7-3,.5-4.7,1.9-5,2.9-1.4,5,1.2,7.3,11.9,10.7,8,2.5,11.6,11.1,11.7,11.4.2.5,0,1.1-.5,1.3-.5.2-1.1,0-1.3-.5,0,0-3.4-8-10.5-10.3-9.1-2.9-15.3-5.5-13.2-13.1.6-2.1,3.1-3.7,6.5-4.4,10.7-1.9,20.8,6.2,26.8,14.5,10.1,14.1-4.3,30.2-13.8,38.6-.2.2-.4.2-.7.2Z"/>
    <path d="M1118.2,289.7c-.1,0-.2,0-.3,0-.5-.2-.8-.7-.6-1.3,9.4-27.7,22.7-49.6,32.2-63,.3-.5.9-.6,1.4-.2.5.3.6.9.2,1.4-9.4,13.3-22.6,35-32,62.5-.1.4-.5.7-.9.7Z"/>
    <path d="M1105.8,395.4c-.4,0-.8-.2-.9-.7-.2-.6-21.4-58-29.4-105.7-1.5-9.2-2.6-18.1-3-26.3,0-.6.4-1,.9-1.1.6,0,1,.4,1.1.9.5,8.2,1.5,17,3,26.1,8,47.6,29.1,104.8,29.3,105.3.2.5,0,1.1-.6,1.3-.1,0-.2,0-.3,0Z"/>
    <path d="M1181.4,195.9h-39.2c-.6,0-1-.4-1-1v-43.5c0-.6.4-1,1-1h39.2c.6,0,1,.4,1,1v43.5c0,.6-.4,1-1,1ZM1143.2,193.9h37.2v-41.5h-37.2v41.5Z" style="fill: #fff;"/>
    <path d="M554.9,292.2c-17.6-62.6-65.7-98.4-85.6-110.9-.7-.4-1.6-.2-2.1.5-.4.7-.2,1.6.5,2.1,15.3,9.6,66.5,45.9,84.3,109.2,0,0,0,.3.2.6h3.1c-.2-.7-.4-1.3-.4-1.4Z" style="fill: #fff;"/>
    <path d="M286.4,124.4c-.2,0-.4,0-.6-.2-.4-.3-.5-1-.2-1.4,2.6-3.4,6.3-4.6,6.4-4.6.5-.2,1.1.1,1.2.7.2.5-.1,1.1-.7,1.2,0,0-3.2,1-5.4,3.9-.2.3-.5.4-.8.4Z"/>
    <path d="M515.3,124.6c-.5,0-.9-.4-1-.8-.8-5-3.1-6.6-3.1-6.6-.4-.3-.6-.9-.3-1.4.3-.5.9-.6,1.4-.3.1,0,3,2.1,4,8,0,.5-.3,1.1-.8,1.1,0,0-.1,0-.2,0Z" style="fill: #fff;"/>
    <path d="M1005.7,131c-.1,0-.3,0-.4,0-.5-.2-.7-.8-.5-1.3,2.1-4.5,6.5-6.6,6.7-6.7.5-.2,1.1,0,1.3.5.2.5,0,1.1-.5,1.3,0,0-3.9,1.9-5.7,5.7-.2.4-.5.6-.9.6Z"/>
  </g>
</svg>