<svg xmlns="http://www.w3.org/2000/svg" viewBox="0 0 600 600"><g id="Change_colour"><path d="M508.148,186.432l-8.295,10.313-83.124,103.173c-10.248-45.029-20.401-90.474-23.539-107.368-6.934-37.199-14.668-62.98-41.826-62.98l-247.66-7.414v.064c-1.329-.064-2.706,.064-4.163,.368-17.631,3.779-8.183,47.895-8.183,47.895,.32,.32,38.592,1.409,38.592,1.409l.192-.016c.753,3.779,1.473,7.718,2.178,11.834,6.934,40.337,52.139,254.897,53.292,259.973,3.234,14.268,11.818,41.266,30.361,40.001l.016,.128,262.472-17.374c30.665-4.003,18.495-59.873,18.495-59.873l-54.877,3.363c-.801-3.331-7.895-33.788-16.494-71.259l98.177-121.908,8.871-11.001c-8.007-19.632-24.484-19.328-24.484-19.328Z" style="fill: rgb(31, 107, 239);"/></g><g id="Foreground"><path d="M508.148,186.432l-8.295,10.313c.096,.016,7.238,1.185,14.556,7.654,3.299,2.915,6.629,6.902,9.352,12.362l8.871-11.001c-8.007-19.632-24.484-19.328-24.484-19.328Z" style="fill:#231f20; opacity:.15;"/><path d="M394.375,360.223l-9.208,5.605c-6.95,4.82-3.395-2.402-3.395-2.402l4.035-10.344,.657-1.665-95.182,.688-2.738-13.243,102.58-.753-1.681,5.717,7.59-19.44,19.696-24.468c-10.248-45.029-20.401-90.474-23.539-107.368-6.934-37.199-14.668-62.98-41.826-62.98l-247.66-7.414v.064c13.179,.657,20.513,19.488,26.438,49.657,.753,3.779,1.473,7.718,2.178,11.834,6.934,40.337,52.139,254.897,53.292,259.973,3.234,14.268,11.818,41.266,30.361,40.001,1.249-.08,2.562-.305,3.923-.657,28.359-7.558,15.757-60.498,15.757-60.498l205.849-12.57,.577-.032c-.801-3.331-7.895-33.788-16.494-71.259l-4.067,5.044-27.142,16.51Zm-17.582-91.387l2.754,13.323-103.189-2.162-2.754-13.323,103.189,2.162Zm-6.998-33.884l-103.205-2.178-2.77-13.323,103.221,2.178,2.754,13.323Zm-7.702-37.247l2.754,13.323-103.221-2.178-2.754-13.323,103.221,2.178Zm-163.446,45.493c-2.226-.032-4.148-1.617-4.596-3.827l-9.624-49.705c-.272-1.345,.064-2.738,.913-3.827,.833-1.089,2.114-1.746,3.475-1.826l39.489,.128c2.386-.144,6.277,1.649,6.549,5.749l8.455,45.75c.24,1.345-.112,2.722-.961,3.779-.849,1.073-2.114,1.713-3.475,1.777l-39.937,1.986c-.096,.016-.192,.016-.288,.016Zm16.814,77.76c-.096,.016-.192,.016-.288,.016-2.226-.032-4.147-1.617-4.596-3.827l-10.104-50.538c-.272-1.345,.064-2.738,.913-3.827,.833-1.089,2.114-1.745,3.475-1.826l40.994-2.178c2.386-.128,4.5,1.553,4.916,3.907l9.063,50.73c.24,1.345-.112,2.722-.961,3.779-.849,1.073-2.114,1.713-3.475,1.793l-39.937,1.97Zm60.209,75.79c-.849,1.073-2.114,1.713-3.475,1.793l-39.937,1.97c-.096,.016-.192,.016-.304,.016-2.226-.032-4.148-1.617-4.58-3.827l-10.665-53.948c-.272-1.345,.064-2.738,.913-3.827,.833-1.073,2.114-1.745,3.475-1.825l40.994-2.162c2.386-.144,4.5,1.537,4.916,3.891l9.624,54.14c.224,1.345-.112,2.722-.961,3.779Zm2.882-106.151l103.189,2.178,2.754,13.323-103.189-2.178-2.754-13.323Zm17.663,85.302l-2.754-13.243,64.613-.48,2.962,13.243-64.821,.48Z" style="fill:#fff; opacity:.75;"/><path d="M514.409,204.399l-.4,.432-102.388,126.648c-2.514,15.116,9.896,12.234,9.896,12.234l4.067-5.044,98.177-121.908c-2.722-5.461-6.053-9.448-9.352-12.362Z" style="fill:#fff; opacity:.2;"/><path d="M411.621,331.48l102.388-126.648,.4-.432c-7.318-6.469-14.46-7.638-14.556-7.654l-83.124,103.173-19.696,24.468c-.224,14.972,14.588,7.094,14.588,7.094Z" style="fill:#fff; opacity:.4;"/><polygon points="389.443 343.826 391.124 338.109 288.544 338.862 291.282 352.104 386.464 351.416 389.411 343.922 389.443 343.826" style="fill:#fff; opacity:.2;"/><polygon points="389.411 343.922 386.464 351.416 386.576 351.416 389.411 343.922" style="fill:#f0ba31;"/><path d="M385.888,353.113l-.08-.032-4.035,10.344s-3.555,7.222,3.395,2.402l9.208-5.605-.032-.064c-1.473-7.142-8.455-7.046-8.455-7.046Z" style="fill:#231f20; opacity:.15;"/><path d="M397.033,324.386l-7.59,19.44-.032,.096-2.834,7.494h-.112l-.657,1.665,.08,.032s6.982-.096,8.455,7.046l.032,.064,27.142-16.51s-12.41,2.882-9.896-12.234c0,0-14.812,7.878-14.588-7.094Z" style="fill:#fff; opacity:.95;"/><polygon points="381.74 292.776 278.551 290.598 281.306 303.921 384.495 306.099 381.74 292.776" style="fill:#fff; opacity:.2;"/><polygon points="276.358 279.997 379.547 282.159 376.792 268.836 273.604 266.674 276.358 279.997" style="fill:#fff; opacity:.2;"/><polygon points="266.59 232.775 369.794 234.952 367.04 221.629 263.819 219.452 266.59 232.775" style="fill:#fff; opacity:.2;"/><polygon points="364.847 211.029 362.092 197.706 258.871 195.528 261.626 208.851 364.847 211.029" style="fill:#fff; opacity:.2;"/><polygon points="293.46 362.657 296.214 375.9 361.035 375.42 358.073 362.177 293.46 362.657" style="fill:#fff; opacity:.2;"/><path d="M267.006,338.83c-.416-2.354-2.53-4.035-4.916-3.891l-40.994,2.162c-1.361,.08-2.642,.753-3.475,1.825-.849,1.089-1.185,2.482-.913,3.827l10.665,53.948c.432,2.21,2.354,3.795,4.58,3.827,.112,0,.208,0,.304-.016l39.937-1.97c1.361-.08,2.626-.721,3.475-1.793,.849-1.057,1.185-2.434,.961-3.779l-9.624-54.14Z" style="fill:#fff; opacity:.95;"/><path d="M258.871,317.196c.849-1.057,1.201-2.434,.961-3.779l-9.063-50.73c-.416-2.354-2.53-4.035-4.916-3.907l-40.994,2.178c-1.361,.08-2.642,.737-3.475,1.826-.849,1.089-1.185,2.482-.913,3.827l10.104,50.538c.448,2.21,2.37,3.795,4.596,3.827,.096,0,.192,0,.288-.016l39.937-1.97c1.361-.08,2.626-.721,3.475-1.793Zm-12.122-35.95l-11.321,17.599c-.704,1.105-1.826,1.858-3.106,2.098-.288,.064-.577,.08-.865,.08-1.009,0-1.986-.304-2.802-.913l-8.887-6.485c-2.114-1.537-2.578-4.5-1.025-6.613,1.537-2.114,4.5-2.578,6.613-1.041l4.82,3.523,8.599-13.371c1.409-2.21,4.34-2.834,6.549-1.425,2.194,1.409,2.834,4.34,1.425,6.549Z" style="fill:#fff; opacity:.95;"/><path d="M245.324,274.697c-2.21-1.409-5.14-.785-6.549,1.425l-8.599,13.371-4.82-3.523c-2.114-1.537-5.076-1.073-6.613,1.041-1.553,2.114-1.089,5.076,1.025,6.613l8.887,6.485c.817,.609,1.793,.913,2.802,.913,.288,0,.576-.016,.865-.08,1.281-.24,2.402-.993,3.106-2.098l11.321-17.599c1.409-2.21,.769-5.14-1.425-6.549Z" style="fill:#fff; opacity:.2;"/><path d="M242.346,239.42c.849-1.057,1.201-2.434,.961-3.779l-8.455-45.75c-.272-4.099-4.163-5.893-6.549-5.749l-39.489-.128c-1.361,.08-2.642,.737-3.475,1.826-.849,1.089-1.185,2.482-.913,3.827l9.624,49.705c.448,2.21,2.37,3.795,4.596,3.827,.096,0,.192,0,.288-.016l39.937-1.986c1.361-.064,2.626-.705,3.475-1.777Zm-11.77-34.012l-11.321,17.614c-.705,1.105-1.826,1.857-3.107,2.098-.288,.048-.576,.08-.865,.08-1.009,0-1.986-.32-2.802-.913l-8.887-6.485c-2.114-1.553-2.578-4.516-1.025-6.629,1.537-2.098,4.5-2.562,6.613-1.025l4.82,3.523,8.599-13.371c1.409-2.21,4.34-2.85,6.55-1.425,2.194,1.409,2.834,4.34,1.425,6.533Z" style="fill:#fff; opacity:.95;"/><path d="M229.151,198.875c-2.21-1.425-5.14-.785-6.55,1.425l-8.599,13.371-4.82-3.523c-2.114-1.537-5.076-1.073-6.613,1.025-1.553,2.114-1.089,5.076,1.025,6.629l8.887,6.485c.817,.592,1.794,.913,2.802,.913,.288,0,.577-.032,.865-.08,1.281-.24,2.402-.993,3.107-2.098l11.321-17.614c1.409-2.194,.769-5.124-1.425-6.533Z" style="fill:#fff; opacity:.2;"/><path d="M235.652,422.53s12.602,52.939-15.757,60.498c-1.361,.352-2.674,.577-3.923,.657l.016,.128,262.472-17.374c30.665-4.003,18.495-59.873,18.495-59.873l-54.877,3.363-.577,.032-205.849,12.57Z" style="fill:#fff; opacity:.4;"/><path d="M103.704,122.22c-1.329-.064-2.706,.064-4.163,.368-17.631,3.779-8.183,47.895-8.183,47.895,.32,.32,38.592,1.409,38.592,1.409l.192-.016c-5.925-30.169-13.259-49-26.438-49.657Z" style="fill:#fff; opacity:.4;"/></g></svg>