<svg width="101" height="100" viewBox="0 0 101 100" fill="none" xmlns="http://www.w3.org/2000/svg">
<g id="F - Original" clip-path="url(#clip0_25_2151)">
<g id="Layer_1">
<path id="Vector" d="M65.375 73.083C69.175 72.104 72.27 70.433 74.713 68.267C72.271 70.432 69.175 72.104 65.375 73.083Z" fill="#EC4F04"/>
<path id="Vector_2" d="M74.951 29.802C75.036 29.923 75.133 30.056 75.217 30.177C75.205 30.056 75.181 29.935 75.169 29.802H74.951Z" fill="#5F7CFF"/>
</g>
<g id="Layer_2">
<path id="Vector_3" d="M0.165 0V51.736C0.00300001 51.931 0 99.928 0 99.928L100.178 99.764V0H0.165Z" fill="#ABBEF4"/>
<path id="Vector_4" d="M74.951 29.802C75.036 29.923 75.133 30.056 75.217 30.177C75.205 30.056 75.181 29.935 75.169 29.802H74.951Z" fill="#ABBEF4"/>
<path id="Vector_5" d="M52.751 99.842H52.78L53.595 96.687L52.751 99.842Z" fill="#ABBEF4"/>
<path id="Vector_6" d="M63.817 73.46C64.329 73.344 64.848 73.219 65.375 73.083C64.849 73.219 64.328 73.345 63.817 73.46Z" fill="#ABBEF4"/>
<path id="Vector_7" d="M59.394 74.245C60.811 74.063 62.281 73.807 63.817 73.46C64.329 73.344 64.848 73.219 65.374 73.083C68.699 72.226 71.485 70.84 73.765 69.056C74.091 68.801 74.406 68.538 74.712 68.267C75.445 67.617 76.119 66.923 76.735 66.19C77.351 65.457 77.911 64.684 78.414 63.878C79.018 62.911 79.541 61.894 79.985 60.839C80.133 60.487 80.273 60.131 80.404 59.771C80.753 58.81 81.041 57.821 81.269 56.809C81.383 56.303 81.483 55.792 81.567 55.276C81.884 53.34 81.995 51.338 81.911 49.312C81.883 48.637 81.833 47.958 81.762 47.279C81.648 46.192 81.48 45.103 81.259 44.017C80.264 39.131 78.199 34.321 75.216 30.177C75.252 30.455 75.277 30.682 75.292 30.84C75.307 30.997 75.313 31.085 75.313 31.085C75.293 31.404 75.251 31.692 75.191 31.951C74.888 33.248 74.101 33.824 73.004 33.889C72.785 33.902 72.553 33.894 72.31 33.868C71.946 33.829 71.557 33.747 71.148 33.628C70.739 33.51 70.31 33.354 69.865 33.168C68.087 32.423 66.062 31.181 64.091 29.801C62.325 28.566 60.602 27.221 59.137 26.021C56.696 24.022 54.975 22.428 54.975 22.428C55.024 25.104 54.854 27.561 54.527 29.801C51.428 51.35 33.438 53.82 33.438 53.82C33.317 53.614 33.172 53.433 33.026 53.239C32.905 53.057 32.784 52.852 32.651 52.682H32.639C32.037 51.931 31.378 51.329 30.69 50.848C30.175 50.487 29.643 50.194 29.108 49.958C28.93 49.879 28.751 49.807 28.572 49.74C28.214 49.607 27.857 49.497 27.503 49.407C26.442 49.138 25.413 49.05 24.514 49.05C24.248 49.05 23.993 49.05 23.751 49.074C18.194 49.691 14.865 53.602 14.574 58.904C14.553 59.269 14.551 59.627 14.568 59.979C14.602 60.683 14.71 61.36 14.886 62.005C14.974 62.328 15.078 62.642 15.198 62.948C15.438 63.56 15.741 64.137 16.098 64.675C16.456 65.213 16.868 65.71 17.328 66.163C18.018 66.842 18.815 67.421 19.691 67.88C20.276 68.186 20.895 68.44 21.544 68.636C22.516 68.93 23.551 69.093 24.622 69.109C27.09 68.961 29.215 68.367 31.119 66.956C31.391 66.754 31.658 66.536 31.922 66.3C32.031 66.191 32.14 66.082 32.249 65.973C32.515 66.245 32.8 66.53 33.104 66.819C33.408 67.108 33.732 67.402 34.077 67.692L25.728 99.883L52.749 99.839L53.592 96.684L59.391 74.242L59.394 74.245Z" fill="#DCE4FF"/>
<path id="Vector_8" d="M75.655 17.964C67.788 11.954 56.774 8.941 42.276 11.328C33.174 12.826 24.504 17.551 18.85 24.839C17.639 26.413 16.586 28.084 15.617 29.803C12.417 35.479 9.308 45.113 3.607 51.988C3.591 52.008 2.16 53.706 0.101 54.82C0.002 65.447 0 99.929 0 99.929L25.731 99.887L34.08 67.696C33.735 67.405 33.411 67.112 33.107 66.823C32.803 66.534 32.518 66.249 32.252 65.977C32.143 66.086 32.034 66.195 31.925 66.304C31.662 66.54 31.394 66.758 31.122 66.96C29.218 68.371 27.093 68.964 24.625 69.113C23.554 69.097 22.519 68.933 21.547 68.64C20.899 68.444 20.279 68.19 19.694 67.884C18.817 67.424 18.021 66.846 17.331 66.167C16.871 65.714 16.458 65.216 16.101 64.679C15.743 64.141 15.441 63.564 15.201 62.952C15.081 62.646 14.977 62.332 14.889 62.009C14.714 61.364 14.606 60.687 14.571 59.983C14.554 59.631 14.556 59.272 14.577 58.908C14.868 53.605 18.197 49.695 23.754 49.078C23.996 49.054 24.25 49.054 24.517 49.054C25.416 49.054 26.444 49.143 27.506 49.411C27.86 49.501 28.217 49.61 28.575 49.744C28.754 49.811 28.932 49.883 29.111 49.962C29.646 50.198 30.177 50.491 30.693 50.852C31.38 51.333 32.039 51.935 32.642 52.686H32.654C32.787 52.856 32.908 53.061 33.029 53.243C33.174 53.437 33.32 53.618 33.441 53.824C33.441 53.824 51.431 51.354 54.53 29.805C54.857 27.565 55.026 25.108 54.978 22.432C54.978 22.432 56.699 24.026 59.14 26.025C60.604 27.225 62.328 28.57 64.094 29.805C66.064 31.185 68.089 32.427 69.868 33.172C70.313 33.358 70.742 33.513 71.151 33.632C71.56 33.75 71.949 33.832 72.313 33.872C72.556 33.898 72.788 33.906 73.007 33.893C74.104 33.828 74.891 33.251 75.194 31.955C75.255 31.696 75.296 31.408 75.316 31.089C75.316 31.089 75.31 31.001 75.295 30.844C75.28 30.687 75.256 30.46 75.219 30.181C75.134 30.06 75.037 29.927 74.953 29.806H75.171C75.183 29.939 75.207 30.06 75.219 30.181C78.202 34.325 80.267 39.135 81.262 44.021C81.483 45.107 81.652 46.196 81.765 47.283C81.836 47.962 81.886 48.64 81.914 49.316C81.998 51.342 81.887 53.344 81.57 55.28C81.485 55.796 81.386 56.308 81.272 56.813C81.044 57.825 80.756 58.814 80.407 59.775C80.276 60.135 80.136 60.491 79.988 60.843C79.543 61.899 79.02 62.915 78.417 63.882C77.914 64.688 77.355 65.461 76.738 66.194C76.121 66.927 75.447 67.621 74.715 68.271C74.41 68.542 74.094 68.805 73.768 69.06C71.487 70.844 68.702 72.23 65.377 73.087C64.85 73.223 64.331 73.349 63.819 73.464C62.283 73.811 60.813 74.067 59.396 74.249L53.597 96.691L52.782 99.846L82.39 99.797C90.577 86.601 104.26 39.821 75.657 17.967L75.655 17.964Z" fill="#5F7CFF"/>
<path id="Vector_9" d="M67.243 39.921C67.243 39.921 66.337 44.45 68.451 47.52C68.451 47.52 70.867 46.664 72.125 48.577C72.586 49.278 72.729 51.043 71.773 52.15" stroke="#181828" stroke-width="1.211" stroke-miterlimit="10" stroke-linecap="round"/>
<path id="Vector_10" d="M38.364 69.426C38.364 69.426 43.407 72.845 53.077 72.85" stroke="#181828" stroke-width="1.211" stroke-miterlimit="10" stroke-linecap="round"/>
<path id="Vector_11" d="M46.937 53.249C50.508 52.638 52.931 55.991 53.044 58.89C53.154 61.712 51.39 64.384 47.629 64.663C44.024 64.931 42.128 62.738 41.414 59.778C40.734 56.958 42.635 53.57 46.937 53.249Z" fill="#ABBEF4">
                                    <animate attributeName="d" values="M46.937 53.249C50.508 52.638 52.931 55.991 53.044 58.89C53.154 61.712 51.39 64.384 47.629 64.663C44.024 64.931 42.128 62.738 41.414 59.778C40.734 56.958 42.635 53.57 46.937 53.249Z;M49.2492 52.0822C53.1935 51.3921 55.8698 55.1795 55.9947 58.454C56.1162 61.6416 54.1677 64.6598 50.0136 64.975C46.0317 65.2777 43.9375 62.8006 43.1489 59.4571C42.3978 56.2717 44.4975 52.4448 49.2492 52.0822Z;M46.937 53.249C50.508 52.638 52.931 55.991 53.044 58.89C53.154 61.712 51.39 64.384 47.629 64.663C44.024 64.931 42.128 62.738 41.414 59.778C40.734 56.958 42.635 53.57 46.937 53.249Z" begin="0s" dur="7s" repeatCount="indefinite" fill="freeze" calcMode="linear" keyTimes="0;0.5;1"/></path>
<path id="Vector_12" d="M59.7299 45.5061C59.916 44.5808 59.3229 43.6811 58.4051 43.4965C57.4873 43.312 56.5925 43.9125 56.4065 44.8379C56.2204 45.7632 56.8136 46.6629 57.7313 46.8475C58.6491 47.032 59.5439 46.4315 59.7299 45.5061Z" fill="#181828">
                                    <animate attributeName="d" values="M59.7299 45.5061C59.916 44.5808 59.3229 43.6811 58.4051 43.4965C57.4873 43.312 56.5925 43.9125 56.4065 44.8379C56.2204 45.7632 56.8136 46.6629 57.7313 46.8475C58.6491 47.032 59.5439 46.4315 59.7299 45.5061Z;M59.73 45.5061C59.916 44.5808 59.3229 43.6811 58.4051 43.4965C57.4873 43.312 56.5925 43.9125 56.4065 44.8379C56.2204 45.7632 56.8136 46.6629 57.7313 46.8475C58.6491 47.032 59.5439 46.4315 59.73 45.5061Z;M59.7299 45.5061C59.916 44.5808 59.3229 43.6811 58.4051 43.4965C57.4873 43.312 56.5925 43.9125 56.4065 44.8379C56.2204 45.7632 56.8136 46.6629 57.7313 46.8475C58.6491 47.032 59.5439 46.4315 59.7299 45.5061Z" begin="0s" dur="7s" repeatCount="indefinite" fill="freeze" calcMode="linear" keyTimes="0;0.5;1"/></path>
<path id="Vector_13" d="M75.0278 43.5607C75.2138 42.6354 74.6207 41.7357 73.7029 41.5511C72.7852 41.3666 71.8904 41.9671 71.7043 42.8925C71.5182 43.8178 72.1114 44.7175 73.0291 44.902C73.9469 45.0866 74.8417 44.486 75.0278 43.5607Z" fill="#181828"/>
<path id="Vector_14" d="M26.965 61.115C26.552 61.231 26.178 60.976 25.944 60.594C24.779 58.692 23.181 58.952 23.066 58.95C22.598 58.944 22.216 58.553 22.215 58.075C22.215 57.597 22.588 57.226 23.057 57.211C23.586 57.195 25.861 57.005 27.422 59.856C27.718 60.397 27.487 60.91 27.051 61.085C27.022 61.096 26.994 61.106 26.965 61.114V61.115Z" fill="#181828"/>
<path id="Vector_15" d="M61.288 56.914C61.288 56.914 64.375 60.537 70.212 58.256" stroke="#181828" stroke-width="1.211" stroke-miterlimit="10" stroke-linecap="round"/>
</g>
</g>
<defs>
<clipPath id="clip0_25_2151">
<rect width="100.178" height="99.929" fill="white"/>
</clipPath>
</defs>
</svg>